<svg xmlns="http://www.w3.org/2000/svg" id="Layer_1" data-name="Layer 1" viewBox="0 0 358.96 328.1"><defs><style>.cls-1{fill:#5aafe4;}.cls-2{fill:#fefefe;}.cls-3{fill:#76daeb;}.cls-4{fill:#010202;}.cls-5{fill:#020202;}.cls-6{fill:#010101;}.cls-7{fill:#d0cfcf;}.cls-8{fill:#080808;}.cls-9{fill:#bfe9f0;}.cls-10{fill:#171717;}.cls-11{fill:#353535;}.cls-12{fill:#262626;}.cls-13{fill:#513d2a;}.cls-14{fill:#030304;}.cls-15{fill:#010102;}.cls-16{fill:#050403;}.cls-17{fill:#090f12;}.cls-18{fill:#0c1114;}.cls-19{fill:#141a1c;}.cls-20{fill:#3b89b9;}.cls-21{fill:#0a0f11;}.cls-22{fill:#3a3a3a;}.cls-23{fill:#fde4cf;}.cls-24{fill:#f3caa3;}.cls-25{fill:#8ab8c3;}.cls-26{fill:#77daeb;}.cls-27{fill:#020101;}.cls-28{fill:#406673;}.cls-29{fill:#42a2de;}.cls-30{fill:#c8eff6;}.cls-31{fill:#8ab7c2;}.cls-32{fill:#3e6572;}.cls-33{fill:#41a2de;}.cls-34{fill:#070605;}.cls-35{fill:#fde3ce;}.cls-36{fill:#305a64;}.cls-37{fill:#75d7e7;}.cls-38{fill:#71d0e1;}.cls-39{fill:#3b606c;}.cls-40{fill:#506a70;}.cls-41{fill:#427b85;}.cls-42{fill:#3c94cb;}.cls-43{fill:#070707;}.cls-44{fill:#2c5258;}.cls-45{fill:#080e0f;}.cls-46{fill:#417780;}.cls-47{fill:#65bed2;}.cls-48{fill:#afafaf;}.cls-49{fill:#0e222f;}.cls-50{fill:#35464e;}.cls-51{fill:#ababab;}.cls-52{fill:#1c3c43;}.cls-53{fill:#27201a;}.cls-54{fill:#1f1915;}.cls-55{fill:#c3c3c3;}.cls-56{fill:#7d7d7d;}.cls-57{fill:#306169;}.cls-58{fill:#8e8074;}.cls-59{fill:#070d0e;}.cls-60{fill:#364850;}.cls-61{fill:#d1bcab;}.cls-62{fill:#3c474a;}.cls-63{fill:#627e82;}.cls-64{fill:#1d2f35;}.cls-65{fill:#8d8d8d;}.cls-66{fill:#2a231c;}.cls-67{fill:#5aa5b1;}.cls-68{fill:#385964;}.cls-69{fill:#030405;}.cls-70{fill:#1d2930;}.cls-71{fill:#2f363a;}.cls-72{fill:#1d303c;}.cls-73{fill:#414c53;}.cls-74{fill:#141516;}.cls-75{fill:#030506;}.cls-76{fill:#323333;}.cls-77{fill:#121314;}.cls-78{fill:#3f6572;}.cls-79{fill:#78939c;}.cls-80{fill:#748e97;}.cls-81{fill:#40616c;}.cls-82{fill:#647b83;}.cls-83{fill:#4c6871;}.cls-84{fill:#cfcfcf;}.cls-85{fill:#ccc;}.cls-86{fill:#242424;}.cls-87{fill:#bababa;}.cls-88{fill:#dd1c1c;}.cls-89{fill:#f2caa3;}.cls-90{fill:#140b0b;}.cls-91{fill:#3c3c3c;}.cls-92{fill:#9d9d9d;}.cls-93{fill:#c5a485;}.cls-94{fill:#8d7761;}.cls-95{fill:#131313;}.cls-96{fill:#3c2d1f;}.cls-97{fill:#2b3c45;}.cls-98{fill:#2d3d43;}.cls-99{fill:#406774;}.cls-100{fill:#657f87;}.cls-101{fill:#4c3927;}.cls-102{fill:#1f1a14;}.cls-103{fill:#d6c0af;}.cls-104{fill:#335263;}.cls-105{fill:#d9c6b5;}.cls-106{fill:#040404;}.cls-107{fill:#030303;}.cls-108{fill:#060505;}.cls-109{fill:#060606;}.cls-110{fill:#0b0b0b;}.cls-111{fill:#0c0c0c;}.cls-112{fill:#1a1a1a;}.cls-113{fill:#090706;}.cls-114{fill:#0a0908;}.cls-115{fill:#090807;}.cls-116{fill:#c3a384;}.cls-117{fill:#241d18;}.cls-118{fill:#b29478;}.cls-119{fill:#d6b290;}.cls-120{fill:#203743;}.cls-121{fill:#5c432b;}.cls-122{fill:#324148;}.cls-123{fill:#2d5064;}.cls-124{fill:#6e5f4f;}.cls-125{fill:#33464f;}.cls-126{fill:#48758c;}.cls-127{fill:#fdfdfd;}.cls-128{fill:#f0c8a1;}.cls-129{fill:#f8f6f6;}.cls-130{fill:#252525;}.cls-131{fill:#d6d6d6;}.cls-132{fill:#7f6359;}.cls-133{fill:#3d4449;}.cls-134{fill:#d5816b;}.cls-135{fill:#a46f5b;}.cls-136{fill:#7f5959;}.cls-137{fill:#63b6c4;}.cls-138{fill:#e1bc99;}.cls-139{fill:#bba085;}.cls-140{fill:#5aa5b2;}.cls-141{fill:#987e66;}.cls-142{fill:#f6f6f6;}.cls-143{fill:#bbb;}.cls-144{fill:#f7f7f7;}.cls-145{fill:#1e1e1e;}.cls-146{fill:#2d2d2d;}.cls-147{fill:#363636;}.cls-148{fill:#202020;}.cls-149{fill:#383838;}.cls-150{fill:#2c2c2c;}.cls-151{fill:#4a4a4a;}.cls-152{fill:#303030;}.cls-153{fill:#636363;}.cls-154{fill:#3b3b3b;}.cls-155{fill:#676767;}.cls-156{fill:#2f2f2f;}.cls-157{fill:#222;}.cls-158{fill:#101010;}.cls-159{fill:#151515;}.cls-160{fill:#141414;}.cls-161{fill:#ebf4f9;}.cls-162{fill:#e02a2a;}.cls-163{fill:#f6d3b2;}.cls-164{fill:#bebebe;}.cls-165{fill:#f2f2f2;}.cls-166{fill:#f1f1f1;}.cls-167{fill:#b0b0b0;}.cls-168{fill:#9c9c9c;}.cls-169{fill:#f4a6a6;}.cls-170{fill:#f5867e;}.cls-171{fill:#e3e3e3;}.cls-172{fill:#4d4d4d;}.cls-173{fill:#434343;}.cls-174{fill:#5d5d5d;}.cls-175{fill:#0f0f0f;}.cls-176{fill:#484848;}.cls-177{fill:#0d0d0d;}.cls-178{fill:#323232;}.cls-179{fill:#4f4f4f;}.cls-180{fill:#191919;}.cls-181{fill:#343434;}</style></defs><title>joni and kid</title><circle class="cls-1" cx="179.57" cy="157.74" r="157.74"/><path class="cls-2" d="M274.25,284.73l51.56-.37-26.18-67.62-6.71,42"/><path d="M294.12,195.27c-1.34,2.87-.27,4.78,1.75,7.15,8.45,10,14.33,21.52,19.17,33.61.57,1.41,1.22,2.8,1.83,4.19,3.45,10.88,6.94,21.75,9.13,33,.29,1.51.35,3.06.51,4.58,0,2.22,1.32,4.59-.7,6.59l-2.91-6.47c-4-6.52-5.23-14-7.41-21.21-4.18-13.76-9-27.26-15.86-39.94-.36-.58-.66-1.2-1-1.81s-.54-1.16-.85-1.73c-.72-1.21-1.4-2.45-2.22-3.6-1.46-1.69-2.38-3.8-4.28-5.16.56,2.68,3.57,3.54,4.63,5.85a10.94,10.94,0,0,1,.52,1.49c.43,1.61,1.38,3.09,1.26,4.84-.07,1.07-.09,2.33-1.5,2.47-1.15.11-1.71-.9-1.89-1.84-.54-3-2.74-4.56-4.79-6.45-2.31-2.13-3.91-1.58-5.69.46a37.64,37.64,0,0,1-11.14,8.3c-15.06,7.92-30,7.48-44.91-.63-2.05-1.12-3.7-3.06-6.24-3.14-1.73,5.62-5.42,10.12-8.45,15-.69,1.11-1.5,2.17-2.1,3.34-2.06,4-.5,7,4,7.65.89.14,1.8.26,2.17,1.29-2.23,2.9-6.44,3.53-10.18,1.57-1.08-.57-2-2.11-3.45-1s-.82,2.82-.47,4.32c1.27,5.39,5.61,8.41,9.25,12,.93.91,2.11,1.56,3,2.52s2.45,2,1.82,3.59c-.73,1.84-2.47,2-4.25,1.61-2-.93-3.09-2.87-5.07-4.31.19,1.9,1.2,3.4,1.21,5.09-1.59,2.88-2.64,2.69-4.84-.88-2-5.38-4.06-10.73-6.33-16-.86-2-1.87-2.63-3.81-1.48a20.28,20.28,0,0,0-2.54,1.32c-5.14,4.23-9.68,2.73-14-1.31-1.26,1.18-.69,2.69-.5,3.92,1,6.27.92,12.63,1.9,18.89.3,1.9.27,3.85-1.18,5.44-1.72,1.25-3.48,2.34-5.67,1.07-2-3.35-1.73-7.21-2.07-10.84-.95-10.15-2.31-20.25-3.05-30.41-.21-2.81-1.08-3.87-4.06-2.8-2.37.86-5,.29-7.49.13-10.53-.67-21.39,1.74-31.49-3.15-1.36-.21-1.57.67-1.69,1.73-.59,4.86-.92,9.74-1.44,14.61-.93,8.67-1.75,17.34-2.87,26-.19,1.45-.41,2.86-1.76,3.76a5.11,5.11,0,0,1-1,.45c-4.58,1.27-6.31,0-5.59-4.61.46-3,.43-6,.64-8.95,1-11.19,2.26-22.36,3.47-33.53.9-8.32,1.65-16.66,2.7-25a9.72,9.72,0,0,0-7.46-11c-1.4-.37-2,.23-2.34,1.45a36.81,36.81,0,0,1-1.15,4.88c-2.83,10.94-5.85,21.83-9.23,32.61-3.16,10.06-7.76,19.55-11.64,29.33q-1.38,3.51-2.73,7c-.6,1.55-1.21,3.51-3.42,2.85-2.37-.72-1.83-2.71-1.33-4.5.06-.23.14-.45.22-.68,1-1.69,1.06-3.69,2-5.4.59-.78,1-1.66,1.66-2.43.19-.34.69-.62.52-1-.09-.18-.41.29-.62.5-.38.53-.75,1.05-1.18,1.54-3.16,2.81-5.5,6.56-9.53,8.4-1.53.7-3,1.52-4.21-.53-.77-2.32,1.24-3.08,2.41-4.32a2.34,2.34,0,0,1,.31-1c2.83-2.77,6-5.11,9-7.63a29.68,29.68,0,0,0,3.82-4.27,1.91,1.91,0,0,0-.4-3.09c-8-6-12.94-14.73-19.81-21.7a33.75,33.75,0,0,1-8.86-16.48c-.72-3-.49-5.62,1.76-7.61,9.94-8.79,16.57-20.47,26-29.71,1.39-1.36,1.78-2.71.63-4.44C76.43,163,73.76,155.48,69.17,149A8.13,8.13,0,0,0,66.25,146c-8.39-4.12-11.91-10.64-10.53-19.69.89-5.81,2.94-11.11,7.6-15a4.63,4.63,0,0,0,1.51-2c3-8.66,8.67-15.66,14.06-22.84,2.43-1.38,4-3.68,5.83-5.65a5.57,5.57,0,0,1,1.68-.94c1.87-.29,1.43-2.83,3.16-3.25a2.85,2.85,0,0,1,2.38.72c2.85,2.27.18,3.34-1,4.74a100.66,100.66,0,0,0-13,14.11,129.32,129.32,0,0,0-9.39,15.13c-.42,1.24-.71,2.53-1.89,3.38-5.54,4-5.74,9.9-5.33,15.8.24,3.43,1.06,6.91,4.1,9.27a5.39,5.39,0,0,0,6.18.83c4.62-2,9.57-3.13,14.12.57a22.56,22.56,0,0,1,2.91,3.64c3.43,4.48,8.09,5.76,13.41,4.92a26.83,26.83,0,0,0,9.89-4.1c6.1-3.79,12-8,18.77-10.53,7-2.61,13.75-3.5,19.65,2.49,1.23,1.25,2.3.75,3.41-.27,5.33-4.92,11.25-5.17,17.65-2.3a45.14,45.14,0,0,1,12.54,8.89,37.25,37.25,0,0,0,6.2,4.87c4,2.46,7.83,1.63,10.67-2.19,1-1.29,1.35-3.16,3.3-3.56.89.15,1.21.79,1.35,1.58.1,1.8-.88,3.24-1.6,4.77-1.69,5.49-5.74,8.07-11.1,9.16-2.42.49-4,3.07-6.7,3a10.44,10.44,0,0,1-7.26-2.89c-.18-1.4.83-1.38,1.74-1.47,1.05.09,2.05.5,3.11.56.48,0,.74-.26.27-.17a.83.83,0,0,1-.61-.24c-1.47-2-.82-3.3,1.73-4.05-4.15-3.18-7.38-6.91-11.45-9.7a24.68,24.68,0,0,0-8.76-4.05c-3-.65-5.7-.16-7.89,2.2a20.5,20.5,0,0,1-2.88,2.71c-2.33,1.7-4.09,1.46-5.88-.77-3.81-4.71-6.32-5.33-12.23-3.69s-11,5.22-16.23,8.4a58.91,58.91,0,0,1-8.47,4.86c2.86.21,3.83,1.36,3.08,3.48,1.36.19,2.38-.33,3.46-.37,2.92.24,2.56,1.5,1,3.15-5.26,2.9-10.45,3.22-15.49-.5a6.2,6.2,0,0,0-3.72-1.08,21.29,21.29,0,0,1-9.23-2.75,6.83,6.83,0,0,1-3.67-3.76c-.88-2.55-2.81-4.44-4.23-6.66-1.19-1.86-2.93-2.07-4.71-1.09s-.67,2.53-.3,3.82c4.09,14.22,13.37,24.68,24.56,33.74,6.25,5.06,13.23,9.05,20.2,13.68.29-1.87-.47-3.32-.31-4.81.3-2.91,1.7-3.84,4.38-2.69a36.26,36.26,0,0,1,9.28,6.12c.91.78,1.79,1.6,2.74,2.33,3.51,2.68,3.57,2.7,5.26-1.52a7.65,7.65,0,0,1,4.09-4.3c3.36-1.57,5.1-.92,6.45,2.57.7,1.79,1.26,3.62,1.79,5.47,1.12,3.95,1.41,4.11,5.18,2.15,8.32-4.34,14.33-11.12,19.38-18.84,1-1.51,1.72-3.2,3.1-4.4,1.66-1.45,2.86-1.06,3.29,1.09a14.76,14.76,0,0,1-.55,6.39c4.43-3.54,7.36-7.87,10.19-12.28a12.61,12.61,0,0,1,2.84-3.68c4.29-3.88,4.81-9.16,5.26-14.43.15-1.79,0-3.63.75-5.31,1.23-2.83,2.08-5.6-.23-8.31a1.6,1.6,0,0,1,1.06-1.11,2.73,2.73,0,0,0,3.28-2.49c.67-4.17,2.7-8.25.8-12.6a3.49,3.49,0,0,1,.29-2.44c.81-1.71-.52-3.51.24-5.22a1.9,1.9,0,0,1,1.25-1.08,2.1,2.1,0,0,1,1.67.42,11.3,11.3,0,0,1,1.32,3.92,48.37,48.37,0,0,1-1.47,17.4c-.39,1.33.07,2.61-.19,3.9a2.93,2.93,0,0,1-.45,1.06,9,9,0,0,0-3.57,8.39c.2,2.35,0,4.73,0,7.1,0,1.57.12,3.11,1.74,4a6.89,6.89,0,0,0,6.86-.28c2.31-1.24,4.63-2.48,7-3.67,3.59-1.83,6.11-1,8,2.51,1.27,2.29,2.32,4.72,4.39,6.48a14.8,14.8,0,0,0,16.73,1.92c3.76-1.89,4.32-1.73,6.51,1.9,2.59,4.28,4.8,4.79,11.43,2.59a5.68,5.68,0,0,1,4.77.18A4.55,4.55,0,0,0,279,173a5.8,5.8,0,0,1,2.37-.4,1.34,1.34,0,0,1,.76,1.66c-1.22,3.8.64,6.93,2.18,10.11,1.72-1.47,1.4-3.58,1.53-5.42a25.72,25.72,0,0,0-2.46-12.17c-1.52-3.5-3.33-3.78-6.24-1.22-.63.56-1.16,1.23-2.14,1.08-1-.45-1.16-1.37-1.2-2.33,1.26-3.78,2.62-4.81,6.68-5.09a14.57,14.57,0,0,1,3.39,1.53,6.16,6.16,0,0,1,1.19,1,26.4,26.4,0,0,1,2.05,2.85,5.15,5.15,0,0,1,.41.93c.5,2.34,1.39,4.56,2.08,6.84a52.09,52.09,0,0,1,.19,10.37,7.13,7.13,0,0,1-1.89,4.93c-3.3,3.21-2.5,6.85-1.24,10.74,1.38-3.62,5.14-5.55,6.13-9.38.42-1.21.41-2.79,2.33-2.7,1.32,1.34.73,2.82.28,4.26A32.7,32.7,0,0,0,294.12,195.27Z"/><path class="cls-3" d="M104.65,202.31c.38-2.24.81-4.47,1.13-6.72.27-1.91,1-2.58,2.78-1.37,2.58,1.74,5.18,3.45,7.82,5.09a3.06,3.06,0,0,1,1.46,3.35q-2.45,22.28-4.84,44.57c-.64,5.93-1.21,11.87-1.81,17.81-.35,4.12-1.13,8.2-1.13,12.35-1.09,2.5-2.61,1.38-3.47.09-2.14-3.18-4.9-3.18-8.21-2.49-5.13,1.08-10.16,2.71-15.44,3l-5.63-1.53c-1.51-.58-3-1.33-2.42-3.29s.23-4.52,3.32-4.61c.35,1.62-2.06,4.05.32,4.72,2.53.71,2.4-2.41,3-4,4.27-11.66,9.89-22.78,13.82-34.56A234.55,234.55,0,0,0,104.65,202.31Z"/><path class="cls-4" d="M79.47,86.4c-4.45.65-8.35,2.89-12.11,5C56.69,97.5,46,103.58,36.67,111.73A19.45,19.45,0,0,0,31.44,118c-1.77,3.95-4.63,5-8.54,4.63-2.57-2-5.14-3.92-8.74-3.31a1.85,1.85,0,0,1-2.34-1.68c-.15-1.63,1.13-2.31,2.3-2.89,6.24-3.08,11.18-7.8,16-12.64a3.91,3.91,0,0,0,1.66-2.8c-4.47,1.91-9.19,2-13.52,3.51-3.51,1.26-6.07,4.15-8.81,6.56-2.36,2.07-3,2.32-4.34-.39-1-2-1.79-4-4.11-5.17-1.87-.94-.85-2.29.54-3.25,8.8-6.08,17.83-11.71,27.74-15.86,4.74-2,9.64-3.61,14.15-6.16C51.63,76.4,58.79,72,66.26,68.2c1.91-1,3.86-1.84,5.8-2.76,3.17-.86,6-2.78,9.55-2.5,2.11.16,4.08.36,5.52,2,2.34,2.63,4.35,2,6.57-.21,1-1,2-3.38,3.51-1.91,1.21,1.21-.8,2.8-1.94,3.62C91.58,69.06,90.56,73,89.55,77c-1.23,1-.29,3.71-2.88,3.6.26-6.21-3-8.38-9-5.92a72.09,72.09,0,0,0-12.54,7c-6.29,4.15-12.46,8.5-19,12.31a8.64,8.64,0,0,0-2.41,1.66c-7.89,5.3-13,13.67-21,18.9-1.61,1.06-1.26,2.09.23,3,1.16.69,2.33,1.3,3.65.37,7.22-12.3,19.92-17.91,31-25.55,5.76-4,12.4-6.19,18.52-9.44,2.67-1.41,5.65-3.45,9.08-1.59C83.32,83,82.71,86.19,79.47,86.4Z"/><path class="cls-5" d="M279.43,288.06c.59.87,1.61.43,2.36.78,1.5,1.43,3.64,2.73,1.06,5-6.35,3.64-13.19,6.24-19.81,9.33A215.69,215.69,0,0,1,234,314.65c-1.63.49-3.61,4.76-3.07,6.29.35,1,1.12.71,1.79.6a16.52,16.52,0,0,0,4.65-1.88c7.49-3.78,15-7.48,23-10.09a16.32,16.32,0,0,0,5.55-1.6,6.5,6.5,0,0,1,.86-.36,15.05,15.05,0,0,0,3-1.14,6.37,6.37,0,0,1,.85-.36,14.75,14.75,0,0,0,3-1.2,7.67,7.67,0,0,1,.89-.38,4.37,4.37,0,0,1,2.44-.3c.78.21,1,.94,1.26,1.6.37,1-.42,1.21-1,1.55-2.25,1.31-4.78,2.08-6.85,3.72l0,0c-2.95,1.09-6,1.88-8.62,3.79-11.84,5.78-24,11.14-37,12.95-8.1,1.14-16.56-1.33-23.6-6.52-.59-1-1.85-1.09-2.56-1.93-.91-1.47-3.16-1.82-3.28-3.95a1.64,1.64,0,0,1,.86-.52c3.38.18,6.27,2.3,9.66,2.41,5,.83,9.7,2.69,14.6,3.83,1.83.42,3.54.65,4.6-1.53,1.48-3,.92-4.31-2.46-4.87-8.32-1.4-16.24-4.19-24.17-6.92a13.7,13.7,0,0,0-5.61-.94c-1.62-1.44-1.21-3.23-.86-5,.27-.56.79-1.27,1.31-.91,4,2.69,8.81,1.87,13.1,3.37,6,2.09,12.07,3.92,18.17,5.67a10.82,10.82,0,0,0,3.85.76,21.25,21.25,0,0,0,7.89-1.82c13-5.28,25.67-11.28,38.47-17a14,14,0,0,1,3-1.13c.4-.25,1.6.1.72-1.12S277.4,287.56,279.43,288.06Z"/><path class="cls-6" d="M302.6,237.57a14.23,14.23,0,0,0-.26,5.32,10.82,10.82,0,0,1-1.19,6.61c-4.21,7.14-5.76,15.22-8.34,22.94-1.28,3.84-4.78,5.79-8,7.76a22.08,22.08,0,0,1-7.32,2.78c-1.08,1-5.16-.74-3,3.39.31.61-1.41.94-2.34,1.08-2.15.12-4.33-.16-6.45.38-1.37.36-3.14.08-3.21,2.51-.05,1.36-1.61,1.17-2.66.94-1.63-.36-3.23-.88-4.88-1.21-2.18-.62-4.46-.16-6.64-.63a29.84,29.84,0,0,0-3.88-.74,3.75,3.75,0,0,1-1.89-1.21c-1.74-3.82-1.42-5.28,1.52-7.79a59.65,59.65,0,0,1,22.56-12,8.89,8.89,0,0,1,2.44-.54c.73,0,1.54.05,1.86.79s-.26,1.34-.82,1.8a19.52,19.52,0,0,1-3.73,2.1c-6.06,3.08-12.21,6-17.4,10.5a2.67,2.67,0,0,1-1.13.82,11.89,11.89,0,0,1,1.84-.39,26.93,26.93,0,0,1,3,0,19.26,19.26,0,0,1,2.75.49c-.94-.49-1.69-.31-2.22-.79a1.38,1.38,0,0,1-.41-1.45,3.22,3.22,0,0,1,3.9-1.05c8.25,3,15.49-.77,22.91-3.24,1.81-.6,3.55-1.47,5.42-1.9,2.26-.51,3.61-1.76,3.72-4.17a8.54,8.54,0,0,1,1.63-4.23c1.6-2.72,1.89-5.89,3-8.78.63-1.66,0-2.43-1.74-2.58a40.28,40.28,0,0,1-13.44-3.37c-2.53-1.14-3.2-.11-3.34,2.22-.11,2,.53,4.24-1.39,6.22-2.55-3.63-.07-7.84-2-11.22-1.18-4-.8-8-.33-12a35.62,35.62,0,0,0,.34-4.25c.09-1.95.19-3.91,1.76-5.38,3.29.28,2.22,2.68,2.08,4.48-.35,4.36-1,8.71.33,13a59.1,59.1,0,0,0,14,4c3.75.48,5.46-.9,6.84-4.9,1.3-3.74,1.49-7.75,2.48-11.57.47-1.78.52-3.93,3-4.4C304.24,230.22,304.49,233.87,302.6,237.57Z"/><path class="cls-7" d="M302.6,237.57c.06-2.24.14-4.48.17-6.72,0-1.13.38-2.52-1.5-2.58-1.5-.52-1.64-2-2.15-3.16a6.52,6.52,0,0,1-.27-1.16c-.17-1.75-.94-3.45-.69-5.24.17-1.16-.23-2.78,1.78-2.81a120.55,120.55,0,0,1,9.68,20.33c5.3,13.6,8.64,27.84,13.28,41.66-1-.81-1.59-2-3.52-1.53-2.75.68-4-1.67-4.95-3.77-2.29-5-3.54-10.39-5.15-15.65-1.81-5.93-3.52-11.9-5.28-17.85A2.18,2.18,0,0,0,302.6,237.57Z"/><path class="cls-8" d="M282.56,293.19c2.22-1.89-1.09-2.8-.77-4.35,3.5,1.35,4.75,3.36,4.11,7.06-.21,1.24-.31,1.93.89,2.9,1.72,1.39,1.91,3.15-.52,4.48a138.78,138.78,0,0,1-16,7.82c1.12-2.13,3.64-2.15,5.25-3.5.61-.51,2.31,0,1.76-1.83s-1.69-.3-2.49-.53a7.55,7.55,0,0,0-1.06-.17,2,2,0,0,1,1.63-1.72C280.28,301.71,281.84,297.75,282.56,293.19Z"/><path class="cls-9" d="M78.21,268.58c-3.3,3.26-3.56,5.58-.9,7.9-1.66.14-2.56-.47-3-2.25-.57-2.58-2.22-3.63-5-2.94-1.25.3-3.23,1.26-3.43-1.43,1.71,1.94,3.26.75,4.59-.41,3-2.64,6-5.42,8.92-8.15,1.67.25,1.16,1.21.69,2.15C79,265,79.6,267.15,78.21,268.58Z"/><path class="cls-10" d="M199,319c.55.92,2,1,2.1,2.34-3.85-1.75-7.81-3.26-11.32-5.7a3.81,3.81,0,0,0-2.27-.82c-3.54.4-6.78-.83-10.11-1.56a4.54,4.54,0,0,0-.16-.66,1.78,1.78,0,0,1,1.91-.65c3.47.87,7.09.71,10.53,1.49C193.3,314.21,195.72,317.37,199,319Z"/><path class="cls-11" d="M272.42,286.57c.46-.07,1.29-.07,1.32-.22.56-3.22.54-3.22,3.78-3.37l-3.27,1.75c1.48,1.58,3.9,1.63,5.18,3.33-.64.23-1.61.43-.39,1.18.66.4,1.9.35,1.54,1.47s-1.46,1-2.44.86C276.83,289.22,273.57,289.1,272.42,286.57Z"/><path class="cls-8" d="M261.72,314.87c2.24-2.7,5.43-3.25,8.62-3.79A38.3,38.3,0,0,1,261.72,314.87Z"/><path class="cls-12" d="M325.81,284.36c1.39-2.07-.06-4.45.7-6.59,1,2.1.38,4.47,1,6.64.16.54,0,1.27-.83,1.22S325.75,285.05,325.81,284.36Z"/><path class="cls-13" d="M253,128.08c-.05-1,1.08-1.91.41-2.93-.09-.14-1.19.39-1.82.61a5.17,5.17,0,0,0-3-.87c-3.55-.1-4.33-1.53-2.56-4.63a7.19,7.19,0,0,1,1.33-1.68c1.87-1.53,4.14-2.45,6-4a16.54,16.54,0,0,1,5.38-3c1.49-.38,3.05-.62,4.16-1.87,1.6-2,4-2,6.2-2.3a30.33,30.33,0,0,1,14.08,1.5,10.8,10.8,0,0,1,7.45,8.87,37.61,37.61,0,0,0,4.22,12.49c1.55,2.7,1.12,5.53-.62,8.13a11.27,11.27,0,0,1-3.8,2.5c-1.39.47-2.9.28-4.27.84a19.62,19.62,0,0,1-4.28.95,7.41,7.41,0,0,1-2.15-.2c-4.71-3-4.71-3-8.46,1.93a1.17,1.17,0,0,1-.79.34c-1.6-1.45-.87-3.49-1.14-5.28-.19-1.31-.24-2.8-1.67-3.32s-2.11.75-2.95,1.57c-.66.63-1.28,1.71-2.35,1-.91-.58-.67-1.69-.52-2.64,0-.23.13-.46.17-.7.26-1.46,1.66-3.28.19-4.32-1.72-1.21-3.27.62-4.74,1.51-1.21.73-2.26,1.8-3.85,1.66a1.8,1.8,0,0,1-1.26-1.57A14.08,14.08,0,0,1,253,128.08Z"/><path class="cls-14" d="M89.55,77C88,70.28,93.64,67.28,97.19,63.2l-.65-.62c-1.37,1.34-2.75,2.67-4.1,4s-2.82,1.65-4,.2c-4-4.76-8.68-4.05-13.56-1.82a5,5,0,0,1-2.77.47c5.63-3.42,11.29-4.8,16.84.09,1.24,1.1,2,.78,3-.21,6-5.94,13.48-9.5,21.4-12.11a4.73,4.73,0,0,0,3.53-3.57c.62-2.36,2.16-3.39,4.74-3.49A52.17,52.17,0,0,0,138.09,43c12.46-4.72,23.53-2.1,33.52,6.24,2.85,2.37,5.52,5,8.28,7.45s3.12,5.39,1.64,8.79c-2.56,5.9-2.42,5.85,2.74,9.42a77.35,77.35,0,0,1,27.82,34.45c.53,1.78,1.57,3.65-.9,4.86-1.37.12-2-.75-2.2-1.88-1-5.26-4.32-9.3-7.22-13.51-5.89-8.56-12.89-16-21.78-21.57a6.35,6.35,0,0,0-6-.81c-4.63,1.55-9.47,1.19-14.18.21s-9.69-.85-14.38-2.69a7.76,7.76,0,0,0-7.83,1.29c-.19.16-.41.38-.61.36-5.76-.43-11.17,4.87-17.27.77-2.21-1.49-4.85.12-7.19,1-1.6.64-3,2.11-5,1.17a2.34,2.34,0,0,1,1.26-2.73c3.67-2.3,9.31-5.18,13.92-1.17,1.35,1.18,2.91.86,3.94.89-2.21,0-2.21,0-3.18-1.62,2.3-.94,4.6-1.73,6.42-3.68s4.79-.84,7.19-1.49c4.22-1.14,8.4-.66,12.69.48a91.6,91.6,0,0,0,17.56,3.15c4.21.28,7.44-1.32,9.18-5.4.45-1.05.82-2.33,2.38-2.32A9.15,9.15,0,0,1,170.2,74.8a38,38,0,0,1-8.56-.48c-7-1.1-13.87-3.26-21.1-3.13-2.26,0-4.34,1.58-6.72.64a3.44,3.44,0,0,0,3.07.24c4.58-1.24,9-.56,13.66.29,6.62,1.2,13.29,3.36,20.15,2.4A9.5,9.5,0,0,0,178.79,68c1.38-4.09,1.9-7.79-1.71-11.22a91.8,91.8,0,0,0-10.55-8.64c-8.41-5.88-17.4-7-27-3.53a54.91,54.91,0,0,1-14.91,3.24c-.72.11,0,.72-.25.34-.08-.11,0-.21.27-.23,6-.5,11.7-2.23,17.47-3.73,1.63-.42,3.27-.87,4.87.11.63,1.92-1.08,1.86-2,2.09-6.6,1.62-13.1,3.75-19.95,4.12-1.42.07-2.51,0-2.64,2-.11,1.64-1.66,2.19-3,2.76-3.61,1.57-7.45,2.56-11.05,4.19-.59.34-1.2.67-1.81,1-5.82,2.77-11.24,6-14.89,11.61-1.29,1.87.65,3.53.36,5.33l-.3.37Z"/><path class="cls-15" d="M258.76,112.31l-5,2.91c-.52.4-1.13.42-1.42-.15s.24-1,.62-1.42l0,0c1.25-.63,2.5-1.25,3.69-2,7.13-6.62,15.81-6.93,24.72-5.87,6.84.82,11.09,4.82,12.38,11.59a31.74,31.74,0,0,0,4.42,12c2.72,4.11-.54,12.43-5.6,14.52-2,.84-1.89,1.27-1,3.16,3.84,8.5,7.34,17.16,7.59,26.71.05,2.31-.11,4.57-2,6.27-.61.55-1.16,1.25-2.14.83-1.44-1.21-1.63-3-1.68-4.59-.23-6.73-1.47-13.32-2.39-20,.12-1.54-.35-2.14-2.12-2.36a51.23,51.23,0,0,0-9.1,0,2.38,2.38,0,0,1-.85-.51c-.45-1.41.24-2.92-.38-4.31a6.74,6.74,0,0,1-.26-1.41,15.73,15.73,0,0,0-.3-3.21,3.62,3.62,0,0,1-.11-.92c0-1.26,1.25-1.17,1.9-1.73l2.14,0c-.23,2.52-.91,5-.37,7.56a7.61,7.61,0,0,0,.4.81c.65.8,1.31.43,2,0,.82-.68,2.13-.31,2.83-1.33-.45-2.35-3.79-2.62-3.77-5.28,1.46-3.06,4.4-2.27,6.88-2.66a3.2,3.2,0,0,0,1.25-.72,4.4,4.4,0,0,0,2.37-2.08c1.91-3,2-5.9-.13-8.94a20.65,20.65,0,0,1-3.35-10.12c-.56-5.8-4.07-8.9-9.16-10.1a37.51,37.51,0,0,0-15.26-.24c-1.24.23-1.47,1.51-2.37,2.06C261.66,111.42,260.08,111.47,258.76,112.31Z"/><path class="cls-16" d="M279.64,141.87c.34,1.29-1.86.84-1.48,2.16-3.76-2-3.84-1.95-5.06,2.57-.5,1.84-.76,3.77-1.8,5.43-.58.93-1.35,1.81-2.58,1.58s-1.4-1.51-1.45-2.57c-.18-3.46,0-6.94-.11-10.41a1.32,1.32,0,0,0-.65-1.35c-1.4.89-1.83,2.64-3,3.81-.87.9-1.87,1.6-3.17,1.14a2.76,2.76,0,0,1-1.71-2.89c0-2.42.79-4.71,1.34-7.82a43.15,43.15,0,0,0-9,7.27c-1.24,1.35-2.34,3.73-4.53,2.47-2.54-1.48-.68-3.6.13-5.34a12.72,12.72,0,0,1,2.93-4.46,3.81,3.81,0,0,0,1-1.2c-.34.2-.4.65-.77.85-1.41,1.25-2.84.66-4.28.1-2.37-1.15-5.44.5-8.2-2.22a36.61,36.61,0,0,1,9.52-.05c2.75.53,3.47-3.41,6.24-2.86,1.05,1.46.34,2.91,0,4.37a1.55,1.55,0,0,0-.33,1.56c.18.47.74.1,1.13,0,2.12-1.32,4.22-2.68,6.37-4a2.7,2.7,0,0,1,3.06-.09c1,.75.64,2,.49,3-.25,1.83-1.67,3.45-1.08,5.66,1.94-1.27,2.88-4.93,5.63-3.38,3.25,1.83,1.5,5.63,2.17,8.89,1.3-1.94,2-4.19,3.92-5.2C277.41,137.33,277.83,140.94,279.64,141.87Z"/><path class="cls-5" d="M212.72,141.9c-1.11-2.76,0-5.32.63-8,1.19-4.81.6-9.74.82-14.61a.88.88,0,0,1,.91.32c1.32,5.08.78,10.16,0,15.23,1.38-5.41,1.89-10.82-.25-16.2a17.28,17.28,0,0,0-1.08-2.94,5.25,5.25,0,0,1-.75-1.63c-.2-.83-.43-1.83.31-2.35,1.11-.77,1.64.49,2.33,1,.85.67,1.42,1.62,2.19,2.36,3,3.29,3.36,7.49,4.12,11.56.46,2.69-.39,5.27-.71,7.89l0,0c-.57,1.9-.53,4-1.78,5.67C217.6,142.33,215.42,143.2,212.72,141.9Z"/><path class="cls-17" d="M246.76,130.94h-8.15c2.54,1.56,5.46-.17,7.9,1.56a3.94,3.94,0,0,1-3.34.92c-6.08-.4-11.46,1.78-16.73,4.42a5.55,5.55,0,0,0-2.7,2.43,1.34,1.34,0,0,1-2,0,2.22,2.22,0,0,1,.27-2.77C229.41,132.16,237.37,128.84,246.76,130.94Z"/><path class="cls-18" d="M248,118.85a17.36,17.36,0,0,0-1.74,2.66c-.65,1.53-1.33,3.21,1.69,2.5,1.5-.36,3.2-.46,3.6,1.75a3.91,3.91,0,0,1-1.38.28c-2-.38-4.8,1.31-5.81-1.28-1.15-2.92.13-5.56,2.84-7.32A1.76,1.76,0,0,1,248,118.85Z"/><path class="cls-19" d="M295.39,180.8l1.68-.74c0,5.26-.52,10.42-2.95,15.21-.43-1.75.41-3.28.86-4.87.38-1.37,1-2.74-.29-4C293.33,184.35,293.93,182.52,295.39,180.8Z"/><path class="cls-20" d="M222,137.49c.1,1-.38,2,.23,2.9a1.74,1.74,0,0,1-2.07,1.89c-1.5-.14-1.43-1.32-1.25-2.44.79-1.76,1.57-3.51,2.36-5.26C221.56,135.53,220.93,136.73,222,137.49Z"/><path class="cls-21" d="M248,118.85a1.45,1.45,0,0,1-.8-1.41c1.78-1.44,3.44-3.06,5.7-3.79-.22.77-.54,1.6.8,1.57A27.15,27.15,0,0,1,248,118.85Z"/><path class="cls-14" d="M217.83,115.16l-4.07-3.2c-.71,1.46.71,2.55.36,3.82a.38.38,0,0,1-.64.17l-1.63-.07c0-1.83-.06-3.69,1.52-5A6.44,6.44,0,0,1,217.83,115.16Z"/><path class="cls-22" d="M213.37,110.84c-1.22,1.46-.42,3.54-1.52,5l-.66.65a.5.5,0,0,1-.73.25,1.56,1.56,0,0,1-.36-.83,6.05,6.05,0,0,1,.4-2.18c2.57-.75,1-3,1.59-4.44Z"/><path class="cls-20" d="M221.24,134.61c.24-2.63.47-5.26.71-7.89C223.24,129.49,222.12,132,221.24,134.61Z"/><path class="cls-21" d="M256.59,111.68a4.22,4.22,0,0,1-3.69,2A5.63,5.63,0,0,1,256.59,111.68Z"/><path class="cls-23" d="M206,139.59c-.44,0-.6.25-.58.66-.51,1-.18,2.38-1.45,3-2.18,2.39-2.71,6.18-6.53,7.24a9.14,9.14,0,0,1-7.89-.9c-3.38-2.14-6-5.11-9.08-7.62-3.54-2.91-7.2-5.57-11.62-7-6-2-11.16-.79-15.37,3.84-1.41,1.55-2,1.67-3.35-.07-3.58-4.54-8.49-5.53-13.93-4.38-7.06,1.49-13.08,5.22-19.08,9-3.75,2.36-7.42,4.87-11.61,6.45a20.89,20.89,0,0,1-8.47.95c-6.12-.25-8.71-4.78-11.74-8.9-2.36-2.76-10.5-3.65-13.55-1.14-2.47,2-4.38,1.16-6.36-.39a11.4,11.4,0,0,1-4.29-8c-.59-4.94-.57-9.77,1.71-14.36.89-1.79,1.92-3.5,4.22-3.29,2.12.2,3,1.9,3.36,3.73.79,4.33,4.18,5.51,7.68,6.56,1.46.44,2.73.19,2.76-1.71.07-4.07,2.24-7.28,4.31-10.5,4.36-6.78,9.25-13,16.13-17.61C112.57,87.58,124,87,135.8,93.61c4.7,2.62,9.6,5,12.85,9.58.93,1.31,1.69.76,2.53-.24,5.58-6.64,12.9-10.68,21-13.09,7.75-2.31,14.73-.08,20.6,5.3A47.47,47.47,0,0,1,207.88,123c.18,1,.47,2,1.69,1.94,2.58,0,2.21,1.83,2,3.23-.53,2.91-.93,5.84-1.62,8.73C209.38,139.15,208.35,140.24,206,139.59Z"/><path class="cls-2" d="M117.66,157.05a8,8,0,0,1-5.22.6c.41-1.09,2.34-1.43,1.7-2.7-.92-1.84-2.92-.24-4.28-1.14-.26-1.18.92-1.08,1.51-1.44,5.4-3.34,10.77-6.72,16.25-9.92a28.74,28.74,0,0,1,11.76-4.15c4.06-.38,7.2.84,9.34,4.58,1.54,2.7,3.55,2.62,5.62.12,4.13-5,8.16-5.95,14.26-3.3,4.91,2.13,13.63,9.05,17.78,14.11-3.55.7-3.55.7-2.49,3.14-.5,2-1.83.93-2.91.81-.72.09-1.71-.78-2,.6,2.22,1.4,4.28,3.29,7.25,2.29a70.64,70.64,0,0,1,11.42-4.87c3.3-1,4.06-4.28,5.53-6.89,2.06,0,1.22,1.53,1.24,2.55.07,2.91-.87,5.79-.35,8.72-.48,3.48-2.29,6.32-4.39,9-3.25,4.43-6.1,9.15-9.8,13.25-1.33,1.48-2.58,3.05-3.86,4.58l-1.07-.73c.41-2,.86-4,1.2-6,.21-1.26.66-3-.76-3.5S183.49,178,183,179c-3.71,6.71-8.77,12.25-14.43,17.33a39.26,39.26,0,0,1-10,6.23c-1.68.78-2.32.43-2.75-1.29-.7-2.78-1.52-5.54-2.42-8.27-1.18-3.62-2.46-4-5.83-2.11a7.17,7.17,0,0,0-3.73,5.44c-.6,4-2.12,3.13-4.52,1.38-3.87-2.8-7.05-6.54-11.48-8.58-1.44-.67-2.86-2.5-4.49-1.16s-.61,3.32-.13,5c.31,1.12.61,2.24,1,3.54-.63-.06-1,0-1.27-.14-13.89-8.43-27.3-17.54-37.47-30.46-4.77-6.06-7.21-13.47-9.68-20.75-.42-1.22-.28-2.28,1.11-2.48,1.76-.26,3.82-2,5.29.1,2,2.79,4.65,5.19,5.46,8.72a3,3,0,0,0,1.82,2.07c1.29.64,2.53,1.39,3.86,1.93,4.87,2,10.29,2,15,4.85,3,1.78,6.78.47,10-1.29,1-.45,2.18-1,1.77-2.14C119.76,156.24,118.43,156.37,117.66,157.05Z"/><path class="cls-24" d="M278.1,180.19l.49.63c3.54,3.18,2.86,7.56,3.15,11.6.24,3.34.09,6.7,1.22,9.92.58,1.68-.09,3-1.16,4.27-13.5,16.16-40.06,18.56-56.41,5.2-12.58-10.27-16.95-23.51-14.76-39.29.36-2.57,1.36-4,4.33-4.13,3.41-.12,6.4-1.81,9.2-3.73,2.16-1.49,3.85-1.49,5.23,1.16a20.55,20.55,0,0,0,6.81,7.25c4,3.58,8.92,3.28,13.79,2.93,1.29-.09,2.61-.58,3.44.94.45,1.89-.34,3.75-.17,5.63a9.46,9.46,0,0,0,.33,3.63c.59,1.52,1.45,3,3.29,2.42s1.63-2.35,1.4-3.9a17.61,17.61,0,0,0-2.4-7c-.43-1.23-2.77-2.11-.75-3.82a1.86,1.86,0,0,1,1.5,0c1.3,1.29,2.39,2.82,4.15,3.6,3.74,1.65,7.5,2.11,11.32.29,1.51-.67,2.66.59,4,.73A2.87,2.87,0,0,1,278.1,180.19Z"/><path class="cls-25" d="M172.26,279.44c-2.25.61-3.44-2.42-5.86-1.59-6.79,2.34-14-.45-20.8,1.36a2.14,2.14,0,0,1-1.71-.2c-4.22-4.05-9.13-2.61-13.46-1-4.55,1.69-8.6-.4-12.87-.22-.87-3.58.45-7.06.71-10.57.46-6.26,1.36-12.49,1.94-18.75.46-5.08,1.08-10.14,1.48-15.23.09-1.07.27-2.86,2.34-2.05A40.45,40.45,0,0,0,143,234.38a147.92,147.92,0,0,1,16.84.18c1.86.07,3.63.17,5.11-1.09s2.12-.55,2.37.93c.41,2.48.78,5,1,7.47Q170.33,260.65,172.26,279.44Z"/><path class="cls-13" d="M218.9,139.84c.65,2.89,1.9,2.25,3.32.55l1.34-.7c.42-1,1.37-1.6,2.08-2.38a32.61,32.61,0,0,1,20.87-4.81c1.2,1.28,2.4.55,3.6,0,.2.16.27.32.2.47s-.14.23-.2.23c-1.16,2.22-2.27,4.46-3.49,6.65-.55,1-1.3,2-.2,2.85,1.43,1.15,2.23-.32,2.84-1.17,3.06-4.28,7.43-6.87,12.27-10.17-.78,3.5-1.48,6.21-1.95,9-.21,1.22-.54,2.88,1.14,3.37,1.33.38,2-.8,2.75-1.83,1.11-1.63,1.94-4.87,3.62-4.32,2.15.7.74,3.8.91,5.84.2,2.37,0,4.77.06,7.16,0,.89-.41,2.23.83,2.44s1.79-1,2.11-2c.47-1.6.87-3.22,1.32-4.83a16.48,16.48,0,0,1,.83-2.72c.49-1,.71-2.56,2.11-2.64s1.56,1.56,2.21,2.48c.21.29.46.54.69.81v0c.91,1.09-.08,2.56.72,3.68l.06,1.35c1,1.47-.35,2.91-.07,4.37l0,0c3.5.45,7-.42,10.54.18a2.67,2.67,0,0,1,2.42,2c1.75,8.32,1.53,16.92,3.55,25.21-.24,1.87-.47,3.75-.7,5.62l-1.28,3c-.44,2-1.82,2.8-3.7,3a3.68,3.68,0,0,1-1.08-2.91,11.78,11.78,0,0,1,.54-2,22,22,0,0,0,.55-4.71c0-2.51.76-5,0-7.54a29.48,29.48,0,0,0-.12-3.12,37.61,37.61,0,0,0-2.09-5.9,3,3,0,0,0-.71-1.19l.06-.18c-.85-.94-.74-2.4-1.78-3.23a3.81,3.81,0,0,0-2.4-2c-4.76-1.08-7.49.47-8.48,4.8a17.45,17.45,0,0,1-.36,5.76c-.23.84-.47,1.67-.76,2.49a10.11,10.11,0,0,1-.58.87c-7.09,3.51-9.88,2.72-13.23-3.85-.91-1.78-2-2.1-3.76-1-9.47,5.82-19.42,1.31-23-7.1-2-4.75-3.73-5.06-8.32-2.48-1.88,1.05-3.78,2.07-5.67,3.1a8.58,8.58,0,0,1-7.92.53c-3.6-5.86-2.47-17.18,2.09-20.82v0C214.87,141.48,217.28,141.83,218.9,139.84Z"/><path class="cls-2" d="M210.5,113.77a1.32,1.32,0,0,1-.14,2.15c-.36.89.32,2.39-1.45,2.46-1.85-.84-1.72-2.77-2.22-4.28-3.05-9-7.45-17.17-15.28-23s-16.44-6-25.09-1.71a50.46,50.46,0,0,0-14,10.5c-1.89,2-3,1.91-4.93,0a49.56,49.56,0,0,0-16.22-11.1c-9.52-4-19-3-27.64,2a52.84,52.84,0,0,0-24.38,30c-.86,2.65-2.06,2.88-4.17,1.67A6.58,6.58,0,0,1,72,119.44c-1.1-2.63-1.81-5.46-4.23-7.35-.39-.31-.16-.88.26-1.23,2.15-5.09,5.25-9.63,8.33-14.17C80.28,91,85.28,86.18,90.31,81.45a5.24,5.24,0,0,1,4.36-1,20.6,20.6,0,0,0,13-1.77c1.8-.92,3.55-2,5.42-2.73,3-1.19,5.81-1.72,8.86.31s7.17,1.11,9.62-1.67c.55-.61,1.23-1.8,1.85-.74,1.56,2.68,2.52.91,4.14.06,3.53-1.84,7.3-1.17,11.1-.36,7.66,1.63,15.68,4.87,23.15,2.42,5.69-1.88,8.66.37,12.32,3,10.38,7.38,17.83,17.31,24.08,28.2C209.32,109.16,209.74,111.56,210.5,113.77Z"/><path class="cls-26" d="M78.61,184.23c6.54-9.84,6.59-9.84,14.66-1.86a37.79,37.79,0,0,0,4.7,4.41c2,1.36,2.26,7.41.64,9.15-.82.88-1.55.17-2.25-.12-1.65-.67-3.25-1.5-4.9-2.19-.8-.33-1.75-.4-2.18.55s.31,1.55,1.06,2a19.21,19.21,0,0,0,3.18,1.65c3.86,1.29,4.85,3.76,3.24,7.4-2.82,11.86-5.78,23.68-9.1,35.41-.4,1.41-.82,3.33-3.13,2C76.66,236.39,68.84,230.1,63,221.8c.08-3.68.76-7.34,0-11.06-.42-2,1.43-3,2.81-4.23,5.06-4.36,10.39-8.46,14.55-13.78a14.76,14.76,0,0,0,2.57-4.7c.95-3,.23-3.92-2.92-3.59A1.62,1.62,0,0,1,78.61,184.23Z"/><path class="cls-3" d="M207.56,211.15c1.18,3,.13,5.78-1.11,8.56-1.82,4.07-3.19,8.28-2.86,12.85a4.51,4.51,0,0,1-1.43,3.89,101.76,101.76,0,0,1-12.28,9.78c-4.12-13.19-9.6-25.43-19.62-35.74,1.86-.65,3.48-1.2,5.09-1.79,7.5-2.76,14-7.34,20.68-11.54.79-.49,1.8-1.11,1-2.25-.64-.93-1.49-.36-2.23,0-1.47.8-3,1.59-4.43,2.38-2.43,1-1.37-1.57-2.22-2.19a4.64,4.64,0,0,1,.84-5.78,116,116,0,0,0,8.32-10.79c1.4-2,2.15-1.49,3.36,0a32.89,32.89,0,0,1,4.65,7.19c1.28,2.11.38,3.93-.46,6a17.8,17.8,0,0,0-.24,12.11l0-.07C205.3,206.37,206.84,208.6,207.56,211.15Z"/><path class="cls-27" d="M299.69,224.7a1.27,1.27,0,0,0,0,.64c.45,1.43,1.33,3.12-.62,4-1.63.71-3-.39-4-1.64-2.08-2.5-2.17-5.49-2-8.53a7.29,7.29,0,0,0-2.3-6.11c-3-2.61-3.77-2.55-6.82,0a58,58,0,0,1-7.25,5.8c-5.37,3.31-11,5.93-17.36,6.74a13.82,13.82,0,0,0-4.56.55c-4.3.62-8.53,0-12.75-.7a27.9,27.9,0,0,0-6.08-1.29,5,5,0,0,1-2.51-.75c-.93-.39-1.81-2.19-2.81-.06a196.59,196.59,0,0,0-5,20.23c-1.12,6.26.95,8.91,7.37,9.53,1,.09,1.91,0,2.87.07,2.76.15,3.8-.9,3.51-3.85a92.58,92.58,0,0,1,0-17.22,23.62,23.62,0,0,1,1-3.4c2.87-1.88,3.27.65,3.71,2.31a115.82,115.82,0,0,1,2.77,16.66c.87,7.74,1,15.53,1.46,23.3.18,3,.59,3.28,3.14,1.74a53.89,53.89,0,0,1,16-6.37c2.53-.57,3.65-1.73,3.43-4.47-.32-4,.6-7.86,1-11.79a2,2,0,0,1,.72-.94c1.59,3.2,0,6.74,1.4,10,0-2-.1-4,0-6,.2-3.14,1.23-3.67,4.11-2.42a37,37,0,0,0,14.35,3.46c1.63,0,2.85.58,2.29,2.25-1.19,3.56-1.45,7.47-3.69,10.67-1.33-2-.27-4,.19-5.88,1-4.29,1.1-4.26-3.12-4.71a27.21,27.21,0,0,1-8.51-2.75c-2.89-1.34-3.22-1.15-3.25,2.12,0,3-.3,6-.6,8.94a6.53,6.53,0,0,1-4.2,5.7c-5,2.35-9.67,5.18-15,8.08,3.69,1.35,6.72,2.07,10.14,1.22,6.53-1.64,12.55-4.76,19.07-6.38,1.76-.43,2.17-2.58,3.94-2.95.31,2.67-.9,4.36-3.4,5.19-4.75,1.58-9.61,2.92-14.26,4.78a20.32,20.32,0,0,1-14,.75c-1.67-.5-3.5-1-5,.52-1,.84-2.28.72-3.44,1a2,2,0,0,1-1.49-.33c3.37-4.39,8.55-6.15,13.07-8.83,3.05-1.8,6.32-3.23,9.34-5.27A25,25,0,0,0,259.88,271c-5,2.46-9.94,4.93-14.34,8.59-2.91,2.41-3.94,4.48-2.63,7.84-3.63-.87-2.7-3.37-2.07-5.76.3-1.25,1.61-1.94,1.9-3.28-3-1-5.49,1.28-8.3.85a1.51,1.51,0,0,1-1.05-.9c.55-1.48-.66-1-1.32-1.14a72.89,72.89,0,0,1-16.15-4.09c-2.18-.82-4.25-1.45-6.44-.07a1.7,1.7,0,0,1-2-.11,1.47,1.47,0,0,1,.07-1.61l5.2-2.67c3.51-2,6.91-.19,10.35.26,1.67.15,1.56-1.07,1.56-2.12,0-2.83.09-5.66-.06-8.49-.74-2.91-4.45-3.74-4.85-6.9a48.64,48.64,0,0,1,.57-12.35A40.54,40.54,0,0,1,225,224.09c1.46-2.91,1.43-4.9-1.65-6.42a6.51,6.51,0,0,1-2.64-2.85c0-2.16.85-.87,1.59-.4,6.44,4.11,12.81,8.37,20.71,9.17,11.89,1.19,23.24.4,33.32-7.29a78.5,78.5,0,0,0,8.08-6.89c1.71-1.73,3.05-1.46,4.93,0,3.21,2.44,6,5,6.42,10.08,2.36-3.54-.22-5.63-.18-8,1.65,0,1.92,1.42,2.57,2.46a26.91,26.91,0,0,1,.55,3.21A18.21,18.21,0,0,0,299.69,224.7Z"/><path class="cls-5" d="M68.07,110.86c3,2,3.85,5.16,4.72,8.33.56,2,2.47,2.5,4,3.25,1.37.65,1.09-.68,1.31-1.38a53,53,0,0,1,23-29.84c12-7.63,24.41-7.71,36.61-.14a44.12,44.12,0,0,1,10.56,8.58c1.37,1.61,1.91,1.22,3.16-.1,4.74-5,10.08-9.26,16.5-11.9,9.24-3.8,17.85-2.57,25.56,3.87,6.95,5.79,11,13.47,13.93,21.85.55,1.58,1,3.17,1.56,4.76,1.49.62.14,2.87,1.92,3.31.13.07.25.15.37.23-.16.69-.67,1.57-.42,2,2.62,4.87,0,9.4-.79,14-.42,2.54-1.8,3.18-4,1.83a3.73,3.73,0,0,0,3.63-3.4,48.31,48.31,0,0,0,1.44-10.57c-3.19,1.34-4.29.88-4.18-3,.28-10.16-11.87-27.36-21.34-31.11-4.27-1.69-8.72-2.28-13-.8-8.22,2.8-16,6.4-21.2,13.93-1,1.49-1.89,1.46-3,0-13.51-17.61-35.88-19.45-52-4.34a69.55,69.55,0,0,0-12.52,16.59c-1.27,2.21-2.6,4.49-1.85,7.44.49,1.92-1.12,2.39-2.77,2-4.8-1.14-9.33-2.59-9.88-8.63a2.6,2.6,0,0,0-2.55-2.56,2.76,2.76,0,0,0-2.88,1.71,22.39,22.39,0,0,0-.65,20.44C65,141.31,68.6,142,72,139.71c3.2-2.2,11.55-.88,13.32,2.11-4-3.48-8.58-2.28-12.63-1-5,1.61-7.2,1.53-10.12-2.71-3.41-5-3-17.65.91-22.24C64.92,114.16,67.45,113.39,68.07,110.86Z"/><path class="cls-3" d="M204.79,267.2c-.18.66.07,1.65-.76,1.86-8.16,2.09-15.72,6-24,7.73-.3.06-.66-.22-1-.34-1-2.29-1-4.84-1.14-7.21-.4-5.45-1-10.88-1.45-16.32-.11-1.1-1.7-3.67,1.55-3.7a43.56,43.56,0,0,0,4.31,3.15,5.22,5.22,0,0,0,6.55-.48c2-1.62,4.55-2.52,6.83-3.81,1.09-.61,1.74-.44,2.17.75C200.07,255,203.1,260.84,204.79,267.2Z"/><path class="cls-28" d="M85.22,81.31a12.82,12.82,0,0,0-5.92,1.18A171.75,171.75,0,0,0,49.55,98.61c-7,4.77-14.41,8.87-19.55,15.9-1,1.42-1.37,3.36-3.05,4.32-1.29-2.49-2.55-5,.5-7.16,6.44-4.68,10.76-11.51,16.78-16.6.32-.61,1.34-.69,1.26-1.62,8.18-5.3,16.25-10.78,24.58-15.83,4.07-2.47,8.08-5.58,13.54-4.39,4.22.93,5.46,3.58,3.06,7.41A1.59,1.59,0,0,0,85.22,81.31Z"/><path class="cls-29" d="M220.62,252c.63,2.77,4.61,2.72,4.89,5.79-.55,3.46-.09,6.94-.25,10.4-.06,1.15.19,2.69-1.87,1.86a36.79,36.79,0,0,0-10.64-1.36l-.21-.21a1,1,0,0,1,.22-1.38c1.5.25,3.31.1,3.86-1.16s-1.24-2.12-2.16-2.95c-2.77-2.47-5.61-4.86-8.22-7.52s-3.65-6.09-4.71-9.55c-.65-2.1,1-2.76,2-3.78,1.53-1.48,2,.39,2.76,1,3.52,2.94,7.11,2,10.73.27,2.79-1.67,3-1.52,3.22,1.53C220.38,247.27,219.74,249.66,220.62,252Z"/><path class="cls-30" d="M78.61,184.23c1.56-.61,3-2.27,4.85-.58s.77,3.3.25,5a17.55,17.55,0,0,1-4.65,7.14c-4.19,4.06-8.54,8-13.1,11.63-1.87,1.5-2.6,2.72-2,5.07a12.74,12.74,0,0,1-1,9.35c-3.68-3.23-4.08-8.14-6.18-12.18a1.59,1.59,0,0,1,.74-2.15c8.17-5.77,13.48-14.11,19.6-21.72A19.41,19.41,0,0,1,78.61,184.23Z"/><path class="cls-31" d="M133.41,201.08c4.36,4.27,10.06,6.35,15.3,9.15,1.66.88,2.57,1.58,2.24,3.71-.41,2.6-2.25,1.75-3.56,1.78a121.93,121.93,0,0,1-23.2-1.91c-2.06-2.1,0-4.45-.39-6.68-.44-2.5.35-4.4,3.14-5a2,2,0,0,0,1.12-.82C130.41,198.31,130.41,198.31,133.41,201.08Z"/><path class="cls-32" d="M153.47,229.5c-10,1.43-19.44-.14-28.73-2.4-4-1-1.64-4.33-1.7-6.64s1.69-1.87,3.28-1.65c6.28.87,12.54,1.85,18.94,1.08,2.64-.32,5.18.25,5.83,3.77C151.45,225.59,152.57,227.38,153.47,229.5Z"/><path class="cls-33" d="M220.7,214.82c2.26,1.56,5.39,2.66,6.52,4.81,1.28,2.43-1.93,4.72-2.75,7.26-1.2,3.75-2.79,7.38-3.21,11.35.06,4.8-3.8,3.72-6.52,4.34-4.87-.22-7.22-4.4-4.7-8.54q3.45-5.62,7.17-11.09A23,23,0,0,0,220.7,214.82Z"/><path class="cls-34" d="M256.57,174.33l-1.4,0c-6.66,3.84-13.12,3.29-19.42-.87-2.86-2.21-5.57-4.57-7.19-7.89-.73-1.48-1.54-2-3.05-.93-3.71,2.52-7.65,4.41-12.27,4.67-2,.11-1.76,2-2,3.35-4.46,22.23,11.61,44.34,34.15,47q20.65,2.4,35.2-12.52c1.64-1.69,2.3-3.23,1.56-5.73a35.62,35.62,0,0,1-1-8.54c-.17-4.16.08-8.38-2.58-12,4.82,3,3.05,8.09,3.81,12.29.57,3.13-.09,6.43,1.28,9.53.79,1.76-.19,3.3-1.39,4.54-10.4,10.76-22.83,15.6-37.9,13.32-14.71-2.21-25-10.24-31.36-23.36-4-8.24-4-17.06-2.64-26a3.48,3.48,0,0,1,3.55-3.33c3.89-.19,7.12-1.9,10.23-4,2.45-1.62,4.22-1.64,5.7,1.4a18.06,18.06,0,0,0,24.52,7.83c1.91-1,2.86-.22,3.92,1q5.91,7,14.13,3a.56.56,0,0,1,.25.58c-.05.2-.11.31-.18.31-4.15,2.69-8.27,1.66-12.37-.15A18.65,18.65,0,0,1,256.57,174.33Z"/><path class="cls-35" d="M162.33,210.92c4.37,1.73,5.82,5.79,7.41,9.6s-.9,7.51-6.05,10c-2.42,1.17-4.87,0-6.92-3.42-.67-1.12-1.22-2.33-1.78-3.52-3.11-6.66-3.1-6.66,3.89-9.57.66-.28,1.3-.59,2-.89C161.73,212.65,160.36,210.65,162.33,210.92Z"/><path class="cls-36" d="M174.27,221.65c5,7.78,9.58,15.68,11.47,24.8.17.83.53,1.82-.19,2.37-1,.76-1.74-.23-2.46-.81-5.46-4.38-8.58-10.45-11.86-16.41a2,2,0,0,1,.18-2.65C173.57,227,173.91,224.44,174.27,221.65Z"/><path class="cls-37" d="M209,226.73l.78-5.65c1.39-3.61,1.75-7.22,0-10.83-1.42-2.81-3-5.53-3.7-8.66a3.42,3.42,0,0,1-.17-2.07c.42-.89.13-2.25,1.62-2.41,3.06,3.67,5.15,8,8,11.85,3.76,3.22,2.94,6.59.62,10.3-2,3.13-3.78,6.31-6.46,8.9C208.32,228.17,208.76,227.41,209,226.73Z"/><path class="cls-4" d="M107.63,78.7a10.24,10.24,0,0,1-10.32,3c-2.25-.54-4.64-1.15-7-.28,0-1.42,3.78-1.36,1.4-3.67l.17-.19c2.59-1.56,5.33.18,8.05-.34a16.92,16.92,0,0,0,6.62-2.33c3.93-2.66,8.2-4.4,13.1-3.83,1.82.22,3.65.47,3.8,2.9,1.32,1.84,3.41.25,5.13,1.25-2.39,1.77-4.52,1.17-6.78-.17C117.23,72.34,110.63,74.08,107.63,78.7Z"/><path class="cls-38" d="M182.43,200.87c-2.63,1.14-5.23,2.35-7.91,3.37-.87.34-2,1.51-2.84.22-.69-1.1-1-2.81.13-3.68,2.55-1.94,3.7-6.32,8.29-5,.44.13,1.08-.42,1.63-.65C184,196.83,184.16,198.29,182.43,200.87Z"/><path class="cls-39" d="M152.86,207.55c-6.25-2.64-6.45-3-5.63-9.15.12-.92,0-2.09,1.15-2.35s1.83.67,2.15,1.53C151.74,200.76,153.11,203.94,152.86,207.55Z"/><path class="cls-34" d="M272.52,173.53c0-.21,0-.42-.07-.63.7-.71.8-1.71,1.26-2.53.77-1.26.4-3,1.6-4.05,1.55-1.52,2.45-4.18,5.29-3.53,2.66.6,3.44,2.94,4.29,5.24,2,5.4,2.63,10.84,1,16.43-.24.85-.41,2.08-1.54,2.14-.6,0-.38-1-.49-1.55l.09-.43a9.44,9.44,0,0,0,.66-3.48,7.22,7.22,0,0,1,.24-1.39,5.56,5.56,0,0,0-.24-4.18,27.4,27.4,0,0,1-1.56-6,6.39,6.39,0,0,0-.49-2.4c-.65-1.16-1.26-2.54-2.86-2.26s-2.18,1.72-2.64,3.11c-.6,1.78-.2,3.54.1,5.31a1.61,1.61,0,0,1-.46.87C275.39,173.67,274,173.09,272.52,173.53Z"/><path class="cls-14" d="M289.68,192.21c1.21-1,2.86-1.38,3.73-2.82.77.66.38,1.25-.15,1.8a24,24,0,0,0-5.66,8.13c-.22.57-.58,1.19-1.25,1.07s-.83-.76-.94-1.39c-.7-4.29-2.25-8.63,2-12.21,1.35-1.13,1.55-3.16,1.54-5l0-9.69.51-.21a.81.81,0,0,1,.58.82c0,.94,0,1.88,0,2.81.75,2.3-.07,4.59,0,6.88a14.39,14.39,0,0,1-.39,3.92,4.77,4.77,0,0,1-.93,1.92c-2.29,2-3.11,4.31-1.7,7.22C288.29,194.62,288.11,192.7,289.68,192.21Z"/><path class="cls-40" d="M124,231.19c-1.86.15-1.81,1.64-1.94,2.9q-2.28,21.85-4.53,43.7l-1.32.09c1.77-7.09,1.86-14.39,2.74-21.59.94-7.81,1.55-15.66,2.38-23.48C121.52,231.31,121.6,229.17,124,231.19Z"/><path class="cls-5" d="M199.63,169.17c1.16-2.87,3.41-5.24,3.84-8.43.12-5.39,0-10.81,2.08-16,.09-.21-.51.26-.77,0a1.58,1.58,0,0,0-.81-1.52,4.49,4.49,0,0,1,1.45-3c3.38,1.94,2.46,4.51,1.2,7.27-1.78,3.88-.91,8.21-1.85,12.25C203.92,163.39,202.75,166.81,199.63,169.17Z"/><path class="cls-41" d="M84.53,242.62c2.27.36,2.43-1.36,2.82-2.86q4.26-16.35,8.53-32.69c.18-.69.14-1.46.88-1.87,0,4.35-1.58,8.38-2.62,12.51-2,8-4.17,15.88-6.34,23.8C87.32,243.27,86.7,245.44,84.53,242.62Z"/><path class="cls-42" d="M205.53,164c1.95,5.16-1,8.83-.34,13-4.45-2.5-4.63-3-2.77-6.7C203.33,168.58,204.19,166.76,205.53,164Z"/><path class="cls-43" d="M133.41,201.08c-.86-.62-1.72-1.24-2.59-1.83-.48-.32-1.24-.79-1.4.05-.45,2.36-2.07,3.27-4.09,3.94a1.83,1.83,0,0,0-.84,1.43c-.16,3-1,6.07-.3,9.14-1.29,0-1.64-.9-1.49-1.95a45.32,45.32,0,0,0,.75-8.14c0-.82.61-1.09,1.33-1.41,4.17-1.84,4.87-4.67,2.15-8.32-1.26-1.68-1.26-1.68-1.58-4.06Z"/><path class="cls-44" d="M104.65,202.31a123.1,123.1,0,0,1-9.31,32.44c2-7,4-13.93,6.09-20.86C102.6,210.06,102.61,205.9,104.65,202.31Z"/><path class="cls-45" d="M206.27,199.44l-.18,2.15c-1.37-3-.34-6.24-.62-9.35h0c.84-.43,1.76-.57,2,.53,1.45,6,5.55,10.69,8,16.2-3.56-3.26-5.27-7.77-7.89-11.67a2.55,2.55,0,0,1-.55-.79,6,6,0,0,1-.13-1.4c-.08.44,0,.88-.06,1.32C206.51,197.4,206.71,198.48,206.27,199.44Z"/><path class="cls-46" d="M178,249.22c-2.46.44-1.18,2.32-1.09,3.42.61,7.94,1.4,15.87,2.13,23.81-.28.75-.54,1.54-1.59,1.47,1.47-4.78-.29-9.47-.45-14.2-.19-5.35-.9-10.68-1.39-16.07A2.09,2.09,0,0,1,178,249.22Z"/><path class="cls-47" d="M212.76,267.05l-.21,1.38c-1.39,0-2.94,1.44-4.09-.5-.75-2.07-1.5-4.15-2.53-7C209.23,262.75,210.94,265,212.76,267.05Z"/><path class="cls-48" d="M295.34,210.35c-1.58-1.27-3.1-2.61-4.73-3.8s-1.2-2.19-.19-3.3c1.37-1.5,1.83.18,2.32.88,1.24,1.74,2.3,3.6,3.44,5.41C296.38,210.31,296,210.51,295.34,210.35Z"/><path class="cls-5" d="M212.72,141.87c-5.78,6.43-3.81,13.64-2.09,20.82-.21-.1-.49-.14-.63-.31-2.86-3.35-2.3-16.73.81-19.73A2.52,2.52,0,0,1,212.72,141.87Z"/><path class="cls-23" d="M204.78,144.77c.95-.49.8-2,3-2.54-3.9,6.06-3.63,12.38-4.34,18.51-1.23-3.35-.17-6.68.13-10,.07-.74.26-1.37-.47-1.84Z"/><path class="cls-34" d="M283.9,185.05c-2.1-2.66-2.76-5.86-3.33-9.09-.14-.82.46-1.28,1-1.76a1.18,1.18,0,0,1,.83.37,7.3,7.3,0,0,1,1.5,2.45c.44,1.77,0,3.63.53,5.4a4.24,4.24,0,0,1,.15,1,3.91,3.91,0,0,1-.46,1.45Z"/><path class="cls-45" d="M204.64,203.88c-1.91-3.92-1.54-8-.19-11.86a16,16,0,0,0,.89-6.22c2.55,2.09,1,4.27.14,6.43h0C203.2,196,204.74,200,204.64,203.88Z"/><path class="cls-49" d="M214.74,242.58c2.16-1.47,5.83-.67,6.52-4.34a93.75,93.75,0,0,0-.64,13.71c-1.59-2.82-.44-5.94-.92-9l-2.68.45C216.49,242.48,215.5,242.86,214.74,242.58Z"/><path class="cls-50" d="M273.9,164.24c.91-5,4.35-6.91,9.37-5.17a.68.68,0,0,1-.09,1,2.08,2.08,0,0,1-2.11-.23c-3.14-.08-5.52,1-6.52,4.22C274.42,164.4,274.21,164.48,273.9,164.24Z"/><path class="cls-14" d="M273.9,164.24l.65-.2c.1.81-.11,1.73.76,2.28-.13,1.58.55,3.46-1.53,4.36-.26.19-.44.11-.53-.19C273.46,168.41,273.68,166.32,273.9,164.24Z"/><path class="cls-51" d="M299.69,224.7c-1.9-2.32-1.38-5.1-1.47-7.76,0-1-1-2.3,1-2.46l.74,1.42C297.6,218.77,300.28,221.78,299.69,224.7Z"/><path class="cls-45" d="M209.79,210.25c2.5,3.6,2.24,7.22,0,10.83C210.3,217.47,210.93,213.86,209.79,210.25Z"/><path class="cls-34" d="M281.07,172.81c-.48.82-1.3.68-2.06.73a2.63,2.63,0,0,1-1-2.18c.17-1.69.47-3.27,2.73-3.19C282.13,169.64,281.75,171.21,281.07,172.81Z"/><path class="cls-52" d="M182.43,200.87a4.55,4.55,0,0,0-.7-5.72c.17-.15.35-.46.5-.44,3,.36.41,4.09,2.88,4.8A3,3,0,0,1,182.43,200.87Z"/><path class="cls-53" d="M272.51,178c0-.3,0-.59-.07-.89l3-.94.42.23c.7.61,1.77.87,1.82,2.06-.32.69-1.17.37-1.62.84C274.54,179.72,273.78,178.19,272.51,178Z"/><path class="cls-54" d="M281.07,172.81a6.34,6.34,0,0,1,0-4.38,1.28,1.28,0,0,1,1.7.12,7.41,7.41,0,0,1,.12,5.42.78.78,0,0,1-1.07.29l-.28-.06A1,1,0,0,0,281.07,172.81Z"/><path class="cls-35" d="M154.26,211.54c1.46-2.67,3.89-.91,5.84-1.28.31,1.83-1.83.43-2,1.57l0,0C156.84,211.24,155.34,214.33,154.26,211.54Z"/><path class="cls-34" d="M276,179.31c.32-.66,1-.7,1.56-.85.13-1.65-1.67-1.13-2.23-2l0-.27a2,2,0,0,1,3.09.37c.92,1.23.17,2.46-.39,3.63Z"/><path class="cls-55" d="M117.66,157.05c.93-1.25,2.36-1.11,4.43-2-1.35,2.23-1.67,4-3.86,4l1.11-1.76Z"/><path class="cls-22" d="M186.18,160.65c-3,1.13-5.37.19-7.25-2.29C181.4,159,183.49,160.75,186.18,160.65Z"/><path class="cls-45" d="M207.56,211.15a15.5,15.5,0,0,1-2.95-7.34C206,206.08,207.57,208.3,207.56,211.15Z"/><path class="cls-14" d="M286.82,165l.75.54c.86,2.09,2.52,4,1.44,6.53l-.05,0A14.76,14.76,0,0,1,286.82,165Z"/><path class="cls-56" d="M295.34,210.35l.84-.81a7.2,7.2,0,0,1,2.29,3.52,1.32,1.32,0,0,1-1,1c-.64-.87-1.27-1.75-1.9-2.62C295.49,211.09,295.41,210.72,295.34,210.35Z"/><path class="cls-57" d="M188.17,195.14c1,.51.5,2.45,2.22,2.19-1,1.18-2.27,1.44-4.47,1.58C187.42,197.6,188.58,196.7,188.17,195.14Z"/><path class="cls-58" d="M213.48,116a1.84,1.84,0,0,0,.64-.17,2.33,2.33,0,0,1,1.46,2.28c-.57.38-.17,1.28-.87,1.59l-.54-.31A3.86,3.86,0,0,1,213.48,116Z"/><path class="cls-59" d="M80.29,260.15c.38-1.14,1.21-2.66,2.23-1.9,1.23.91,0,2.2-.93,3.09A5.26,5.26,0,0,1,80.29,260.15Z"/><path class="cls-60" d="M285.43,161.25c1.58.74,1.42,2.19,1.45,3.56-1.39-.45-1.58-1.82-2.19-2.86C284.47,161.22,284.79,161.07,285.43,161.25Z"/><path class="cls-61" d="M158.05,211.83c.24-1.1,1.59-.77,2-1.57.87-.2,1.69-.23,2.23.66-1,.37-.35,1.91-1.49,2.2C161,210.29,159,212.13,158.05,211.83Z"/><path class="cls-61" d="M154.26,211.54c1.17,1.57,2.6-.54,3.82.27-1,.47-1.89,1-2.86,1.39-.49.22-1.11.88-1.55.19S153.65,212,154.26,211.54Z"/><path class="cls-22" d="M181,157.76c.92-.45,2.3.75,2.91-.81.74-.06,1.53.09,1.6.89s-.8.66-1.3.65C183.08,158.47,181.85,158.87,181,157.76Z"/><path class="cls-62" d="M285.43,161.25l-.74.7-.8-.67c-.31-.38-1-.56-.72-1.26,0-.32.07-.63.1-1A2.17,2.17,0,0,1,285.43,161.25Z"/><path class="cls-63" d="M80.29,260.15c1-.19,1.23.41,1.3,1.19-.75.53-.25,1.91-1.46,2.11,0-.8.19-1.64-.69-2.15Z"/><path class="cls-5" d="M210.57,116.66c.21,0,.42-.08.62-.12-.64,1.72,1.59,3.4.06,5.14l-.14-.1C209.29,120.12,209.81,118.41,210.57,116.66Z"/><path class="cls-64" d="M165.05,207.28c-.56,1.09-1.6.73-2.48.77-.47,0-1.38.22-1-.72.12-.36.95-.47,1.46-.7C163.58,207.16,164.53,206.54,165.05,207.28Z"/><path class="cls-65" d="M297.47,214.08l1-1c.24.47.48.95.73,1.42-1.07.53-.7,1.62-1,2.46Z"/><path class="cls-66" d="M278.89,171.31l.12,2.23c-.58.79-1.42.75-2.27.7,0-.24,0-.49,0-.74C277.49,172.79,277.28,171.17,278.89,171.31Z"/><path class="cls-14" d="M283.17,160l.72,1.26a3.89,3.89,0,0,1-2.82-1.46Z"/><path class="cls-67" d="M209,226.73l.62,1.43c0,.7-.71,1.28-1,1A1.81,1.81,0,0,1,209,226.73Z"/><path class="cls-68" d="M165.05,207.28c-.76,0-1.58.21-2.06-.65C163.83,206.37,164.94,205.22,165.05,207.28Z"/><path class="cls-69" d="M199,319c-2.43-1.21-5.44-1.3-7.14-4-.42-.67-2-.93-3-.88-4,.2-7.76-1.07-11.65-1.5-4.64-1.21-8.93-3.05-12.17-6.77-1.43-1.64-1.86-3.29.09-4.88,3.14-.6,1.15-3.37,2.06-4.91a1,1,0,0,1,.93-.14c.93,1.09.57,2.52,1,3.74a9,9,0,0,1,.24.89,3.12,3.12,0,0,0,1.85,2.85c5.57,2.55,11.18,5,17.2,6.26a18.56,18.56,0,0,0,2.88.34c1,.32,1.28,1.43,2.14,1.91,3.47,1.16,6.65,3,10.09,4.23,1,.35,2,.76,2.19,2.05-3.69,0-6.79-2.17-10.43-2.89a3.53,3.53,0,0,0-.37-.34l.25.22c.35.33-.1.58.23.24,0,0-.07-.09-.11-.12C196.14,317,198.42,317.14,199,319Z"/><path class="cls-8" d="M228.74,311.64c-5.56-.28-10.59-2.66-15.83-4.15-5-1.43-9.86-3.67-15.22-3.64-2.09,0-3.27-1.89-5.17-2.19a4,4,0,0,1-.93.64A24.93,24.93,0,0,1,179.12,300a105.17,105.17,0,0,1-9.83-5.11c-1.26-.77-3.1-1.18-2.1-3.35,2-3.2,5.4-3.83,8.63-4.79a1,1,0,0,1,.41.88c-1,1.39-1,2.3.78,3.32,4.21,2.45,8.76,4.31,12.79,7.08a3.74,3.74,0,0,0,2.73.59c.7-.11,1.69-.47,2,.15,2.3,4,6.65,3,10.08,4.14,2,.68,4.08,1.27,6.14,1.86,5.77,2.27,12.14,2.74,17.59,5.91A1.09,1.09,0,0,1,228.74,311.64Z"/><path class="cls-70" d="M183.16,283l7.24-3.53a1.07,1.07,0,0,1,.87,1.16c-1.63,2.87-4.35,3.49-7.34,3.56C183.39,284,183,283.66,183.16,283Z"/><path class="cls-71" d="M167.19,291.5c-.78,2.13,2,1.19,2.16,2.48a3,3,0,0,1-1.2,1.84c-1.07.77-.74,1.89-.69,2.9.09,1.7-.69,2.36-2.31,2.19,1.71-.88,1.74-2.34,1.37-4C166.09,295.06,165.85,293.18,167.19,291.5Z"/><path class="cls-72" d="M207.55,271.31l.1,1.18c-1,2.68-3.3,2.75-5.58,2.94a1.66,1.66,0,0,1-1.08-1.27A15.26,15.26,0,0,1,207.55,271.31Z"/><path class="cls-73" d="M191.76,278.66a7.94,7.94,0,0,1,5-2.25c.72-.35,1,.1,1.15.68-.63,2.19-2.39,2.6-4.32,2.74A2.5,2.5,0,0,1,191.76,278.66Z"/><path class="cls-74" d="M183.16,283l.84.74c-.65,2.15-2.47,2.64-4.34,3.06-.67-.35-1.17-.79-.78-1.65Z"/><path class="cls-75" d="M197.55,277.1c0-.52-.36-.7-.83-.69a11.19,11.19,0,0,1,4.27-2.25l.86.78C201,276.78,199.62,277.65,197.55,277.1Z"/><path class="cls-76" d="M178.88,285.13l.69,1c-.69,1.8-1.94,2-3.54,1.27l-.21-.73C176.49,285.52,177.72,285.39,178.88,285.13Z"/><path class="cls-77" d="M191.76,278.66c.56.08,1.19,0,1.47.67-.43,1-1,1.44-2.09.79-.24-.23-.49-.45-.74-.67Z"/><path class="cls-78" d="M36.93,85.64c3.26-2.31,7.06-3.47,10.72-4.85C57,77.27,65.49,72.1,74.38,67.7c5.86-2.9,9.72-2.66,12.88.62.42.44,1,.76.67,1.46a.9.9,0,0,1-1.19.47c-9.14-2.54-16,2.62-22.79,7.18A287.82,287.82,0,0,1,32,95.79c-4.8,2.4-10.07,2.86-15.14,4.14a1,1,0,0,1,0-1,6.59,6.59,0,0,1,3.26-2.13c7.31-2.74,13.65-7.46,21-10.24a1.28,1.28,0,0,0,.78-.85C40.19,85,38.47,87.31,36.93,85.64Z"/><path class="cls-79" d="M36.93,85.64c1.42.28,2.52-.53,3.73-1,1-.4,2.31-.87,2.89.29s-.71,1.89-1.65,2.24c-7.4,2.76-13.78,7.58-21.18,10.33-1.34.5-2.59,1.22-3.89,1.83-.79.87-2.08.9-2.87,1.76a7.88,7.88,0,0,0-5,4.12c-2.11,1.52-2.3-.65-3-1.63-1.08-1.44.08-2.09,1.11-2.76C16.46,94.66,26.11,89,36.93,85.64Z"/><path class="cls-80" d="M45,95c-5.32,5.31-9.75,11.47-15.7,16.21-1.46,1.17-5,2.39-1.94,5.57.27.28-.24,1.33-.39,2-2.92,1.76-4.55-1-6.65-2-.94-.43-.37-1.21.29-1.64,8.62-5.57,14.25-14.49,22.67-20.27A1.44,1.44,0,0,1,45,95Z"/><path class="cls-81" d="M9,105.2c-.37-3.67,2.21-4.13,4.89-4.47a.57.57,0,0,1,.92.11C12.92,102.4,11.52,104.56,9,105.2Z"/><path class="cls-82" d="M45,95l-1.72-.1c.58-.75,1.15-1.5,2.23-1.48C46.61,94.39,45.56,94.64,45,95Z"/><path class="cls-83" d="M14.78,100.84l-.92-.11a5.2,5.2,0,0,1,3-1.41v.61Z"/><path class="cls-2" d="M228.43,311.1l-18-5.7c-3.75-2.1-7.95-2.66-12.07-3.51-3.19-.66-3.28-1.1-1.09-3.73q.65-.78,1.23-1.62a3.93,3.93,0,0,1,1.07-1,10.56,10.56,0,0,0,2.85-1.7c2.72-1.57,5.22-3.49,8-4.92a58.61,58.61,0,0,0,7.67-3.56l1.81-.93c3.44-1.59,7-2.9,10.31-4.8a11.58,11.58,0,0,1,4.06-1c3.45-.4,6.76-2.87,10.53-.67l-3.3,3.59c-1.27,1.39-.9,3.22-1.29,4.85-.7.59-1.28.18-1.86-.21-1.85-2.65-3.64-1.1-5.43.07a22.33,22.33,0,0,1-3.59,1.46c-.74.25-1.49.46-2.23.72s-1.44.45-2.14.71a9.88,9.88,0,0,0-2.76,1.32c-.5.32-1.06.54-1.51.89-.18.73.51.82.85,1.16a17.21,17.21,0,0,1,1.78,1.41,3.29,3.29,0,0,0,3,.81,3.53,3.53,0,0,1,1,.11c2.06.95,4.19,1.73,6.27,2.63,2,.42,3.51,4.07,6.08,1a5.32,5.32,0,0,1,2.12-1.29,13.41,13.41,0,0,1,2.86-.69,3.63,3.63,0,0,0,3-1.66c.18-.4.38-.78.58-1.17a2.12,2.12,0,0,0,0-1.64,1.94,1.94,0,0,1,.14-.92c1.83-1.53,3.43.11,5.14.34a6.43,6.43,0,0,1,.92.35,5.65,5.65,0,0,0,.95.48c.3.07.49.74.91.2-.29-.21-.59-.41-.88-.64-.51-.81-2.15-1.5-.3-2.57,2.42-.3,4.36,1.72,6.76,1.49.5-1.5-1.43-1.11-1.43-2.49,3.84-1.06,7.67-2.62,11.92-1.7,2.09,1.46,5.64,1.25,5.72,5q-18.5,8.15-37,16.27c-1.52.67-3.11,1.19-4.67,1.77C233.68,309.57,231.19,311,228.43,311.1Z"/><path class="cls-84" d="M282.56,293.19c1.17,3.07-1.17,8.5-4.29,9.91-1.49.68-3,1.31-4.51,2h0c-1,1-2.42,1-3.61,1.56l.06,0a14,14,0,0,1-3.68,1.45l.07,0c-1.81,1.16-3.94,1.45-5.89,2.24-10.65,3.53-20.21,9.72-31.44,13.3.22-3.35,1.56-5.84,1.54-8.55,0-.84,1-.88,1.66-1.06,13.29-3.51,25.59-9.5,38-15.14C274.55,297,278.55,295.06,282.56,293.19Z"/><path class="cls-85" d="M205.71,318.13l-13.11-5.66c-.82-2-1.17-4,.64-5.75.5-1.75,1.54-1.24,2.77-.79,9.56,3.45,19.1,7,29.29,8.14,1.76.2,2.12.87,1.67,2.6-1.71,6.49-1.89,6.68-8.49,4.95C214.21,320.51,210,319.3,205.71,318.13Z"/><path class="cls-86" d="M193.24,306.72c0,1.94-1,3.77-.64,5.75l-1.73-2.26c-1.21-1.87.17-3.76-.06-5.64a4.47,4.47,0,0,1,.77-2.77l.94-.14C192.91,303.33,191.89,305.19,193.24,306.72Z"/><path class="cls-87" d="M228.43,311.1c2.54-1.24,5-2.82,8-1.49-2.39,1.38-5.05,1.72-7.72,2A3.6,3.6,0,0,1,228.43,311.1Z"/><path class="cls-8" d="M260.73,310.25a14.74,14.74,0,0,1,5.89-2.24C265.08,309.86,262.94,310.17,260.73,310.25Z"/><path class="cls-8" d="M270.17,306.63a7.47,7.47,0,0,1,3.61-1.56C273,306.6,271.65,306.76,270.17,306.63Z"/><path class="cls-8" d="M266.55,308.05a6.44,6.44,0,0,1,3.68-1.45A3.41,3.41,0,0,1,266.55,308.05Z"/><path class="cls-2" d="M272.34,250.05c.19,4.91-.93,9.8-.29,14.71.19,1.42-.81,1.51-1.74,1.74-7.37,1.81-14.47,4.24-20.84,8.53-2.65,1.78-2-.78-2.09-1.89-.66-11.83-.9-23.71-2.95-35.43-.46-2.59-1-5.16-1.59-7.74-.26-1.19-.59-2.51-2.22-1.11-.49.58-1,.47-1.6.11a2.94,2.94,0,0,1-.68-3.38,1.73,1.73,0,0,1,1.89-.64c6.91,1.78,13.84,1.2,20.77.26,1-.51,2-1.16,3.06,0a9.8,9.8,0,0,1,.81,3.7c0-1.44-.68-2.91-.17-4.37,2.94-2.14,6.64-2.67,9.69-4.59a1.92,1.92,0,0,1,1.83,1,9.31,9.31,0,0,1-3,6.6c-.22,1.6-1.21,3-.92,4.74a61.19,61.19,0,0,0-1,13.37A8.73,8.73,0,0,0,272.34,250.05Z"/><path class="cls-88" d="M293.85,218.61c.17,2.62-.12,5.3,1.35,7.69.85,1.38,1.86,2.89,3.58,2.48s.61-2.27,1-3.44c1,.74,1.06,1.93,1.54,2.93-1.86,3.7-1.86,7.86-2.88,11.77-.09.35-.06.72-.14,1.07-2.12,8.52-4.12,10.6-13.06,7.8-3.42-1.07-6.88-1.87-10.33-2.74-1.31-4.36-.63-8.83-.4-13.22.1-1.83.6-3.68.36-5.57-.36-2.8,1.73-4.53,2.87-6.68C281.35,216.82,289,215.84,293.85,218.61Z"/><path class="cls-89" d="M289.59,270.45c-1.12,2.79-3.26,3.85-6.14,4.61A112.29,112.29,0,0,0,269.23,280c-5.09,2.1-9.79.8-15.38-1,4.51-2.48,8.41-4.72,12.4-6.78,8.55-4.44,8.57-4.4,8.91-14.05.25-7,.25-7,6.56-4.37,2.9,1.2,5.87,2.16,9.06,1.81,2.84-.31,2.93.93,2.14,3.12a31,31,0,0,0-1.95,8.36A6.9,6.9,0,0,0,289.59,270.45Z"/><path class="cls-90" d="M278.33,220.72c.78.73,1,1.34-.24,1.83-1.79.73-2.33,2.54-2.49,4-.7,6.5-1.78,13-.74,19.58-1.49-.67-1-2-1-3.11.16-4.13-.52-8.28.58-12.38.29-1.07.77-2.73-1.21-3.16a18.43,18.43,0,0,1,2.86-6.45A1.73,1.73,0,0,1,278.33,220.72Z"/><path class="cls-90" d="M272.34,250.05a2.79,2.79,0,0,1-1.21-2.76c.16-5-.61-10.13,1.2-15,.26,4.26-1,8.45-.59,12.73.14,1.4-.1,2.86.74,4.13C272.44,249.43,272.39,249.74,272.34,250.05Z"/><path class="cls-91" d="M254.5,292.29l-.31,0h-.31a25.72,25.72,0,0,0-2.48-1.2c-1-1-2.21-.86-3.41-1a2.35,2.35,0,0,1-.83-.47,1.17,1.17,0,0,1-.09-.93.74.74,0,0,1,.88-.11c2.38.54,4.92-.58,7.22.71-1.33,1.34,1,1.38.82,2.28C255.7,292.22,255.29,292.63,254.5,292.29Z"/><path class="cls-92" d="M247.12,288.82a1.53,1.53,0,0,1,.17.55,2.87,2.87,0,0,1-2.15,1.12c-1.24,0-2.14-.79-3.13-1.37-.9-.73-1.87-1.41-2-2.7.35-1.67-.37-3.7,1.6-4.83-.26,2.1-1.46,4.43,1.34,5.83l1.28.66C245.06,288.74,246.32,287.88,247.12,288.82Z"/><path class="cls-93" d="M249.26,282.05c1.12-1.24,2.43-.42,3.68-.36l.75.59c.46.81-.33,1-.69,1.4l-3.63.05A1.41,1.41,0,0,1,249.26,282.05Z"/><path class="cls-94" d="M253,283.68l.69-1.4a2.28,2.28,0,0,1,2.26,1.06A4.23,4.23,0,0,1,253,283.68Z"/><path class="cls-94" d="M249.26,282.05c0,.56.08,1.12.11,1.68-1.14.26-2,.19-1.36-1.33Z"/><path class="cls-95" d="M247.12,288.82c-1-.14-2.07,0-2.93-.74,1.28-.05,2.6-.43,3.76.48Z"/><path class="cls-16" d="M290.44,141.19c-1.19,1.13-2.67.56-4,.63a3.59,3.59,0,0,0-3.22,2.29c-1.71,1.78-.53,4.51-2.08,6.34a8,8,0,0,1,.66-8.56l4.37-.87A6,6,0,0,1,290.44,141.19Z"/><path class="cls-96" d="M253.77,134c-.6.82-1.08,1.79-2.42,1.82a4.9,4.9,0,0,1,1.62-3.35A1.64,1.64,0,0,0,253.77,134Z"/><path class="cls-97" d="M290.44,141.19l-4.29-.17c1.28-1.12,2.83-.43,4.25-.64a.5.5,0,0,1,.87.07Z"/><path class="cls-21" d="M258.76,112.31c1.14-1.39,2.7-1.5,4.32-1.43A6.83,6.83,0,0,1,258.76,112.31Z"/><path class="cls-98" d="M291.27,140.45l-.87-.07,3-2.16A2.26,2.26,0,0,1,291.27,140.45Z"/><path class="cls-99" d="M123.45,74c-2.42-3.32-5.85-2.17-8.91-1.72A11.91,11.91,0,0,0,109,74.61c-5.21,4.24-11,4.3-17.09,3-.9-1.8-2.4-3.5-1-5.69,2.47,3.8,2.22,3.6,5,0,3-3.88,4.62-9,9.69-11.14.76-.47,1.92-.58,1.78-1.89,3.9-1.47,7.77-3,11.7-4.38,2.75-1,4-2.24,1-5.08,9.91.69,18.54-2.23,27.25-4.69,1.88-1.66,4.07-1,6.13-.69,5.42.9,10.09,3.46,14.47,6.69,3.37,2.49,6.27,5.51,9.39,8.26,1.66,1.46,3.39,3.28,1.54,5.84-.19.14-.46.24-.56.43-4.47,8.53-7.25,9.48-17,7.57-6.62-1.3-13.07-3.54-19.94-3.66-3.22-.05-6.17,1.94-9.49.92-.68-.22-1.61.54-2,1.32C128.47,74.18,126.11,74.44,123.45,74Z"/><path class="cls-4" d="M178.84,64.81c.06-1.17.5-2.46-.49-3.41-7-6.65-13.58-13.84-23.57-16.15a39.14,39.14,0,0,0-7.47-.54c-5.6-.26-10.68,2.25-16.1,3.06a33.18,33.18,0,0,1-7.84.15c6.72-1.08,13.08-3.39,19.55-5.3,10.41-3.06,19.21.85,27.43,6.88a85.89,85.89,0,0,1,8.74,8,6.21,6.21,0,0,1,1.79,6.28c-2.55,9.45-6.91,13.41-18,11.4-7.24-1.32-14.38-3.22-21.81-3.16-.95,0-2.25-.23-2.79.28-2.55,2.4-4.35.84-6.61-1.09,3.29.57,6-.55,8.88-.68,7.49-.35,14.41,2.73,21.73,3.37a44,44,0,0,0,8.95.15C175.51,73.54,177.92,70.34,178.84,64.81Z"/><path class="cls-79" d="M106.09,61.16C100.74,64,99,69.82,95.5,74.22c-.63.79-.07,2.72-1.79,2.48A3.34,3.34,0,0,1,91.15,74a16.43,16.43,0,0,1-.26-2.11c3.47-6.08,9.16-9.38,15.24-12.2A1,1,0,0,1,106.09,61.16Z"/><path class="cls-4" d="M120,47.75c-.36,1.4-1.29,2.56-.3,4.21.88,1.48-1.29,1.69-2.16,2-5.79,2.17-11.65,4.14-17.23,6.88,3.48-3,7.81-4.51,12-6.23,2.9-1.19,5.48-2.32,6.18-5.75C118.54,48.32,119,47.84,120,47.75Z"/><path class="cls-100" d="M106.09,61.16l0-1.46,1.25-.84C109.19,60.88,106.7,60.5,106.09,61.16Z"/><path class="cls-101" d="M281.12,150.45c0-1.5,0-3,0-4.49s.63-2.11,2.1-1.86a12.06,12.06,0,0,0,1.27,1.21c1.53,1.1,3.69,2.13,3.55,4.08-.15,2.12-3,.31-4.07,1.78a1.84,1.84,0,0,1-2.85-.72Z"/><path class="cls-16" d="M291.84,155.59c-2.32-2.5-5.39-1.61-8.21-1.76-1.6-.08-3.28.93-4.75-.44,3.65-1.19,7.4-.25,11.1-.47C292,152.8,291.82,154.28,291.84,155.59Z"/><path class="cls-16" d="M278.86,153.41c-.64-.1-1.29-.39-.69-1.06.91-1,.66-2.17.76-3.31C280.29,150.52,279.55,152,278.86,153.41Z"/><path class="cls-16" d="M281.1,150.45a3.64,3.64,0,0,0,2.85.72C282.68,152.21,281.58,152.55,281.1,150.45Z"/><path class="cls-16" d="M278.87,147.69c-1-1.07-.59-2.43-.72-3.68C279.44,145,278.75,146.44,278.87,147.69Z"/><path class="cls-102" d="M250.11,133.19a4.09,4.09,0,0,1,0-.7,1.69,1.69,0,0,1,1.09-1.78A2.36,2.36,0,0,1,250.11,133.19Z"/><path class="cls-103" d="M214.71,119.65c.28-.54.13-1.3.87-1.59a23.18,23.18,0,0,1,1.35,13.54c-.43,2.44-.84,4.93-3.41,6.54A58.44,58.44,0,0,0,214.71,119.65Z"/><path class="cls-104" d="M225.64,137.31a3.9,3.9,0,0,1-2.08,2.38C223.39,138.14,224.43,137.65,225.64,137.31Z"/><path class="cls-105" d="M210.57,116.66l.54,4.92c-.6.29-1.2,2.2-1.82.12a17.4,17.4,0,0,1-.33-3.56l1.4-2.22Z"/><path class="cls-106" d="M121.91,100.44a23.33,23.33,0,0,1,15.8,5.74c2.59,2.14,1.37,4.29.16,6.35s-2.88,1.57-4.58.41c-8.06-5.52-16.16-4.31-23.85.55-3.4,2.14-4.84.11-6.42-1.86-1.92-2.41.43-3.46,1.86-4.84C109.65,102.19,115.48,100.55,121.91,100.44Z"/><path class="cls-107" d="M178.16,100.45c5.74,0,11.75,2.36,16.89,7.2,1.4,1.31,2,2.62.73,3.92s-2.25,4.08-5.11,2.59c-1.69-.88-3.34-1.87-5.08-2.66-6.79-3.07-13.43-3-19.77,1.23-1.73,1.16-3.5,2.11-4.9-.17s-2.34-4.45.41-6.62A24.65,24.65,0,0,1,178.16,100.45Z"/><path class="cls-5" d="M185.13,126.83c-.17,2.5-.09,5-1.27,7.34-1.71,3.32-5.22,3.54-6.94.25a17.41,17.41,0,0,1-.38-15.2c1.42-3.4,5-3.45,7-.34C185.1,121.31,185.07,124.08,185.13,126.83Z"/><path class="cls-107" d="M122.77,125.68a14.31,14.31,0,0,1-1.37,7.64c-.83,1.57-2,2.76-3.87,2.66a3.73,3.73,0,0,1-3.42-2.75,21.75,21.75,0,0,1-.08-14c.66-1.92,2-3.32,4.23-3.24s3.11,1.85,3.84,3.7S122.67,123.67,122.77,125.68Z"/><path class="cls-108" d="M149.85,159.32a9.58,9.58,0,0,1-9.32-4.5,4.85,4.85,0,0,1-.05-5.11c1-1.86,2.44-.09,3.24-.42,4-1.71,7.83-2.07,11.9,0,.79.41,2.55-1.52,3.5.56a5.25,5.25,0,0,1-.23,5.12C157.24,157.77,154,159.31,149.85,159.32Z"/><path class="cls-109" d="M119.6,187.1c-.52,1.59-1.73,1.34-2.87.88-5.14-2.09-10-4.62-13.8-8.8a37.36,37.36,0,0,1-6.15-8.79c-.58-1.2-1-2.61.55-3.44s2.35.19,3.12,1.44c4.37,7.13,9.49,13.52,17.45,17C118.66,185.68,119.44,186,119.6,187.1Z"/><path class="cls-110" d="M126.82,173.32c.27.24.74.48.92.86,2.33,4.83,7.12,7.32,10.54,11.11a20.94,20.94,0,0,1,3.48,4.53,1.4,1.4,0,0,1-.38,1.91,1.22,1.22,0,0,1-1.88-.3c-3.47-5.14-8.84-8.39-12.83-13a7.81,7.81,0,0,1-1.59-2.76C124.72,174.48,125.36,173.62,126.82,173.32Z"/><path class="cls-111" d="M175.4,177c-.35,1.08-.82,2.55-1.32,4-2.09,6.12-5.87,11.15-10.26,15.77-.69.72-1.55,2-2.66.88s.13-1.93.83-2.66c5.1-5.35,9.13-11.32,10.91-18.61.21-.85.48-1.7,1.58-1.52C175.39,175,175.38,175.79,175.4,177Z"/><path class="cls-112" d="M163.73,178.84c-.82,2.73-1.59,5.47-2.49,8.17-.26.77-.91,1.51-1.93,1-.8-.38-.71-1.18-.53-1.87q1-4.16,2.16-8.28c.23-.82.71-1.71,1.7-1.46C163.79,176.73,163.74,177.81,163.73,178.84Z"/><path class="cls-113" d="M234.3,200.87c0-.84.64-1.16,1.25-1.51,1.17-.68,2.63.22,3.77-.66q5.19-1.29,10.39-2.6c1.63-.41,2.61.26,2.79,1.87.33,2.85,1,5.68.65,8.57-.42,3.72-2.88,5.53-6.54,4.68a11.9,11.9,0,0,1-8.8-8.05C237.73,200.73,235.55,201.51,234.3,200.87Z"/><path class="cls-114" d="M256.54,177.22a17.28,17.28,0,0,1,2.74,8.34c0,1.93.19,4.28-2.35,4.49a3.54,3.54,0,0,1-4-3.56c-.67-1.16.11-2.55-.58-3.71a16.53,16.53,0,0,1,.72-5.55C254.23,175.59,255.38,176.19,256.54,177.22Z"/><path class="cls-115" d="M220.32,185.06c0-1.54-.16-3.18,2.07-3.49s2.52,1.27,3.06,2.73c1,2.72,1.75,5.47.39,8.29-1,2-2.24,2.08-3.44.3C220.81,190.55,220.43,187.83,220.32,185.06Z"/><path class="cls-116" d="M256.54,177.22a3.47,3.47,0,0,0-3.47,0c-.84-1.24-1.86-.38-2.86-.3-5.19.4-10.44,1-14.46-3.49a20.86,20.86,0,0,0,19.42.87C254.06,176,256.79,175.92,256.54,177.22Z"/><path class="cls-116" d="M256.57,174.33a9.75,9.75,0,0,1,3.57,3.53A4.49,4.49,0,0,1,256.57,174.33Z"/><path class="cls-117" d="M234.3,200.87c1.54.2,4-1,3.51,2.3C237.66,200.84,234.89,202.52,234.3,200.87Z"/><path class="cls-118" d="M252.35,182.78a6.1,6.1,0,0,1,.58,3.71C251.85,185.39,252.1,184.09,252.35,182.78Z"/><path class="cls-117" d="M239.32,198.7c-1.09,1.19-2.47.71-3.77.66A5.39,5.39,0,0,1,239.32,198.7Z"/><path class="cls-119" d="M289.68,192.21c-1,1.67-.83,4.07-3.46,4.94-.47-3.43-2.34-6.93,2-9.21,1.15-.34,1,.49,1,1.15Z"/><path class="cls-120" d="M289.73,182.88c0-2.64,0-5.29,0-7.94.24-.31.47-.29.68,0,1.3,2.61,0,5.23,0,7.84C290.24,183.19,290,183.2,289.73,182.88Z"/><path class="cls-121" d="M211.66,156.07c-.8-2.76-1.63-4.8-.83-7.27A11.83,11.83,0,0,1,211.66,156.07Z"/><path class="cls-122" d="M289,172.06c.25-2.34-1.3-4.28-1.44-6.53,2.11,1.39,1.71,4,2.81,5.85-.25.27-.31.72-.75.82Z"/><path class="cls-123" d="M289.73,182.88l.72-.07c-.18,1.69.54,3.49-.63,5.05-.7-.21-.41-1-.85-1.4C289.22,185.27,289.47,184.08,289.73,182.88Z"/><path class="cls-124" d="M273.25,170.49a2,2,0,0,0,.53.19c.14,1.09.14,2.09-1.33,2.22C272.41,172,272.3,171.07,273.25,170.49Z"/><path class="cls-125" d="M289.63,172.2l.75-.82c0,1.2.05,2.39.07,3.59l-.68,0C289.73,174,289.68,173.11,289.63,172.2Z"/><path class="cls-126" d="M289,186.46c.61.27.73.84.85,1.41-.17.41-.35.82-.53,1.22l-1-1.15C288.5,187.45,288.73,187,289,186.46Z"/><path class="cls-127" d="M198.28,298.26c0,1.26-1.4,1.09-2,2.14,4.57,2.29,10.3,1.23,14.23,5-4.56-.95-8.93-2.73-13.64-3-.12,0-.31,0-.34-.07-1.95-4.55-7.19-2.52-10.34-5.25s-7.89-4-11.53-6.52c-3.31-2.25,1.2-1.9,1.4-3.09a5.91,5.91,0,0,0,3.54-1.27l4.43-2.45c2.71-.55,5.29-1.37,7.14-3.6l2.09-.79c1.59-.45,3.19-.88,4.32-2.23l4.3-2.16a12,12,0,0,0,5.8-2.45c3.66-2.09,7.1-1.07,10.71.45,4.61,1.93,9.6,2.57,14.48,3.52a1.33,1.33,0,0,1,.24,1.5c-3.16,2.55-7.12,3.42-10.69,5.12-1.16.56-2.35,1.08-3.48,1.7-.61.29-1.22.57-1.82.9-2.34,1.14-4.72,2.21-7,3.55-2.63,1.65-5.5,2.93-8,4.87-.81.74-2,1.09-2.46,2.21a1.8,1.8,0,0,1-.4.28c-.19.14-.4.26-.59.39a9.74,9.74,0,0,1-1.67.59C197.52,297.67,198.06,297.68,198.28,298.26Z"/><path class="cls-88" d="M238.55,226.13l1,3.15c1.11.59.87,1.53.63,2.47.14,6.56-.39,13.14.38,19.69.21,1.79-.46,2.7-2.37,2.63a45.78,45.78,0,0,1-5.37,0c-8.24-1.29-9.7-3.82-8.35-10.47,1.5-7.36,3-14.73,5.71-21.79a2.89,2.89,0,0,1,2.22.55c.89.88,1.77,1.78,3.21,1.38a2.67,2.67,0,0,1,2.37,1.17C238.29,225.25,238.3,225.74,238.55,226.13Z"/><path class="cls-128" d="M241.42,267.4c-.22,2,1.36,5.16-.3,6.52-1.46,1.2-4.09-1.37-6.33-1.5-4.57-.27-5.74-2.74-5.22-6.88.28-2.24-.81-5,.2-6.68,1.13-1.84,4.15-.22,6.3-.73,1.47-.34,3-.47,4.48-.69.22,1.76.48,3.52.64,5.29C241.32,264.17,241.34,265.61,241.42,267.4Z"/><path class="cls-129" d="M278.33,220.72l-2.22.35-1.51-.75c-.24-1.62,1.72-1.23,2.1-2.29,2.94-2.56,6.16-4.81,8.68-7.84.56-.68,1.21-1.17,2.12-.55,3.25,2.19,6.87,4.11,6.35,9C288.51,218.12,283.08,216.89,278.33,220.72Z"/><path class="cls-130" d="M218.3,284.33c4.54-2.82,9.62-4.42,14.47-6.54a.58.58,0,0,1,.82.28l.75.6a99.48,99.48,0,0,1-14.45,6.48C219.25,285.09,218.63,285,218.3,284.33Z"/><path class="cls-131" d="M276.7,218c-.1,1.31-1.57,1.37-2.1,2.29l-9.39,4.28c-.38.45-.59,1.21-1.44.79a1.73,1.73,0,0,0-2.14,0,2.64,2.64,0,0,1-2,.19.61.61,0,0,1-.25-.57c.05-.21.1-.32.16-.32C265.78,223.88,271.17,220.78,276.7,218Z"/><path d="M296.13,220.11c.6.88,1,1.24,1.09,1.65.26,1.56,1.46,3,.59,4.68-.2.38-1,.34-1.22-.11A6.33,6.33,0,0,1,296.13,220.11Z"/><path class="cls-132" d="M241.63,224.45a70.17,70.17,0,0,0,13.35.7c.1.18.2.36.31.54-4.56,1.52-9.1.85-13.62-.18A.71.71,0,0,1,241.63,224.45Z"/><path class="cls-133" d="M223.39,270c1.77-.19,1.42-1.53,1.5-2.69.21-3.19-.53-6.44.62-9.57,0,3.66.07,7.31.12,11C225.66,270.52,225.11,271.27,223.39,270Z"/><path class="cls-132" d="M237.59,225.19,235.87,224c-.24-.13-.35-.29-.31-.48s.08-.3.15-.3a15.27,15.27,0,0,1,5.92,1.27l-.33.41C240.09,225.28,238.81,225,237.59,225.19Z"/><path class="cls-134" d="M235.71,223.18c0,.26.1.52.16.78-1.87,1-2.9-.31-4-1.42a1.11,1.11,0,0,1,1.65,0C234.06,223.31,235,223,235.71,223.18Z"/><path class="cls-135" d="M233.5,222.51l-1.65,0-1.65-.75C231.72,220.13,232.49,221.87,233.5,222.51Z"/><path class="cls-48" d="M233.59,278.07l-.82-.28.07-1.33c.85-.19,1.91-.42,2.22.52C235.25,277.57,234.17,277.78,233.59,278.07Z"/><path class="cls-132" d="M259.5,224.71a1.45,1.45,0,0,1-.07.62c-1.35.43-2.7,1-4.11.24l-.34-.42A8.82,8.82,0,0,1,259.5,224.71Z"/><path class="cls-136" d="M240.2,231.75l-.63-2.47,1.05-.42A3.3,3.3,0,0,1,240.2,231.75Z"/><path class="cls-137" d="M206.27,199.44l-.09-3.61c.84-.46,1.06.37,1.5.73l-.08.73Z"/><path class="cls-138" d="M278.89,171.31c-.7.74-.37,2.48-2.13,2.19-1.73-1.9-1-4.09-.45-6.09.54-1.83,1.69-3.73,3.81-3.8,1.93-.07,2.58,1.8,3.13,3.41.42.83.6,1.54-.75,1.47l-1.42-.06C279,168.36,278.83,169.75,278.89,171.31Z"/><path class="cls-138" d="M281.83,174.26l.51-.09c1.07-1,.33-2.23.55-3.34.14-.72-.31-1.83,1.13-1.66.48,2.13,1,4.25,1.46,6.38a9,9,0,0,1,0,4.62l-.1,1.26c-.95.41.45,2.32-1.39,2.14a.37.37,0,0,1-.16-.49c-.84-2.13.58-4.54-.83-6.59C282.29,175.93,281.55,175.37,281.83,174.26Z"/><path class="cls-139" d="M284,169.17c-1.76,1.26.35,3.82-1.68,5a17.75,17.75,0,0,0,.16-5.68l.75-1.47A2,2,0,0,1,284,169.17Z"/><path class="cls-139" d="M285.5,180.17c0-1.54,0-3.08,0-4.62A6,6,0,0,1,285.5,180.17Z"/><path class="cls-139" d="M284,183.57l1.39-2.14c.16,1.37.31,2.74-1.3,3.44Z"/><path class="cls-140" d="M207.68,196.56l-1.5-.73a2.71,2.71,0,0,1,.28-2.4A3.61,3.61,0,0,1,207.68,196.56Z"/><path class="cls-139" d="M283,176.49c1.9,2,.72,4.37.83,6.59C282.91,181,283.71,178.63,283,176.49Z"/><path class="cls-141" d="M275.35,176.46c2.66.08,2.84.24,2.23,2C276.91,177.71,275.14,178.19,275.35,176.46Z"/><path class="cls-142" d="M191.58,301.8c.07.92.13,1.83.2,2.75a4,4,0,0,1-2.87,2.09,4.25,4.25,0,0,1-1.55,0c-1.58-.6-3.19-1.07-4.81-1.53-1.16-.64-2.52-.77-3.69-1.4-.59-.27-1.17-.59-1.77-.86-1.09-.59-2.2-1.13-3.77-2a8.62,8.62,0,0,0,2.6,1.67,18.74,18.74,0,0,0,1.75.84,24.51,24.51,0,0,0,4.11,1.47,34.42,34.42,0,0,0,4.27,1.41,8.51,8.51,0,0,1,2.64,1.75c.56.79,1,1.59.21,2.49-6.7-.87-12.6-4-18.65-6.65-1.13-1-1-2.42-1.41-3.65v0c-1-1.32,0-3-.7-4.36h0c.35-.65-.07-1.8,1.2-1.84C176.34,297.77,183.27,301.76,191.58,301.8Z"/><path class="cls-143" d="M188.9,310.46l-.69-2.34a4.1,4.1,0,0,1,.67-2.09l2.9-1.48c-.31,1.89-.61,3.77-.91,5.66C190.25,310.6,189.71,311.62,188.9,310.46Z"/><path class="cls-71" d="M168.15,295.82a7,7,0,0,1,.7,4.37C167.4,298.93,168,297.35,168.15,295.82Z"/><path class="cls-71" d="M168.84,300.16l1.41,3.65C168.5,303.09,168.53,301.68,168.84,300.16Z"/><path class="cls-5" d="M193.38,314.41c.61-.2,1-.44,1.14-.35a1.9,1.9,0,0,1,.8,1c.17.76-.49.26-.59.22A9.37,9.37,0,0,1,193.38,314.41Z"/><path class="cls-144" d="M248.65,295.14a3.86,3.86,0,0,1-3.8,2.11l-.3-.54c-.31-.22-.64-.1-1,0-.89.45-1.88.64-2.77,1.09-.52.36-1.05.71-1.55,1.11-2.26,1.43-3.84-.4-5.64-1.18-1.89-1-4-1.55-5.87-2.64-1.06-.8-2.52-.7-3.56-1.54a2.51,2.51,0,0,1-1.16-2.08,2.13,2.13,0,0,1,.33-.91c.74-.91,1.91-1,2.86-1.56a10.56,10.56,0,0,0,1.69-.74,7.22,7.22,0,0,0,2.19-.76,12.62,12.62,0,0,0,4-1.71c3-1.22,4.79,1.13,6.9,2.47,1.82,2,4.58,2.68,6.36,4.72A1.67,1.67,0,0,0,248.65,295.14Z"/><path class="cls-145" d="M201.75,293.54a21.9,21.9,0,0,1,8.22-4.79c.65-.07.89.16.59.8-2.26,2.15-5.18,3.33-7.7,5.09C202,294.8,201.6,294.42,201.75,293.54Z"/><path class="cls-86" d="M210.56,289.55l-.59-.8a17.41,17.41,0,0,1,6.95-3.77,1.93,1.93,0,0,1,1.5.85C215.89,287.26,213.58,289.15,210.56,289.55Z"/><path class="cls-146" d="M224.32,292.94c1.19.46,2.56.45,3.5,1.47.23.69,0,1-.72.78l-.77.19a4.79,4.79,0,0,1-3.53-1.05c-.37-.61-1.43-.25-1.6-1.14.1-1.05-1.62-1.05-1.28-2.23a2.31,2.31,0,0,1,2-.9c.75-.3,1.49-.56,1.49.71l0,0C222.64,292,223.33,292.53,224.32,292.94Z"/><path class="cls-147" d="M221.07,300.34l-7.71-3.1a12.17,12.17,0,0,1,9.53,2.21C222.51,300.2,222,300.7,221.07,300.34Z"/><path class="cls-148" d="M233.61,297.17c2,.08,3.46,2.66,5.73,1.06a1.11,1.11,0,0,1,.76.59c-.58,2.3-2.13,2.28-3.82,1.47a21.45,21.45,0,0,1-2.84-2A.9.9,0,0,1,233.61,297.17Z"/><path class="cls-149" d="M247.13,293.09a17,17,0,0,1-6.37-4.37c.59-.51,1.2-.28,1.81,0,1.2-.21,1.62,1.17,2.64,1.32,1.33.2,2.63.47,3.38,1.77,0,.18.08.35.13.53a1.68,1.68,0,0,1-1.12.77Z"/><path class="cls-95" d="M242.57,288.68l-1.81,0c-2.13-.85-3.73-3.19-6.47-2.27a1.14,1.14,0,0,1-.32-.93c1.57-1.94,3.11-1.68,4.63.06l1.37.84C240.94,287.06,242.09,287.48,242.57,288.68Z"/><path class="cls-144" d="M248.59,291.77a4.78,4.78,0,0,1-3.38-1.77l2.08-.63-.06.07c1.35.9,3.34-.31,4.44,1.36a3.49,3.49,0,0,1,2.21,1.45C252.06,292.7,250.52,290.09,248.59,291.77Z"/><path class="cls-150" d="M233.61,297.17l-.17,1.16c-2.18-.91-4.69-1.15-6.34-3.14l.72-.78C229.81,295.21,232,295.64,233.61,297.17Z"/><path class="cls-22" d="M221.07,300.34l1.82-.89a9.1,9.1,0,0,1,4.16,2.24c-.31.63-.94.73-1.52.92Z"/><path class="cls-150" d="M225.53,302.61a1.51,1.51,0,0,1,1.52-.92,6.87,6.87,0,0,1,3.83,2.67C228.4,305.13,227.08,303.54,225.53,302.61Z"/><path class="cls-151" d="M254.5,292.29l1.49-.74a8.3,8.3,0,0,1,1.56.66c.5.34,1.41.64.92,1.51-.41.72-1.17.67-1.81.24S255.22,292.85,254.5,292.29Z"/><path class="cls-144" d="M238.6,285.58c-1.49-.23-3-1.78-4.47,0-.32,1-.81.61-1.3.16C234.72,284.18,236.59,281.73,238.6,285.58Z"/><path class="cls-152" d="M232.83,285.71l1.3-.16.16.9A6.91,6.91,0,0,1,230,288a1.1,1.1,0,0,1-.64-.69Z"/><path class="cls-153" d="M223.39,290.77l-1.49-.71a3.93,3.93,0,0,1,3-1.33,1.58,1.58,0,0,1,1.5.75Z"/><path class="cls-154" d="M201.75,293.54l1.11,1.1a4.22,4.22,0,0,1-3.17,1.67C199.28,294.58,200.62,294.14,201.75,293.54Z"/><path class="cls-8" d="M218.42,285.83c-.6-.12-1.22-.18-1.5-.85l1.38-.65c.59.16,1.26.16,1.59.82Z"/><path class="cls-12" d="M229.32,287.31l.64.69a2.2,2.2,0,0,1-2,.79c-.82.38-.95-.05-.84-.74C227.65,287.26,228.56,287.51,229.32,287.31Z"/><path class="cls-155" d="M245.11,296.66c-.09.19-.18.39-.26.59l-2.76.66c-.39-.34-1.05,0-1.35-.56a4.55,4.55,0,0,1,2.94-1.35C244.11,296.31,244.81,296.06,245.11,296.66Z"/><path class="cls-12" d="M248.65,295.14c-3,1.13-1.06-1.33-1.52-2.05a.49.49,0,0,0,.38-.12c.85-.34,1.43-.32,1.19.86Z"/><path class="cls-43" d="M198.28,298.26l-2.07-.41c.71-1.48,1.93-1.27,3.08-1.26C199.07,297.22,199,298,198.28,298.26Z"/><path class="cls-156" d="M227.1,288.05l.84.74-1.52.69-1.5-.75C225.5,288,226.36,288.24,227.1,288.05Z"/><path class="cls-157" d="M248.7,293.83l-1.2-.86c.12-.74.77-.52,1.22-.67.72.14,1.42.38,1.2,1.29C249.88,293.76,249.13,293.76,248.7,293.83Z"/><path class="cls-144" d="M222.8,294.33l3.53,1.05C224.72,296.51,223.75,295.45,222.8,294.33Z"/><path class="cls-153" d="M219.92,291c.49.71,1.9.89,1.28,2.23C222,291.74,217.28,293.46,219.92,291Z"/><path class="cls-145" d="M240.74,297.35l1.35.56-2,.91-.76-.59Z"/><path class="cls-156" d="M206.92,314.61a15.17,15.17,0,0,1-8.41-3c-.56-.37-1.37-.78-.73-1.63a1.09,1.09,0,0,1,1.6,0c2.31,1.72,5.06,2.56,7.57,3.87C207.35,314.07,207.33,314.35,206.92,314.61Z"/><path class="cls-158" d="M217,316.08a4.85,4.85,0,0,1,4.32,1.6c-1.68.14-3.59.9-4.28-1.69Z"/><path class="cls-159" d="M211.44,314.57a4,4,0,0,1,2.88.68c-.12.49-.61.58-.93.86a6.78,6.78,0,0,1-3.58-.83C209.85,313.9,210.69,314.34,211.44,314.57Z"/><path class="cls-159" d="M211.44,314.57a1.91,1.91,0,0,0-1.63.71,5.23,5.23,0,0,1-2.89-.67l0-.84C208.45,314,210.09,313.48,211.44,314.57Z"/><path class="cls-160" d="M213.39,316.11l.93-.86c1,.07,2-.17,2.66.83l0-.09C215.86,317.5,214.62,316.75,213.39,316.11Z"/><path class="cls-161" d="M255.32,225.57l4.11-.24,2.2.08c-7,2.15-14.09,1.76-21.18.44-.72-.13-1.36-.5-1.9.28l-1-.94c1.13-1.32,2.48-.13,3.71-.33C245.91,226.42,250.6,226.21,255.32,225.57Z"/><path class="cls-161" d="M263.77,225.39l1.44-.79v4.87l-.51.13Z"/><path class="cls-162" d="M281,240.28c.17.32.42.59.43.87,0,.63-.47.72-.91.59-.23-.07-.55-.49-.5-.66S280.45,240.7,281,240.28Z"/><path class="cls-163" d="M282.57,266.66c-.5,1.66-1.75,2.09-3.69,2.64C279.87,267.2,281.42,267.25,282.57,266.66Z"/><path class="cls-164" d="M251.67,290.8c-1.39-.75-3.15-.29-4.44-1.36C248.83,289.51,250.74,288.56,251.67,290.8Z"/><path class="cls-165" d="M121.78,103.42a20.23,20.23,0,0,1,12.78,4c.61.45,1.67.83,1.07,1.93-.68,1.25-1.58.64-2.42.14-8.2-4.85-16.23-3.93-24.18.66-.9.52-2.16,1.51-2.86.38s.92-1.72,1.65-2.36C111.79,104.67,116.63,103.56,121.78,103.42Z"/><path class="cls-166" d="M192.84,110.52c-1.41,1.18-2.46,0-3.52-.59-7.75-4.28-15.55-5.18-23.5-.53-.87.51-1.94,1.46-2.7,0-.64-1.26.69-1.58,1.38-2.09C173.06,101,187.46,102.6,192.84,110.52Z"/><path class="cls-167" d="M181.52,121.47a1.13,1.13,0,0,1,1.24,1,1.14,1.14,0,0,1-1.19,1.39,1.09,1.09,0,0,1-1.21-1C180.23,122,180.73,121.58,181.52,121.47Z"/><path class="cls-168" d="M118.64,120.93c1,0,1.52.46,1.58,1.22a1.3,1.3,0,1,1-2.59.19C117.55,121.5,118.14,121.16,118.64,120.93Z"/><path class="cls-169" d="M142.91,152.5c2.91.23,4.79-1.77,6.84-1.81s3.9,2.11,6.44,1.81C153.41,157.64,147,157.78,142.91,152.5Z"/><path class="cls-170" d="M245.24,199.52c1.35.36,3.41-1.43,3.86-.05a10.85,10.85,0,0,1,0,7.37c-.51,1.24-1.92.78-2.88.37a14.67,14.67,0,0,1-5.94-5.05c-1.36-1.83,1.05-1.15,1.22-1.94C242.6,199.29,244.07,200.24,245.24,199.52Z"/><path class="cls-117" d="M245.24,199.52a5.18,5.18,0,0,1-3.76.7C242.54,199,243.94,199.5,245.24,199.52Z"/><path class="cls-171" d="M190.9,284.49l.84-.08c1-.8,2-1.59,3.46-1.06,1,.67,1.57,1.72,2.55,2.41s.81,1.58,0,2.36c-1.21,1.11-2.94,1.6-3.78,3.16l-.05.25-.24.05a2.84,2.84,0,0,1-3.8-.29c-1.41-1.3-4.4-2.06-1.62-4.78l-.09.09A17.69,17.69,0,0,1,190.9,284.49Z"/><path class="cls-152" d="M197.33,287.71c.93-.7.62-1.36-.23-1.71a2.48,2.48,0,0,1-1.84-2.14l.29-.42a1.17,1.17,0,0,1,1.38.22c.89,1.75,3.11,1.32,4.36,2.67-.78,1.51-2.43,1.71-3.73,2.42A.82.82,0,0,1,197.33,287.71Z"/><path class="cls-156" d="M188.23,286.51c-1.35,2,.66,2.9,1.45,4.2a.66.66,0,0,1-.11,1c-1.42.2-2-1-2.86-1.75s-2-1.36-1.56-2.45S187,286.17,188.23,286.51Z"/><path class="cls-172" d="M217.89,280.59c-.53,1-1.22,1-1.88.66-.94-.56-2.43-.76-2.2-2.3.07-.48,1-.65,1.54-.32C216.28,279.2,217.47,279.52,217.89,280.59Z"/><path class="cls-173" d="M209.43,279.23a5.28,5.28,0,0,1,3,2.57c.05.11-.64.84-.91.8a3.76,3.76,0,0,1-3.08-2.48C208.29,279.59,208.89,279.39,209.43,279.23Z"/><path class="cls-174" d="M197.33,287.71l.23,1c-1,1.19-2,2.33-3.62,2.53C194,289.07,195.77,288.49,197.33,287.71Z"/><path class="cls-175" d="M189.57,291.72l.11-1,4,.87c-.15.46-.3.93-.44,1.39-1.44,1-2.47,0-3.54-.74C189.64,292.06,189.61,291.89,189.57,291.72Z"/><path class="cls-157" d="M190.9,284.49c0,1.86-1.52,1.82-2.76,2.11C188.09,284.63,189.43,284.47,190.9,284.49Z"/><path class="cls-130" d="M195.26,283.86l-3.52.55c0-1,.34-1.6,1.45-1.47.88-.22,2-1.05,2.19.72Z"/><path class="cls-176" d="M195.38,283.66c-.53-.84-1.43-.55-2.19-.72,1.48-.95,2.86-1.44,3.74.72Z"/><path class="cls-171" d="M189.67,292.23c1.15.4,2.23,1.1,3.54.74C191.66,294.49,190.55,293.91,189.67,292.23Z"/><path class="cls-172" d="M175.91,303.19c-.35-.06-.77,0-1-.2-1.19-.89-4.1-.95-3-3,1-1.79,2.16.93,3.46,1.15a6.87,6.87,0,0,1,2.1,1.25C177.14,303,176.53,303.1,175.91,303.19Z"/><path class="cls-177" d="M182.63,304.44a14.86,14.86,0,0,1,4.84,1.57c0,1.3-.78,1.07-1.58.82l-4.25-1.43C181.49,304.59,181.73,304.18,182.63,304.44Z"/><path class="cls-178" d="M182.63,304.44l-1,1a6.34,6.34,0,0,1-4.23-1.57,1.74,1.74,0,0,1,1.46-.78A9,9,0,0,1,182.63,304.44Z"/><path class="cls-179" d="M185.89,306.83c.54-.25,1.32,0,1.58-.82l1.41,0c.89,1.05.5,1.7-.67,2.09Z"/><path class="cls-180" d="M178.87,303.05c-.29.62-.89.67-1.46.78l-1.5-.64c.26-.76,1-.66,1.55-.83Z"/><path class="cls-181" d="M245.11,296.66l-1.43-.66c.72-.17,1.39-1.21,2.12-.46C246.37,296.12,245.66,296.46,245.11,296.66Z"/><path class="cls-153" d="M224.32,292.94a1.47,1.47,0,0,1-1.8-1.31c-.14-.59.27-.83.83-.83C223,291.82,223.75,292.34,224.32,292.94Z"/></svg>