<svg width="0" height="0" class="hidden">
  <symbol version="1.1" id="chevron" xmlns="http://www.w3.org/2000/svg" xmlns:xlink="http://www.w3.org/1999/xlink" x="0px" y="0px" xml:space="preserve" viewBox="0 0 185.343 185.343">
    <g>
      <g>
        <path d="M51.707,185.343c-2.741,0-5.493-1.044-7.593-3.149c-4.194-4.194-4.194-10.981,0-15.175
			l74.352-74.347L44.114,18.32c-4.194-4.194-4.194-10.987,0-15.175c4.194-4.194,10.987-4.194,15.18,0l81.934,81.934
			c4.194,4.194,4.194,10.987,0,15.175l-81.934,81.939C57.201,184.293,54.454,185.343,51.707,185.343z"></path>
      </g>
    </g>
    <g></g>
    <g></g>
    <g></g>
    <g></g>
    <g></g>
    <g></g>
    <g></g>
    <g></g>
    <g></g>
    <g></g>
    <g></g>
    <g></g>
    <g></g>
    <g></g>
    <g></g>
  </symbol>
  <symbol version="1.1" id="clock" xmlns="http://www.w3.org/2000/svg" xmlns:xlink="http://www.w3.org/1999/xlink" x="0px" y="0px" xml:space="preserve" viewBox="0 0 501.656 501.656">
    <g>
      <g>
        <path d="M342.512,328h-200c-2.122,0-4.156,0.844-5.656,2.344l-96,96l11.312,11.312L145.824,344h187.888
			c-1.664,9.496-6.888,24-23.2,24h-88v16h88c31.64,0,40-31.4,40-48C350.512,331.582,346.93,328,342.512,328z"></path>
      </g>
    </g>
    <g>
      <g>
        <path d="M444.168,274.344c-3.124-3.123-8.188-3.123-11.312,0l-72,72l11.312,11.312l65.712-65.712
			c10.828,14.37,8.629,34.68-5.024,46.4L339.2,432H174.512c-2.122,0-4.156,0.844-5.656,2.344l-56,56l11.312,11.312L177.824,448
			h164.688c2.122,0,4.156-0.844,5.656-2.344l96-96C473.96,319.864,457.192,287.368,444.168,274.344z"></path>
      </g>
    </g>
    <g>
      <g>
        <path d="M262.512,0c-83.947,0-152,68.053-152,152s68.053,152,152,152c83.909-0.093,151.907-68.091,152-152
			C414.512,68.053,346.459,0,262.512,0z M262.512,288c-75.111,0-136-60.889-136-136s60.89-136,136-136
			c75.076,0.084,135.916,60.924,136,136C398.512,227.111,337.623,288,262.512,288z"></path>
      </g>
    </g>
    <g>
      <g>
        <path d="M262.512,40c-61.856,0-112,50.144-112,112s50.145,112,112,112c61.828-0.066,111.934-50.172,112-112
			C374.512,90.144,324.368,40,262.512,40z M270.512,247.666V224h-16v23.666c-46.637-3.848-83.817-41.028-87.666-87.666h23.666v-16
			h-23.666c3.849-46.637,41.029-83.817,87.666-87.666V80h16V56.343c46.612,3.893,83.764,41.045,87.657,87.657h-23.657v16h23.666
			C354.33,206.637,317.15,243.817,270.512,247.666z"></path>
      </g>
    </g>
    <g>
      <g>
        <path d="M284.18,162.33c1.494-3.129,2.333-6.631,2.333-10.33c0-10.449-6.68-19.334-16-22.629V96h-16v33.371
			c-9.32,3.295-16,12.18-16,22.629c-0.001,13.255,10.745,24,23.999,24c3.711,0,7.225-0.843,10.362-2.347l23.977,23.977
			l11.314-11.314L284.18,162.33z M262.512,160c-4.418,0-8-3.582-8-8c0-4.418,3.582-8,8-8c4.418,0,8,3.582,8,8
			C270.512,156.418,266.93,160,262.512,160z"></path>
      </g>
    </g>
    <g></g>
    <g></g>
    <g></g>
    <g></g>
    <g></g>
    <g></g>
    <g></g>
    <g></g>
    <g></g>
    <g></g>
    <g></g>
    <g></g>
    <g></g>
    <g></g>
    <g></g>
  </symbol>
  <symbol xmlns="http://www.w3.org/2000/svg" viewBox="0 0 64 64" id="computer">
    <g id="Computer-Engineer-Coding-Programing-Configulation">
      <path d="m13.293 14.293-3 3a1 1 0 0 0 0 1.414l3 3 1.414-1.414-2.293-2.293 2.293-2.293z"></path>
      <path d="m14.228 17h8.544v2h-8.544z" transform="matrix(.351 -.936 .936 .351 -4.85 29.002)"></path>
      <path d="m23.707 21.707 3-3a1 1 0 0 0 0-1.414l-3-3-1.414 1.414 2.293 2.293-2.293 2.293z"></path>
      <path d="m10 26h4v2h-4z"></path>
      <path d="m16 26h10v2h-10z"></path>
      <path d="m12 30h4v2h-4z"></path>
      <path d="m18 30h10v2h-10z"></path>
      <path d="m30 30h2v2h-2z"></path>
      <path d="m12 34h4v2h-4z"></path>
      <path d="m18 34h10v2h-10z"></path>
      <path d="m30 34h2v2h-2z"></path>
      <path d="m61.142 13.01-2.682-.383a10.86 10.86 0 0 0 -.679-1.639l1.625-2.166a1 1 0 0 0 -.093-1.307l-2.828-2.828a1 1 0 0 0 -1.306-.093l-2.167 1.624a10.9 10.9 0 0 0 -1.639-.678l-.383-2.682a1 1 0 0 0 -.99-.858h-4a1 1 0 0 0 -.99.858l-.383 2.682a10.855 10.855 0 0 0 -1.639.678l-2.167-1.624a1 1 0 0 0 -1.306.093l-2.828 2.828a1 1 0 0 0 -.093 1.307l1.625 2.166a10.86 10.86 0 0 0 -.679 1.639l-2.682.383a1 1 0 0 0 -.858.99v4a1 1 0 0 0 .858.99l2.682.383a10.86 10.86 0 0 0 .679 1.639l-1.625 2.166a1 1 0 0 0 .093 1.307l2.828 2.828a1 1 0 0 0 1.306.093l2.167-1.624a10.855 10.855 0 0 0 1.639.678l.383 2.682a1 1 0 0 0 .99.858h4a1 1 0 0 0 .99-.858l.383-2.682a10.9 10.9 0 0 0 1.639-.678l2.167 1.624a1 1 0 0 0 1.306-.093l2.828-2.828a1 1 0 0 0 .093-1.307l-1.625-2.166a10.86 10.86 0 0 0 .679-1.639l2.682-.383a1 1 0 0 0 .858-.99v-4a1 1 0 0 0 -.858-.99zm-1.142 4.123-2.463.352a1 1 0 0 0 -.827.742 8.923 8.923 0 0 1 -.977 2.357 1 1 0 0 0 .061 1.111l1.492 1.99-1.6 1.6-1.991-1.492a1 1 0 0 0 -1.11-.06 8.859 8.859 0 0 1 -2.356.975 1 1 0 0 0 -.744.828l-.352 2.464h-2.266l-.351-2.463a1 1 0 0 0 -.744-.828 8.859 8.859 0 0 1 -2.356-.975 1 1 0 0 0 -1.11.06l-1.991 1.492-1.6-1.6 1.492-1.99a1 1 0 0 0 .061-1.111 8.923 8.923 0 0 1 -.977-2.357 1 1 0 0 0 -.827-.742l-2.464-.353v-2.266l2.463-.352a1 1 0 0 0 .827-.742 8.923 8.923 0 0 1 .977-2.357 1 1 0 0 0 -.061-1.111l-1.492-1.99 1.6-1.6 1.991 1.492a1 1 0 0 0 1.11.06 8.859 8.859 0 0 1 2.356-.975 1 1 0 0 0 .744-.828l.352-2.464h2.266l.351 2.463a1 1 0 0 0 .744.828 8.859 8.859 0 0 1 2.356.975 1 1 0 0 0 1.11-.06l1.991-1.492 1.6 1.6-1.492 1.99a1 1 0 0 0 -.061 1.111 8.923 8.923 0 0 1 .977 2.357 1 1 0 0 0 .827.742l2.464.353z"></path>
      <path d="m48 10a6 6 0 1 0 6 6 6.006 6.006 0 0 0 -6-6zm0 10a4 4 0 1 1 4-4 4 4 0 0 1 -4 4z"></path>
      <path d="m52 40h-48v-25a3 3 0 0 1 3-3h28v-2h-28a5.006 5.006 0 0 0 -5 5v30a5.006 5.006 0 0 0 5 5h12.867l-.75 6h-2.117a2 2 0 0 0 -2 2v2a2 2 0 0 0 2 2h22a2 2 0 0 0 2-2v-2a2 2 0 0 0 -2-2h-2.117l-.75-6h12.867a5.006 5.006 0 0 0 5-5v-16h-2zm-13 20h-22v-2h22zm-4.133-4h-13.734l.75-6h12.234zm14.133-8h-42a3 3 0 0 1 -3-3v-3h48v3a3 3 0 0 1 -3 3z"></path>
      <path d="m46 44h2v2h-2z"></path>
    </g>
  </symbol>
  <symbol xmlns="http://www.w3.org/2000/svg" viewBox="0 0 512 512" id="easy">
    <g id="Out_line">
      <path d="m184 304h-112a8.00008 8.00008 0 0 0 -8 8v96a8.00008 8.00008 0 0 0 8 8h112a8.00008 8.00008 0 0 0 8-8v-96a8.00008 8.00008 0 0 0 -8-8zm-8 96h-96v-80h96z"></path>
      <path d="m96 336h32v16h-32z"></path>
      <path d="m128 368h32v16h-32z"></path>
      <path d="m380 64h-244v-40a7.99985 7.99985 0 0 0 -12.87793-6.34082l-104 80a8 8 0 0 0 0 12.68164l104 80a7.99985 7.99985 0 0 0 12.87793-6.34082v-40h216a64.07239 64.07239 0 0 1 64 64v144a63.89737 63.89737 0 0 1 -48 61.99341v-181.99341a8.00008 8.00008 0 0 0 -8-8h-336a8.00008 8.00008 0 0 0 -8 8v256a8.00008 8.00008 0 0 0 8 8h356a116.13134 116.13134 0 0 0 116-116v-200a116.13134 116.13134 0 0 0 -116-116zm-28 176v192h-112v-192zm-208 0v32h-32v-32zm-112 0h64v40a8.00008 8.00008 0 0 0 8 8h48a8.00008 8.00008 0 0 0 8-8v-40h64v192h-192zm448 140a100.113 100.113 0 0 1 -100 100h-348v-32h328a8.00008 8.00008 0 0 0 8-8v-9.605a79.86446 79.86446 0 0 0 64-78.395v-144a80.09041 80.09041 0 0 0 -80-80h-224a8.00008 8.00008 0 0 0 -8 8v31.75293l-82.87891-63.75293 82.87891-63.75293v31.75293a8.00008 8.00008 0 0 0 8 8h252a100.113 100.113 0 0 1 100 100z"></path>
      <path d="m320 400h16v16h-16z"></path>
      <path d="m288 400h16v16h-16z"></path>
      <path d="m256 400h16v16h-16z"></path>
    </g>
  </symbol>
  <symbol version="1.1" id="fast" xmlns="http://www.w3.org/2000/svg" xmlns:xlink="http://www.w3.org/1999/xlink" x="0px" y="0px" xml:space="preserve" viewBox="0 0 122.88 96.86">
    <g>
      <path d="M87.08,15.79c9.28,1.11,17.61,5.34,23.89,11.62c7.36,7.36,11.91,17.53,11.91,28.76 c0,11.23-4.55,21.4-11.91,28.76c-7.36,7.36-17.53,11.92-28.77,11.92s-21.4-4.55-28.76-11.92c-7.36-7.36-11.91-17.53-11.91-28.76 c0-11.23,4.55-21.4,11.91-28.76c6.74-6.74,15.84-11.13,25.96-11.82v-5.19c0-0.1,0.01-0.21,0.01-0.31h-7.62 c-1.25,0-2.27-1.02-2.27-2.27V2.27c0-1.25,1.02-2.27,2.27-2.27h22.9c1.25,0,2.27,1.02,2.27,2.27v5.56c0,1.25-1.02,2.27-2.27,2.27 h-7.62c0.01,0.1,0.01,0.2,0.01,0.31L87.08,15.79L87.08,15.79L87.08,15.79z M85.47,50.1c2.16,1.16,3.63,3.45,3.63,6.08 c0,3.81-3.09,6.9-6.9,6.9c-3.81,0-6.9-3.09-6.9-6.9c0-2.63,1.47-4.91,3.63-6.08l0-15.81c0-1.8,1.46-3.27,3.26-3.27 c1.8,0,3.27,1.46,3.27,3.27V50.1L85.47,50.1L85.47,50.1z M118.74,28.08c1.58-3.77,1.39-7.71-0.87-10.36 c-2.71-3.17-7.61-3.54-12.16-1.3C110.53,19.72,114.9,23.57,118.74,28.08L118.74,28.08L118.74,28.08z M45.67,28.08 c-1.58-3.77-1.39-7.71,0.87-10.36c2.71-3.17,7.61-3.54,12.16-1.3C53.88,19.72,49.5,23.57,45.67,28.08L45.67,28.08L45.67,28.08z M106.35,32.04c-6.18-6.18-14.71-10-24.14-10c-9.43,0-17.97,3.82-24.14,10c-6.18,6.18-10,14.72-10,24.14 c0,9.43,3.82,17.97,10,24.15c6.18,6.18,14.71,10,24.14,10c9.43,0,17.97-3.82,24.15-10c6.18-6.18,10-14.71,10-24.15 C116.35,46.75,112.53,38.21,106.35,32.04L106.35,32.04L106.35,32.04z"></path>
      <path d="M3.26,40.99c-1.8,0-3.26-1.46-3.26-3.27c0-1.8,1.46-3.27,3.26-3.27h32.22l-1.63,6.53H3.26L3.26,40.99 L3.26,40.99z"></path>
      <path d="M10.04,59.7c-1.8,0-3.27-1.46-3.27-3.26s1.46-3.27,3.27-3.27h20.82l0.54,6.53H10.04L10.04,59.7L10.04,59.7z"></path>
      <path d="M17.34,78.9c-1.8,0-3.27-1.46-3.27-3.27c0-1.8,1.46-3.27,3.27-3.27h16.27l2.18,6.53H17.34L17.34,78.9 L17.34,78.9z"></path>
    </g>
  </symbol>
  <symbol version="1.1" xmlns="http://www.w3.org/2000/svg" xmlns:xlink="http://www.w3.org/1999/xlink" enable-background="new 0 0 469.518 469.518" viewBox="0 0 469.518 469.518" id="globe">
    <path d="m459.518,328.842h-6.825c-2.443-54.519-24.827-105.427-63.667-144.267-41.206-41.206-95.993-63.899-154.267-63.899-58.274,0-113.061,22.693-154.267,63.899-38.84,38.84-61.223,89.747-63.666,144.267h-6.826c-5.523,0-10,4.477-10,10s4.477,10 10,10h449.518c5.522,0 10-4.477 10-10s-4.477-10-10-10zm-332.936-78.283c17.82,2.59 35.962,4.527 54.386,5.801-1.081,11.105-1.941,22.609-2.569,34.41-20.278-1.531-40.269-3.876-59.779-7.024 2.028-11.444 4.693-22.541 7.962-33.187zm-27.646,29.713c-16.974-3.264-33.517-7.139-49.491-11.616 4.002-10.531 8.876-20.635 14.535-30.224 13.979,3.42 28.216,6.401 42.686,8.938-3.142,10.609-5.726,21.607-7.73,32.902zm251.962,3.473c-19.509,3.148-39.5,5.493-59.778,7.025-0.628-11.801-1.488-23.305-2.569-34.41 18.424-1.274 36.566-3.211 54.385-5.801 3.269,10.646 5.933,21.743 7.962,33.186zm11.954-36.375c14.47-2.538 28.707-5.518 42.686-8.938 5.659,9.588 10.532,19.689 14.534,30.219-15.972,4.479-32.515,8.355-49.489,11.619-2.005-11.294-4.589-22.291-7.731-32.9zm-200.09-67.31c12.762-15.651 27.11-26.905 42.319-33.274-4.433,9.318-8.439,21.164-12.049,35.576-10.162-0.56-20.255-1.332-30.27-2.302zm71.997,23.45c8.668,0 17.304-0.146 25.901-0.43 2.169,10.707 4.058,22.255 5.647,34.481-10.435,0.428-20.95,0.656-31.548,0.656-10.598,0-21.113-0.228-31.548-0.656 1.589-12.226 3.478-23.773 5.647-34.481 8.597,0.284 17.233,0.43 25.901,0.43zm41.727-21.148c-3.61-14.412-7.616-26.257-12.05-35.576 15.209,6.369 29.557,17.623 42.319,33.274-10.014,0.97-20.107,1.742-30.269,2.302zm-41.727,75.854c11.36,0 22.633-0.247 33.814-0.726 1.095,11.116 1.962,22.661 2.589,34.528-12.072,0.585-24.217,0.896-36.403,0.896-12.185,0-24.33-0.31-36.402-0.896 0.628-11.867 1.495-23.412 2.589-34.528 11.18,0.479 22.453,0.726 33.813,0.726zm51.563-21.751c-1.542-12.102-3.366-23.595-5.458-34.325 13.155-0.782 26.199-1.9 39.106-3.351 6.158,10.04 11.58,20.939 16.211,32.542-16.348,2.28-32.982,3.987-49.859,5.134zm43.535-59.019c-5.416-7.672-11.162-14.615-17.19-20.801 11.835,5.08 23.079,11.28 33.599,18.467-5.44,0.841-10.91,1.618-16.409,2.334zm-73.818,5.757c-7.069,0.197-14.162,0.307-21.281,0.307s-14.212-0.111-21.28-0.307c9.356-34.975 19.012-42.526 21.28-42.526s11.925,7.551 21.281,42.526zm-116.378-5.757c-5.499-0.715-10.969-1.493-16.409-2.334 10.52-7.187 21.764-13.388 33.599-18.468-6.028,6.187-11.774,13.129-17.19,20.802zm48.994,24.694c-2.092,10.73-3.915,22.224-5.458,34.325-16.877-1.147-33.512-2.854-49.861-5.134 4.631-11.603 10.053-22.501 16.211-32.542 12.908,1.452 25.953,2.569 39.108,3.351zm-11.09,108.642c-0.181,5.967-0.307,11.99-0.371,18.06h-63.182c0.26-8.544 0.855-16.984 1.769-25.287 20.173,3.244 40.836,5.663 61.784,7.227zm19.97,1.227c12.347,0.597 24.768,0.904 37.224,0.904 12.457,0 24.877-0.308 37.225-0.904 0.164,5.562 0.28,11.175 0.341,16.833h-75.131c0.061-5.658 0.177-11.271 0.341-16.833zm94.419-1.227c20.949-1.564 41.611-3.983 61.785-7.228 0.914,8.303 1.509,16.744 1.769,25.288h-63.182c-0.066-6.07-0.191-12.093-0.372-18.06zm81.509-10.695c18.104-3.456 35.743-7.591 52.759-12.386 3.536,13.226 5.745,26.988 6.452,41.141h-57.164c-0.279-9.715-0.968-19.314-2.047-28.755zm20.284-79.405c-12.252,2.847-24.697,5.365-37.335,7.522-4.288-11.33-9.267-22.09-14.888-32.169 8.729-1.249 17.385-2.656 25.96-4.216 9.664,8.733 18.467,18.401 26.263,28.863zm-291.713-28.863c8.575,1.56 17.231,2.967 25.96,4.216-5.62,10.078-10.6,20.838-14.888,32.169-12.638-2.156-25.083-4.675-37.335-7.522 7.796-10.462 16.599-20.13 26.263-28.863zm-58.739,95.888c17.018,4.794 34.656,8.927 52.76,12.382-1.079,9.44-1.768,19.039-2.047,28.753h-57.163c0.707-14.151 2.915-27.911 6.45-41.135z"></path>
  </symbol>
  <symbol id="growth" enable-background="new 0 0 512 512" xmlns="http://www.w3.org/2000/svg" viewBox="0 0 512 512">
    <g>
      <g>
        <path d="m504.5 480.837h-38.97v-240.347c0-4.142-3.357-7.5-7.5-7.5s-7.5 3.358-7.5 7.5v240.347h-49.648l-.002-318.357h49.65v43.01c0 4.142 3.357 7.5 7.5 7.5s7.5-3.358 7.5-7.5v-50.51c0-4.142-3.357-7.5-7.5-7.5h-64.65c-4.143 0-7.5 3.358-7.5 7.5v43.012h-57.148c-4.143 0-7.5 3.358-7.5 7.5v43.008h-57.15c-4.143 0-7.5 3.358-7.5 7.5v43.008h-57.15c-4.143 0-7.5 3.358-7.5 7.5v43.008h-57.15c-4.143 0-7.5 3.358-7.5 7.5v38.964h-57.152c-4.143 0-7.5 3.358-7.5 7.5v20.89c0 4.142 3.357 7.5 7.5 7.5s7.5-3.358 7.5-7.5v-13.39h49.65v69.857h-49.65v-21.467c0-4.142-3.357-7.5-7.5-7.5s-7.5 3.358-7.5 7.5v21.467h-31.467v-473.337c0-4.142-3.357-7.5-7.5-7.5s-7.5 3.358-7.5 7.5v38.967h-8.663c-4.143 0-7.5 3.358-7.5 7.5s3.357 7.5 7.5 7.5h8.663v49.65h-8.663c-4.143 0-7.5 3.358-7.5 7.5s3.357 7.5 7.5 7.5h8.663v49.65h-8.663c-4.143 0-7.5 3.358-7.5 7.5s3.357 7.5 7.5 7.5h8.663v49.65h-8.663c-4.143 0-7.5 3.358-7.5 7.5s3.357 7.5 7.5 7.5h8.663v49.651h-8.663c-4.143 0-7.5 3.358-7.5 7.5s3.357 7.5 7.5 7.5h8.663v49.65h-8.663c-4.143 0-7.5 3.358-7.5 7.5s3.357 7.5 7.5 7.5h8.663v49.65h-8.663c-4.143 0-7.5 3.358-7.5 7.5s3.357 7.5 7.5 7.5h8.663v38.967c0 4.142 3.357 7.5 7.5 7.5h38.967v8.663c0 4.142 3.357 7.5 7.5 7.5s7.5-3.358 7.5-7.5v-8.66h49.65v8.66c0 4.142 3.357 7.5 7.5 7.5s7.5-3.358 7.5-7.5v-8.663h49.65v8.663c0 4.142 3.357 7.5 7.5 7.5s7.5-3.358 7.5-7.5v-8.663h49.65v8.663c0 4.142 3.357 7.5 7.5 7.5s7.5-3.358 7.5-7.5v-8.663h49.65v8.663c0 4.142 3.357 7.5 7.5 7.5s7.5-3.358 7.5-7.5v-8.663h49.65v8.663c0 4.142 3.357 7.5 7.5 7.5s7.5-3.358 7.5-7.5v-8.66h49.65v8.66c0 4.142 3.357 7.5 7.5 7.5s7.5-3.358 7.5-7.5v-8.663h38.97c4.143 0 7.5-3.358 7.5-7.5s-3.357-7.498-7.5-7.498zm-362.22-116.321h49.65v116.321h-49.65zm64.651-50.508h49.65v166.829h-49.65zm64.65-50.508h49.65v217.337h-49.65zm64.65-50.508h49.648v267.846h-49.648z"></path>
        <path d="m86.1 338.44c6.323 0 12.267-2.46 16.734-6.927l112.91-112.91c2.929-2.929 2.929-7.678 0-10.606-2.93-2.929-7.678-2.929-10.607 0l-112.909 112.909c-1.635 1.634-3.811 2.534-6.128 2.534-2.311 0-4.482-.9-6.116-2.533-1.64-1.64-2.543-3.817-2.543-6.13 0-2.311.901-4.484 2.543-6.123l263.521-263.52c2.145-2.145 2.786-5.371 1.625-8.173-1.16-2.803-3.896-4.63-6.929-4.63h-23.61c-4.775 0-8.66-3.889-8.66-8.67 0-4.775 3.885-8.66 8.66-8.66h62.63c4.775 0 8.66 3.885 8.66 8.66v62.63c0 4.781-3.885 8.67-8.66 8.67s-8.66-3.889-8.66-8.67v-23.611c0-3.034-1.827-5.768-4.63-6.929-2.804-1.161-6.027-.518-8.174 1.626l-125.88 125.88c-2.929 2.929-2.929 7.678 0 10.606 2.93 2.929 7.678 2.929 10.607 0l113.076-113.076v5.503c0 13.052 10.614 23.67 23.66 23.67s23.66-10.618 23.66-23.67v-62.63c0-13.046-10.614-23.66-23.66-23.66h-62.63c-13.046 0-23.66 10.614-23.66 23.66 0 13.052 10.614 23.67 23.66 23.67h5.504l-250.714 250.713c-4.475 4.469-6.939 10.412-6.939 16.733 0 6.32 2.463 12.264 6.937 16.737 4.466 4.467 10.405 6.927 16.722 6.927z"></path>
      </g>
    </g>
  </symbol>
  <symbol xmlns="http://www.w3.org/2000/svg" enable-background="new 0 0 24 24" fill="#000000" viewBox="0 0 24 24" id="homeReno">
    <g>
      <rect fill="none" height="24" width="24"></rect>
      <path d="M21.69,16.37l1.14-1l-1-1.73l-1.45,0.49c-0.32-0.27-0.68-0.48-1.08-0.63L19,12h-2l-0.3,1.49c-0.4,0.15-0.76,0.36-1.08,0.63 l-1.45-0.49l-1,1.73l1.14,1c-0.08,0.5-0.08,0.76,0,1.26l-1.14,1l1,1.73l1.45-0.49c0.32,0.27,0.68,0.48,1.08,0.63L17,22h2l0.3-1.49 c0.4-0.15,0.76-0.36,1.08-0.63l1.45,0.49l1-1.73l-1.14-1C21.77,17.13,21.77,16.87,21.69,16.37z M18,19c-1.1,0-2-0.9-2-2s0.9-2,2-2 s2,0.9,2,2S19.1,19,18,19z M19,4v6h-2V6h-2v6h-2V5H7v14h5v2H3v-2h2V3h10v1H19z M12,13h-2v-2h2V13z"></path>
    </g>
  </symbol>
  <symbol xmlns="http://www.w3.org/2000/svg" viewBox="0 0 50 2" id="line">
    <path fill="#63c3ef" d="M0 0h50v2H0z"></path>
  </symbol>
  <symbol xmlns="http://www.w3.org/2000/svg" enable-background="new 0 0 24 24" fill="#000000" viewBox="0 0 24 24" id="luggage">
    <rect fill="none" height="24" width="24"></rect>
    <g>
      <path d="M9.5,18H8V9h1.5V18z M12.75,18h-1.5V9h1.5V18z M16,18h-1.5V9H16V18z M17,6h-2V3c0-0.55-0.45-1-1-1h-4C9.45,2,9,2.45,9,3v3 H7C5.9,6,5,6.9,5,8v11c0,1.1,0.9,2,2,2c0,0.55,0.45,1,1,1s1-0.45,1-1h6c0,0.55,0.45,1,1,1s1-0.45,1-1c1.1,0,2-0.9,2-2V8 C19,6.9,18.1,6,17,6z M10.5,3.5h3V6h-3V3.5z M17,19H7V8h10V19z"></path>
    </g>
  </symbol>
  <symbol xmlns="http://www.w3.org/2000/svg" enable-background="new 0 0 24 24" fill="#000000" viewBox="0 0 24 24" id="medical">
    <g>
      <rect fill="none" height="24" width="24"></rect>
    </g>
    <g>
      <g>
        <path d="M20,6h-4V4c0-1.1-0.9-2-2-2h-4C8.9,2,8,2.9,8,4v2H4C2.9,6,2,6.9,2,8v12c0,1.1,0.9,2,2,2h16c1.1,0,2-0.9,2-2V8 C22,6.9,21.1,6,20,6z M10,4h4v2h-4V4z M20,20H4V8h16V20z"></path>
        <polygon points="13,10 11,10 11,13 8,13 8,15 11,15 11,18 13,18 13,15 16,15 16,13 13,13"></polygon>
      </g>
    </g>
  </symbol>
  <symbol id="menu" enable-background="new 0 0 24 24" xmlns="http://www.w3.org/2000/svg" viewBox="0 0 24 24">
    <g>
      <path d="m21.5 24h-19c-1.379 0-2.5-1.122-2.5-2.5v-19c0-1.378 1.121-2.5 2.5-2.5h19c1.379 0 2.5 1.122 2.5 2.5v19c0 1.378-1.121 2.5-2.5 2.5zm-19-23c-.827 0-1.5.673-1.5 1.5v19c0 .827.673 1.5 1.5 1.5h19c.827 0 1.5-.673 1.5-1.5v-19c0-.827-.673-1.5-1.5-1.5z"></path>
    </g>
    <g>
      <path d="m16.5 8h-9c-.276 0-.5-.224-.5-.5s.224-.5.5-.5h9c.276 0 .5.224.5.5s-.224.5-.5.5z"></path>
    </g>
    <g>
      <path d="m16.5 12.5h-9c-.276 0-.5-.224-.5-.5s.224-.5.5-.5h9c.276 0 .5.224.5.5s-.224.5-.5.5z"></path>
    </g>
    <g>
      <path d="m16.5 17h-9c-.276 0-.5-.224-.5-.5s.224-.5.5-.5h9c.276 0 .5.224.5.5s-.224.5-.5.5z"></path>
    </g>
  </symbol>
  <symbol xmlns="http://www.w3.org/2000/svg" fill="#000000" viewBox="0 0 24 24" id="person">
    <path d="M0 0h24v24H0V0z" fill="none"></path>
    <path d="M12 6c1.1 0 2 .9 2 2s-.9 2-2 2-2-.9-2-2 .9-2 2-2m0 10c2.7 0 5.8 1.29 6 2H6c.23-.72 3.31-2 6-2m0-12C9.79 4 8 5.79 8 8s1.79 4 4 4 4-1.79 4-4-1.79-4-4-4zm0 10c-2.67 0-8 1.34-8 4v2h16v-2c0-2.66-5.33-4-8-4z"></path>
  </symbol>
  <symbol version="1.1" id="quotes" xmlns="http://www.w3.org/2000/svg" xmlns:xlink="http://www.w3.org/1999/xlink" x="0px" y="0px" xml:space="preserve" viewBox="0 0 508.044 508.044">
    <g>
      <g>
        <path d="M0.108,352.536c0,66.794,54.144,120.938,120.937,120.938c66.794,0,120.938-54.144,120.938-120.938
			s-54.144-120.937-120.938-120.937c-13.727,0-26.867,2.393-39.168,6.61C109.093,82.118,230.814-18.543,117.979,64.303
			C-7.138,156.17-0.026,348.84,0.114,352.371C0.114,352.426,0.108,352.475,0.108,352.536z"></path>
        <path d="M266.169,352.536c0,66.794,54.144,120.938,120.938,120.938s120.938-54.144,120.938-120.938S453.9,231.599,387.106,231.599
			c-13.728,0-26.867,2.393-39.168,6.61C375.154,82.118,496.875-18.543,384.04,64.303C258.923,156.17,266.034,348.84,266.175,352.371
			C266.175,352.426,266.169,352.475,266.169,352.536z"></path>
      </g>
    </g>
    <g></g>
    <g></g>
    <g></g>
    <g></g>
    <g></g>
    <g></g>
    <g></g>
    <g></g>
    <g></g>
    <g></g>
    <g></g>
    <g></g>
    <g></g>
    <g></g>
    <g></g>
  </symbol>
  <symbol xmlns="http://www.w3.org/2000/svg" fill="#000000" viewBox="0 0 24 24" id="school">
    <path d="M0 0h24v24H0V0z" fill="none"></path>
    <path d="M12 3L1 9l4 2.18v6L12 21l7-3.82v-6l2-1.09V17h2V9L12 3zm6.82 6L12 12.72 5.18 9 12 5.28 18.82 9zM17 15.99l-5 2.73-5-2.73v-3.72L12 15l5-2.73v3.72z"></path>
  </symbol>
  <symbol id="search" xmlns="http://www.w3.org/2000/svg" viewBox="0 0 21.8 23.8">
    <defs></defs>
    <path d="M11,17.9a8.7,8.7,0,0,0,.8,4.8,1,1,0,0,0,1.2.4.8.8,0,0,0,.4-1.2,8.3,8.3,0,0,1-.7-3.8,7.6,7.6,0,0,1,15.2,1.1A7.7,7.7,0,0,1,16.1,25a.8.8,0,0,0-1.2.2.9.9,0,0,0,.2,1.3A10,10,0,0,0,19.6,28a9.3,9.3,0,0,0,6.1-1.7l5.5,6.4a.9.9,0,0,0,.6.3.7.7,0,0,0,.7-.2.9.9,0,0,0,.1-1.2L27,25.2a8.9,8.9,0,0,0,2.6-5.8A9.3,9.3,0,1,0,11,17.9Z" transform="translate(-10.9 -9.3)"></path>
  </symbol>
  <symbol id="snap" xmlns="http://www.w3.org/2000/svg" viewBox="0 0 512 512">
    <g fill="rgb(0,0,0)">
      <path d="m460.646 10h-416.708c-18.714 0-33.938 15.521-33.938 34.6v420.122c0 19.078 15.224 34.6 33.89 34.6 3.139.025 315.346 2.492 438.5 2.679h.03a19.282 19.282 0 0 0 13.827-5.813 19.917 19.917 0 0 0 5.753-14.418l-7.421-437.793c-.33-18.735-15.553-33.977-33.933-33.977zm-416.708 12h416.708c11.879 0 21.719 9.954 21.935 22.184l6.511 384.244-96.777-99.462a33.563 33.563 0 0 0 -54.35-3.721l-45.03 53.805a21.4 21.4 0 0 1 -18.452 7.764 21.636 21.636 0 0 1 -17.013-10.959l-81.253-140.576a33.583 33.583 0 0 0 -56.1-3.578l-98.117 113.313v-300.414c0-12.462 9.841-22.6 21.938-22.6zm443.767 465.764a7.377 7.377 0 0 1 -5.282 2.236h-.011c-123.12-.187-435.288-2.654-438.474-2.679-12.1 0-21.938-10.138-21.938-22.6v-101.375l107.321-123.946.271-.337a21.585 21.585 0 0 1 36.236 2.221l81.252 140.576a33.576 33.576 0 0 0 55.057 4.892l45.03-53.805a21.57 21.57 0 0 1 35.25 2.83l.356.591 106.615 109.572.612 36.028a8.007 8.007 0 0 1 -2.295 5.796z"></path>
      <path d="m284.988 218.5c29.7 0 53.864-24.671 53.864-54.995s-24.164-54.995-53.864-54.995-53.863 24.671-53.863 54.995 24.163 54.995 53.863 54.995zm0-97.99c23.084 0 41.864 19.287 41.864 42.995s-18.78 43-41.864 43-41.863-19.288-41.863-42.995 18.775-42.996 41.863-42.996z"></path>
    </g>
  </symbol>
  <symbol version="1.1" id="settings" xmlns="http://www.w3.org/2000/svg" xmlns:xlink="http://www.w3.org/1999/xlink" x="0px" y="0px" xml:space="preserve" viewBox="0 0 485.656 485.656">
    <g>
      <g>
        <path d="M334.512,312h-200c-2.122,0-4.156,0.844-5.656,2.344l-96,96l11.312,11.312L137.824,328h187.888
			c-1.664,9.496-6.888,24-23.2,24h-88v16h88c31.64,0,40-31.4,40-48C342.512,315.582,338.93,312,334.512,312z"></path>
      </g>
    </g>
    <g>
      <g>
        <path d="M436.168,258.344c-3.124-3.123-8.188-3.123-11.312,0l-72,72l11.312,11.312l65.712-65.712
			c10.828,14.37,8.629,34.68-5.024,46.4L331.2,416H166.512c-2.122,0-4.156,0.844-5.656,2.344l-56,56l11.312,11.312L169.824,432
			h164.688c2.122,0,4.156-0.844,5.656-2.344l96-96C465.96,303.864,449.192,271.368,436.168,258.344z"></path>
      </g>
    </g>
    <g>
      <g>
        <path d="M390.512,112H361.76c-2.193-7.348-5.139-14.45-8.792-21.192l20.344-20.344c3.123-3.124,3.123-8.188,0-11.312
			L339.36,25.208c-3.124-3.123-8.188-3.123-11.312,0l-20.344,20.344c-6.741-3.658-13.843-6.607-21.192-8.8V8c0-4.418-3.582-8-8-8
			h-48c-4.418,0-8,3.582-8,8v28.752c-7.349,2.193-14.451,5.142-21.192,8.8l-20.344-20.344c-3.124-3.123-8.188-3.123-11.312,0
			l-33.952,33.944c-3.123,3.124-3.123,8.188,0,11.312l20.352,20.344c-3.655,6.742-6.604,13.844-8.8,21.192h-28.752
			c-4.418,0-8,3.582-8,8v48c0,4.418,3.582,8,8,8h28.752c2.193,7.348,5.139,14.45,8.792,21.192l-20.344,20.344
			c-3.123,3.124-3.123,8.188,0,11.312l33.952,33.952c3.174,3.001,8.138,3.001,11.312,0l20.344-20.352
			c6.742,3.655,13.844,6.604,21.192,8.8V280c0,4.418,3.582,8,8,8h48c4.418,0,8-3.582,8-8v-28.752
			c7.348-2.194,14.449-5.14,21.192-8.792l20.344,20.344c1.5,1.5,3.534,2.344,5.656,2.344s4.156-0.844,5.656-2.344l33.944-33.952
			c3.123-3.124,3.123-8.188,0-11.312l-20.344-20.344c3.655-6.742,6.604-13.844,8.8-21.192h28.752c4.418,0,8-3.582,8-8v-48
			C398.512,115.582,394.93,112,390.512,112z M382.513,160h-26.888c-3.709,0.001-6.931,2.551-7.784,6.16
			c-2.366,9.945-6.309,19.447-11.68,28.144c-1.95,3.157-1.473,7.241,1.152,9.864l19.032,19.024l-22.64,22.64l-19.024-19.04
			c-2.623-2.625-6.707-3.102-9.864-1.152c-8.695,5.378-18.197,9.325-28.144,11.688c-3.609,0.853-6.159,4.075-6.16,7.784V272h-32
			v-26.88c-0.001-3.709-2.551-6.931-6.16-7.784c-9.947-2.363-19.449-6.31-28.144-11.688c-3.157-1.95-7.241-1.473-9.864,1.152
			l-19.024,19.04l-22.64-22.64l19.032-19.04c2.625-2.623,3.102-6.707,1.152-9.864c-5.371-8.698-9.314-18.199-11.68-28.144
			c-0.853-3.609-4.075-6.159-7.784-6.16h-26.888v-32H153.4c3.709-0.001,6.931-2.551,7.784-6.16
			c2.366-9.945,6.309-19.446,11.68-28.144c1.95-3.157,1.473-7.241-1.152-9.864L152.68,64.8l22.632-22.624l19.032,19.032
			c2.623,2.625,6.707,3.102,9.864,1.152c8.693-5.379,18.196-9.323,28.144-11.68c3.609-0.853,6.159-4.075,6.16-7.784V16h32v26.896
			c0.002,3.711,2.555,6.934,6.168,7.784c9.948,2.357,19.451,6.301,28.144,11.68c3.157,1.95,7.241,1.473,9.864-1.152l19.024-19.032
			L356.345,64.8l-19.032,19.032c-2.625,2.623-3.102,6.707-1.152,9.864c5.371,8.698,9.314,18.199,11.68,28.144
			c0.853,3.609,4.075,6.159,7.784,6.16h26.888V160z"></path>
      </g>
    </g>
    <g>
      <g>
        <path d="M254.512,96c-26.51,0-48,21.49-48,48s21.491,48,48,48c26.499-0.026,47.974-21.501,48-48
			C302.512,117.49,281.022,96,254.512,96z M254.512,176c-17.673,0-32-14.327-32-32c0-17.673,14.327-32,32-32
			c17.673,0,32,14.327,32,32C286.512,161.673,272.185,176,254.512,176z"></path>
      </g>
    </g>
    <g></g>
    <g></g>
    <g></g>
    <g></g>
    <g></g>
    <g></g>
    <g></g>
    <g></g>
    <g></g>
    <g></g>
    <g></g>
    <g></g>
    <g></g>
    <g></g>
    <g></g>
  </symbol>
  <symbol xmlns="http://www.w3.org/2000/svg" viewBox="0 0 16 11" id="tick">
    <defs></defs>
    <path id="Shape_10_copy_5" d="M2,4L6,8l8-8"></path>
  </symbol>
  <symbol version="1.1" id="wedding" xmlns="http://www.w3.org/2000/svg" xmlns:xlink="http://www.w3.org/1999/xlink" x="0px" y="0px" xml:space="preserve" viewBox="0 0 512 512">
    <g>
      <g>
        <g>
          <path d="M354.079,176.934c-37.031,0-71.12,12.818-98.079,34.241c-26.959-21.424-61.048-34.241-98.079-34.241
				C70.842,176.934,0,247.777,0,334.855s70.842,157.921,157.921,157.921c37.031,0,71.12-12.818,98.079-34.241
				c26.959,21.424,61.048,34.241,98.079,34.241c87.079,0,157.921-70.843,157.921-157.921S441.158,176.934,354.079,176.934z
				 M157.922,459.384c-68.667,0-124.531-55.864-124.531-124.53c0-68.665,55.864-124.528,124.53-124.528
				c27.719,0,53.349,9.108,74.064,24.482c-22.377,27.258-35.826,62.11-35.826,100.046c0,37.937,13.45,72.789,35.827,100.047
				C211.272,450.276,185.641,459.384,157.922,459.384z M229.55,334.855c0-28.883,9.886-55.5,26.45-76.648
				c16.563,21.148,26.45,47.764,26.45,76.648s-9.887,55.5-26.45,76.648C239.437,390.354,229.55,363.737,229.55,334.855z
				 M354.079,459.384c-27.719,0-53.35-9.108-74.064-24.483c22.377-27.258,35.827-62.11,35.827-100.047
				c0-37.936-13.449-72.789-35.826-100.046c20.714-15.375,46.345-24.483,74.064-24.483c68.665,0,124.53,55.864,124.53,124.528
				C478.609,403.521,422.745,459.384,354.079,459.384z"></path>
          <path d="M221.441,150.234c10.507,8.127,24.863,17.46,25.469,17.853l9.09,5.9l9.09-5.9c0.606-0.394,14.96-9.726,25.469-17.853
				c24.203-18.719,51.985-44.085,51.985-74.342c0-31.246-25.421-56.667-56.667-56.667c-10.651,0-20.988,3.013-29.876,8.528
				c-8.888-5.516-19.224-8.528-29.876-8.528c-31.246,0-56.667,25.421-56.667,56.667
				C169.456,106.149,197.238,131.515,221.441,150.234z M226.124,52.616c6.635,0,12.977,2.853,17.399,7.826L256,74.477l12.477-14.034
				c4.422-4.973,10.764-7.826,17.399-7.826c12.834,0,23.276,10.441,23.276,23.276c0,11.777-13.129,27.903-39.022,47.929
				c-4.383,3.389-9.694,7.131-14.13,10.171c-4.437-3.039-9.748-6.781-14.13-10.171c-25.893-20.026-39.022-36.152-39.022-47.929
				C202.848,63.058,213.289,52.616,226.124,52.616z"></path>
        </g>
      </g>
    </g>
    <g></g>
    <g></g>
    <g></g>
    <g></g>
    <g></g>
    <g></g>
    <g></g>
    <g></g>
    <g></g>
    <g></g>
    <g></g>
    <g></g>
    <g></g>
    <g></g>
    <g></g>
  </symbol>
  <symbol xmlns="http://www.w3.org/2000/svg" fill="#000000" viewBox="0 0 24 24" id="business">
    <path d="M0 0h24v24H0V0z" fill="none"></path>
    <path d="M20 7h-4V5l-2-2h-4L8 5v2H4c-1.1 0-2 .9-2 2v5c0 .75.4 1.38 1 1.73V19c0 1.11.89 2 2 2h14c1.11 0 2-.89 2-2v-3.28c.59-.35 1-.99 1-1.72V9c0-1.1-.9-2-2-2zM10 5h4v2h-4V5zM4 9h16v5h-5v-3H9v3H4V9zm9 6h-2v-2h2v2zm6 4H5v-3h4v1h6v-1h4v3z"></path>
  </symbol>
</svg>