<svg xmlns="http://www.w3.org/2000/svg" width="320" height="320" fill="none" viewBox="0 0 320 320">
    <mask id="brbt4nwmya" width="315" height="255" x="2" y="11" maskUnits="userSpaceOnUse">
        <path fill="#fff" d="M306.229 85.466c-11.914-19.903-32.467-33.072-55.528-35.578-10.294-1.231-19.866-5.923-27.145-13.306-32.768-32.686-85.758-32.847-118.723-.36-8.759 8.74-20.704 13.527-33.074 13.255-31.803-.84-59.906 20.56-67.553 51.441-7.647 30.881 7.223 62.922 35.742 77.02 11.608 5.606 20.408 15.726 24.348 28 10.112 32.298 38.55 55.425 72.231 58.742 33.681 3.318 66.084-13.816 82.304-43.52 7.163-13.071 20.049-22.019 34.798-24.165 24.482-3.682 45.514-19.331 56.074-41.722 10.561-22.392 9.258-48.575-3.474-69.807z"/>
    </mask>
    <g mask="url(#brbt4nwmya)">
        <path fill="url(#paint0_linear)" d="M306.229 85.466c-11.914-19.903-32.467-33.072-55.528-35.578-10.294-1.231-19.866-5.923-27.145-13.306-32.768-32.686-85.758-32.847-118.723-.36-8.759 8.74-20.704 13.527-33.074 13.255-31.803-.84-59.906 20.56-67.553 51.441-7.647 30.881 7.223 62.922 35.742 77.02 11.608 5.606 20.408 15.726 24.348 28 10.112 32.298 38.55 55.425 72.231 58.742 33.681 3.318 66.084-13.816 82.304-43.52 7.163-13.071 20.049-22.019 34.798-24.165 24.482-3.682 45.514-19.331 56.074-41.722 10.561-22.392 9.258-48.575-3.474-69.807z"/>
        <path fill="url(#paint1_linear)" d="M195.865 228.76l-84.488.005L-52.842-63.61l404.009 6.689L195.865 228.76z" opacity=".47"/>
        <path fill="#62A8FD" d="M4.866 126.314c-63.125-.071-114.281-51.226-114.352-114.352.071-63.126 51.227-114.281 114.352-114.353 63.126.072 114.282 51.227 114.353 114.353-.071 63.126-51.227 114.281-114.353 114.352zm0-221.705c-59.261.067-107.285 48.092-107.352 107.353.067 59.261 48.09 107.285 107.352 107.352 59.262-.067 107.286-48.09 107.353-107.352C112.152-47.3 64.128-95.324 4.866-95.391zM256.857 406.484c-63.155 0-114.351-51.198-114.351-114.353 0-63.155 51.198-114.352 114.353-114.352 63.155 0 114.352 51.197 114.352 114.352-.071 63.126-51.228 114.282-114.354 114.353zm0-221.705c-59.289 0-107.351 48.064-107.351 107.353 0 59.289 48.064 107.352 107.353 107.352 59.289 0 107.352-48.064 107.352-107.353-.067-59.261-48.092-107.286-107.354-107.352z"/>
        <path fill="url(#paint2_linear)" d="M227.12 106.324c48.508 0 87.832-39.324 87.832-87.833 0-48.508-39.324-87.832-87.832-87.832-48.509 0-87.833 39.324-87.833 87.832 0 48.509 39.324 87.833 87.833 87.833z" opacity=".7"/>
    </g>
    <path fill="#fff" d="M269.172 129.599c16.42 0 29.731-13.311 29.731-29.73 0-16.42-13.311-29.73-29.731-29.73-16.419 0-29.73 13.31-29.73 29.73 0 16.419 13.311 29.73 29.73 29.73zM54.023 129.599c16.42 0 29.73-13.311 29.73-29.73 0-16.42-13.31-29.73-29.73-29.73s-29.73 13.31-29.73 29.73c0 16.419 13.31 29.73 29.73 29.73zM160.911 93.085c16.419 0 29.73-13.31 29.73-29.73s-13.311-29.73-29.73-29.73c-16.42 0-29.731 13.31-29.731 29.73s13.311 29.73 29.731 29.73z"/>
    <path fill="#94C4FE" d="M230.203 251.697c-1.785-21.294-40.978-35.394-87.542-31.492-46.564 3.902-82.864 24.328-81.08 45.622.043.521.315 5.569.498 7.748 1.784 21.295 40.059 35.687 86.622 31.785 46.564-3.902 83.644-25.883 81.859-47.178-.043-.52-.175-4.305-.357-6.485z"/>
    <path fill="#308CFD" d="M149.017 292.616c46.499-4.069 82.776-23.575 81.027-43.57-1.75-19.994-40.863-32.905-87.362-28.837-46.5 4.068-82.776 23.575-81.027 43.569 1.75 19.995 40.862 32.906 87.362 28.838z"/>
    <path fill="#0373F9" d="M146.762 276.673c33.219-2.783 59.27-15.511 58.188-28.428-1.082-12.916-28.889-21.131-62.108-18.347-33.218 2.784-59.27 15.511-58.188 28.428 1.083 12.916 28.889 21.131 62.108 18.347z"/>
    <path fill="#94C4FE" d="M203.394 219.994c.049-.686.045-1.375-.012-2.061-1.339-15.982-30.756-26.565-65.704-23.636-33.948 2.845-60.625 17.392-60.896 32.871l-.002.001-.218 4.157c-.026.301-.042.602-.047.903l-.003.043h.003c-.009.454.005.908.042 1.36 1.34 15.983 30.756 26.565 65.704 23.637 33.592-2.815 60.063-17.088 60.877-32.385l.278-4.891-.022.001zm-58.782 19.33c-15.595 1.306-28.722-3.416-29.32-10.548-.598-7.132 11.561-13.973 27.156-15.28 15.595-1.307 28.723 3.415 29.32 10.547.598 7.133-11.56 13.974-27.156 15.281z"/>
    <path fill="#62A8FD" d="M203.382 217.933c-1.339-15.982-30.756-26.565-65.704-23.636-34.948 2.928-62.193 18.259-60.854 34.241 1.34 15.983 30.756 26.565 65.704 23.637 34.948-2.929 62.194-18.259 60.854-34.242zm-62.197 18.217c-15.595 1.306-28.722-3.416-29.32-10.548-.598-7.132 11.561-13.973 27.156-15.28 15.595-1.307 28.723 3.415 29.32 10.548.598 7.132-11.56 13.973-27.156 15.28z"/>
    <path fill="#94C4FE" d="M113.269 240.59c.57-1.719-2.264-4.206-6.33-5.554-4.066-1.349-7.824-1.049-8.394.669-.57 1.719 2.264 4.206 6.33 5.554 4.066 1.349 7.824 1.049 8.394-.669zM135.238 243.803c.095-1.809-3.296-3.456-7.574-3.681-4.278-.224-7.822 1.06-7.917 2.869-.095 1.808 3.296 3.456 7.574 3.68 4.278.224 7.823-1.06 7.917-2.868z"/>
    <path fill="#03D8D8" d="M182.971 105.917c-1.934-.206-6.976-2.836-8.381-2.059-17.539 9.693-34.908 19.971-52.478 15.28-2.637-.707-5.176-1.624-7.716-2.54-15.432 33.068-36.797 79.381 10.672 113.308 65.148-3.954 86.856-49.94 102.288-83.009-2.084-2.008-3.917-3.488-6.62-5.746-22.607-5.358-32.708-17.875-37.765-35.234z"/>
    <mask id="1co6vywpjb" width="132" height="122" x="89" y="103" maskUnits="userSpaceOnUse">
        <path fill="#fff" d="M174.59 103.858c-18.332 11.086-40.12 14.601-59.098 9.534-2.637-.707-5.176-1.624-7.716-2.541-15.432 33.069-36.798 79.382 10.672 113.309 65.148-3.955 86.856-49.94 102.288-83.009-2.744-.347-5.455-.916-8.107-1.703-18.958-5.109-32.983-18.23-38.039-35.59z"/>
    </mask>
    <g mask="url(#1co6vywpjb)">
        <path fill="#6EF0F7" d="M174.59 103.858c-18.332 11.086-40.12 14.601-59.098 9.534-2.637-.707-5.176-1.624-7.716-2.541-15.432 33.069-36.798 79.382 10.672 113.309 65.148-3.955 86.856-49.94 102.288-83.009-2.744-.347-5.455-.916-8.107-1.703-18.958-5.109-32.983-18.23-38.039-35.59z"/>
        <path fill="url(#paint3_linear)" d="M161.668 222.433c34.481 0 62.433-27.952 62.433-62.433 0-34.481-27.952-62.433-62.433-62.433-34.481 0-62.434 27.952-62.434 62.433 0 34.481 27.953 62.433 62.434 62.433z"/>
        <path fill="url(#paint4_linear)" d="M189.091 240.529c34.481 0 62.433-27.953 62.433-62.434 0-34.481-27.952-62.433-62.433-62.433-34.481 0-62.433 27.952-62.433 62.433 0 34.481 27.952 62.434 62.433 62.434z"/>
    </g>
    <path fill="#03D8D8" d="M178.803 164c-.016-.028-.04-.051-.059-.078-.016-.028-.04-.052-.059-.079-.016-.027-.04-.051-.058-.078-.017-.028-.041-.051-.059-.078-.017-.028-.041-.052-.059-.079-.017-.028-.04-.051-.059-.078-.016-.028-.04-.052-.059-.079-.016-.028-.04-.051-.058-.078-.017-.028-.041-.052-.059-.079-.017-.028-.041-.051-.059-.078-.017-.028-.041-.052-.059-.078-.016-.028-.04-.052-.059-.079-.016-.028-.04-.051-.059-.078-.016-.028-.04-.052-.058-.079-.017-.028-.041-.051-.059-.078-.017-.028-.041-.052-.059-.079-.017-.028-.041-.051-.059-.078-.016-.028-.04-.052-.059-.079-.016-.027-.04-.051-.058-.078-.017-.028-.041-.051-.059-.078-.017-.028-.041-.052-.059-.079-.017-.028-.041-.051-.059-.078-.017-.028-.041-.052-.059-.079-.017-.028-.04-.051-.059-.078-.016-.028-.04-.052-.059-.079-.016-.027-.04-.051-.058-.078-.017-.028-.041-.051-.059-.079-.017-.027-.041-.051-.059-.078-.017-.028-.041-.051-.059-.078-.017-.028-.04-.052-.059-.079-.016-.028-.04-.051-.059-.078-.016-.028-.04-.052-.058-.079-.017-.027-.041-.051-.059-.078-.017-.028-.041-.052-.059-.079-.017-.027-.041-.051-.059-.078-.016-.028-.04-.051-.059-.078-.016-.028-.04-.052-.058-.079-.017-.028-.041-.051-.059-.078-.017-.028-.041-.052-.059-.079-.017-.028-.041-.051-.059-.078-.017-.028-.04-.052-.059-.079-.016-.028-.04-.051-.059-.078-.016-.028-.04-.052-.058-.079-.017-.027-.041-.051-.059-.078-.017-.028-.041-.051-.059-.078-.017-.028-.041-.052-.059-.079-.017-.028-.04-.051-.059-.078-.016-.028-.04-.052-.058-.079-.017-.028-.041-.051-.059-.078-.017-.028-.041-.052-.059-.079-.203-.334-.515-.588-.883-.72l-16.207-5.397 1.46-15.098c.083-.459-.054-.93-.369-1.274-.021-.026-.036-.054-.059-.079-.021-.025-.036-.054-.059-.078-.021-.026-.036-.054-.059-.078-.02-.026-.036-.054-.058-.079-.021-.026-.037-.054-.059-.078-.021-.026-.037-.054-.059-.079-.021-.026-.037-.054-.059-.078-.021-.026-.036-.054-.059-.079-.021-.025-.036-.054-.059-.078-.02-.026-.036-.054-.058-.079-.021-.025-.037-.053-.059-.078-.021-.026-.036-.054-.059-.078-.021-.026-.037-.054-.059-.079-.021-.026-.036-.054-.059-.078-.021-.026-.036-.054-.059-.079-.02-.025-.036-.054-.058-.078-.021-.026-.037-.054-.059-.079-.021-.025-.036-.053-.059-.078-.021-.026-.036-.054-.059-.079-.021-.025-.036-.054-.059-.078-.02-.026-.036-.054-.059-.078-.02-.026-.036-.054-.059-.079-.02-.026-.036-.054-.058-.078-.021-.026-.036-.054-.059-.079-.021-.025-.036-.054-.059-.078-.02-.026-.036-.054-.059-.079-.02-.025-.036-.054-.058-.078-.021-.026-.037-.054-.06-.078-.02-.026-.036-.054-.058-.079-.021-.026-.037-.054-.059-.078-.021-.026-.036-.054-.059-.079-.021-.025-.036-.054-.059-.078-.02-.026-.036-.054-.058-.079-.021-.025-.037-.054-.059-.078-.021-.026-.037-.054-.059-.079-.021-.025-.037-.054-.059-.078-.021-.026-.036-.054-.059-.078-.021-.026-.036-.054-.059-.079-.02-.026-.036-.054-.059-.078-.02-.026-.036-.054-.058-.079-.021-.025-.037-.054-.059-.078-.021-.026-.037-.054-.059-.079-.021-.025-.036-.054-.059-.078-.021-.026-.036-.054-.059-.078-.02-.026-.036-.054-.059-.079-.02-.026-.036-.054-.058-.078-.021-.026-.037-.054-.059-.079-.021-.025-.036-.054-.059-.078-.021-.026-.036-.054-.059-.079-.02-.025-.036-.054-.059-.078-.11-.141-.244-.262-.396-.357-.962-.493-2.138-.238-2.81.609l-12.624 13.805c-.585.661-1.478.96-2.344.784l-19.168-3.964c-.537-.069-1.082.033-1.557.291-1.065.462-1.558 1.695-1.105 2.763l8.62 13.851c.419.654.328 1.511-.22 2.061l-12.184 16.042c-.332.41-.472.944-.384 1.464.048.246.159.476.321.667.019.027.038.053.059.079.019.026.037.053.058.078.02.026.038.053.059.078.02.027.038.054.059.079.019.026.038.053.059.078.019.027.038.054.059.079.019.026.038.053.059.078.019.027.037.053.058.079.02.026.038.053.059.078.02.027.038.053.059.079.019.026.038.053.059.078.019.027.038.053.059.078.019.027.038.054.058.079.02.026.038.053.059.078.02.027.038.054.059.079.02.026.038.053.059.078.019.027.038.053.059.079.019.026.038.053.059.078.019.027.038.053.059.078.019.027.037.054.058.079.02.026.038.053.059.078.02.027.038.054.059.079.019.026.038.053.059.078.019.027.038.053.059.079.019.026.038.053.059.078.019.027.037.053.058.079.02.026.038.053.059.078.019.026.038.053.059.078.019.027.038.054.059.079.019.026.038.053.059.078.019.027.037.054.058.079.02.026.038.053.059.078.02.027.038.053.059.079.019.026.038.053.059.078.019.026.038.053.059.078.019.027.038.054.059.079.019.026.037.053.058.078.02.027.038.054.059.079.02.026.038.053.059.078.019.027.038.054.059.079.019.026.038.053.059.078.019.027.038.053.059.079.019.026.037.053.058.078.02.026.038.053.059.078.02.027.038.054.059.079.019.026.038.053.059.078.019.027.038.054.059.079.019.026.038.053.059.078.019.027.037.053.058.078.02.027.038.054.059.079.506.619 1.344.857 2.1.597l19.241-5.2c.785-.261 1.649-.029 2.198.589l10.647 13.218c.345.486.916.761 1.511.726 1.084-.012 2.011-.781 2.225-1.843l3.833-18.282c.146-.816.742-1.478 1.539-1.707l18.211-6.702c.538-.207.992-.587 1.289-1.081.377-.585.376-1.336-.002-1.92z"/>
    <path fill="#D9FCFE" d="M157.232 134.863l-1.617 16.71c-.096.788.404 1.526 1.172 1.727l18.192 6.057c.495.18.879.578 1.041 1.079.161.501.082 1.049-.215 1.484-.298.494-.752.874-1.29 1.081l-18.211 6.701c-.796.23-1.392.892-1.538 1.707l-3.834 18.282c-.213 1.063-1.14 1.831-2.224 1.843-.595.035-1.167-.239-1.512-.725l-10.646-13.218c-.549-.618-1.413-.85-2.198-.589l-19.242 5.2c-.469.183-.994.159-1.445-.067-.45-.226-.783-.633-.917-1.119-.087-.52.053-1.053.385-1.464l12.184-16.042c.547-.55.639-1.407.22-2.061l-8.62-13.851c-.453-1.068.04-2.301 1.104-2.763.476-.258 1.021-.36 1.558-.291l19.168 3.964c.865.176 1.759-.123 2.344-.784l12.624-13.805c.672-.847 1.848-1.102 2.81-.609.538.318.82.938.707 1.553z"/>
    <path fill="#25E9F4" d="M264.083 277.496c4.64 0 8.402-3.762 8.402-8.402 0-4.64-3.762-8.402-8.402-8.402-4.64 0-8.402 3.762-8.402 8.402 0 4.64 3.762 8.402 8.402 8.402z"/>
    <path fill="#03D8D8" d="M264.101 255.575l-15.842-15.809c-1.791-1.783-2.864-4.162-3.014-6.685-.172-2.845-.006-6.053-.006-6.053s13.576-5.917 17.615-1.887l1.217 1.215 1.215-1.217c4.03-4.039 17.601 1.85 17.601 1.85.142 2.1.144 4.206.007 6.306-.2 2.432-1.257 4.714-2.983 6.438l-15.81 15.842z"/>
    <mask id="cxhblwpqgc" width="38" height="34" x="245" y="217" maskUnits="userSpaceOnUse">
        <path fill="#fff" d="M264.096 250.71l-15.842-15.809c-4.039-4.03-4.045-10.571-.015-14.61 4.03-4.038 10.571-4.045 14.61-.015l1.217 1.215 1.215-1.217c2.607-2.613 6.41-3.636 9.976-2.685 3.566.952 6.354 3.734 7.313 7.298.959 3.564-.057 7.369-2.664 9.981l-15.81 15.842z"/>
    </mask>
    <g mask="url(#cxhblwpqgc)">
        <path fill="#6EF0F7" d="M264.096 250.71l-15.842-15.809c-4.039-4.03-4.045-10.571-.015-14.61 4.03-4.038 10.571-4.045 14.61-.015l1.217 1.215 1.215-1.217c2.607-2.613 6.41-3.636 9.976-2.685 3.566.952 6.354 3.734 7.313 7.298.959 3.564-.057 7.369-2.664 9.981l-15.81 15.842z"/>
        <path fill="#6EF0F7" d="M264.096 250.71l-15.842-15.809c-4.039-4.03-4.045-10.571-.015-14.61 4.03-4.038 10.571-4.045 14.61-.015l1.217 1.215 1.215-1.217c2.607-2.613 6.41-3.636 9.976-2.685 3.566.952 6.354 3.734 7.313 7.298.959 3.564-.057 7.369-2.664 9.981l-15.81 15.842z"/>
        <path fill="url(#paint5_linear)" d="M254.661 245.498c10.889 0 19.715-8.827 19.715-19.715s-8.826-19.715-19.715-19.715c-10.888 0-19.715 8.827-19.715 19.715s8.827 19.715 19.715 19.715z" opacity=".7"/>
    </g>
    <path fill="#85C1FF" d="M47.19 230.181l-24.802-24.75c-2.804-2.791-4.484-6.516-4.718-10.466-.27-4.454-.01-9.476-.01-9.476s21.255-9.264 27.577-2.955l1.906 1.903 1.902-1.906c6.31-6.323 27.555 2.897 27.555 2.897.222 3.287.226 6.585.01 9.872-.312 3.807-1.966 7.38-4.668 10.08L47.19 230.181z"/>
    <path fill="#08F" d="M47.183 222.565L22.38 197.814c-6.315-6.31-6.322-16.545-.015-22.865 6.306-6.319 16.54-6.333 22.865-.031l1.905 1.903 1.902-1.907c4.081-4.094 10.037-5.7 15.623-4.211 5.585 1.49 9.952 5.847 11.452 11.429 1.5 5.583-.092 11.542-4.178 15.631l-24.751 24.802z"/>
    <mask id="w9xy6sq0zd" width="60" height="53" x="17" y="170" maskUnits="userSpaceOnUse">
        <path fill="#fff" d="M47.183 222.565L22.38 197.814c-6.315-6.31-6.322-16.545-.015-22.865 6.306-6.319 16.54-6.333 22.865-.031l1.905 1.903 1.902-1.907c4.081-4.094 10.037-5.7 15.623-4.211 5.585 1.49 9.952 5.847 11.452 11.429 1.5 5.583-.092 11.542-4.178 15.631l-24.751 24.802z"/>
    </mask>
    <g mask="url(#w9xy6sq0zd)">
        <path fill="#308CFD" d="M47.183 222.565L22.38 197.814c-6.315-6.31-6.322-16.545-.015-22.865 6.306-6.319 16.54-6.333 22.865-.031l1.905 1.903 1.902-1.907c4.081-4.094 10.037-5.7 15.623-4.211 5.585 1.49 9.952 5.847 11.452 11.429 1.5 5.583-.092 11.542-4.178 15.631l-24.751 24.802z"/>
        <path fill="#308CFD" d="M47.183 222.565L22.38 197.814c-6.315-6.31-6.322-16.545-.015-22.865 6.306-6.319 16.54-6.333 22.865-.031l1.905 1.903 1.902-1.907c4.081-4.094 10.037-5.7 15.623-4.211 5.585 1.49 9.952 5.847 11.452 11.429 1.5 5.583-.092 11.542-4.178 15.631l-24.751 24.802z"/>
        <path fill="url(#paint6_linear)" d="M60.297 210.244c15.391 0 27.868-12.477 27.868-27.867 0-15.391-12.477-27.868-27.868-27.868-15.39 0-27.867 12.477-27.867 27.868 0 15.39 12.476 27.867 27.867 27.867z"/>
    </g>
    <path fill="#25E9F4" d="M34.224 270.082l-13.882-13.854c-1.57-1.562-2.51-3.647-2.641-5.857-.151-2.494-.006-5.305-.006-5.305s11.897-5.185 15.436-1.653l1.067 1.065 1.064-1.067c3.532-3.539 15.424 1.621 15.424 1.621.124 1.84.126 3.686.005 5.526-.174 2.131-1.1 4.13-2.613 5.642l-13.854 13.882z"/>
    <mask id="2febossjse" width="34" height="30" x="17" y="236" maskUnits="userSpaceOnUse">
        <path fill="#03D8D8" d="M34.22 265.325l-13.883-13.853c-3.535-3.532-3.538-9.261-.009-12.798 3.53-3.538 9.26-3.545 12.799-.018l1.066 1.065 1.065-1.067c3.532-3.535 9.26-3.539 12.798-.009 3.538 3.53 3.545 9.259.018 12.798L34.22 265.325z"/>
    </mask>
    <g mask="url(#2febossjse)">
        <path fill="#03D8D8" d="M34.22 265.325l-13.883-13.853c-3.535-3.532-3.538-9.261-.009-12.798 3.53-3.538 9.26-3.545 12.799-.018l1.066 1.065 1.065-1.067c3.532-3.535 9.26-3.539 12.798-.009 3.538 3.53 3.545 9.259.018 12.798L34.22 265.325z"/>
        <path fill="url(#paint7_linear)" d="M41.56 258.923c8.615 0 15.599-6.984 15.599-15.599 0-8.614-6.984-15.598-15.599-15.598-8.614 0-15.598 6.984-15.598 15.598 0 8.615 6.984 15.599 15.598 15.599z"/>
    </g>
    <defs>
        <linearGradient id="paint0_linear" x1="2.274" x2="316.727" y1="138.524" y2="138.524" gradientUnits="userSpaceOnUse">
            <stop offset=".018" stop-color="#0373F9"/>
            <stop offset=".298" stop-color="#076FF1"/>
            <stop offset=".724" stop-color="#1164DC"/>
            <stop offset="1" stop-color="#195BCB"/>
        </linearGradient>
        <linearGradient id="paint1_linear" x1="124.457" x2="195.762" y1="-27.78" y2="168.128" gradientUnits="userSpaceOnUse">
            <stop offset=".503" stop-color="#62A8FD"/>
            <stop offset=".546" stop-color="#64A9FD" stop-opacity=".97"/>
            <stop offset=".611" stop-color="#68ABFD" stop-opacity=".886"/>
            <stop offset=".692" stop-color="#6FAFFD" stop-opacity=".749"/>
            <stop offset=".783" stop-color="#78B4FD" stop-opacity=".558"/>
            <stop offset=".885" stop-color="#84BBFE" stop-opacity=".313"/>
            <stop offset=".993" stop-color="#93C3FE" stop-opacity=".02"/>
            <stop offset="1" stop-color="#94C4FE" stop-opacity="0"/>
        </linearGradient>
        <linearGradient id="paint2_linear" x1="190.575" x2="263.664" y1="-61.394" y2="98.376" gradientUnits="userSpaceOnUse">
            <stop offset=".501" stop-color="#62A8FD"/>
            <stop offset=".544" stop-color="#65AAFD" stop-opacity=".97"/>
            <stop offset=".61" stop-color="#6DAEFD" stop-opacity=".886"/>
            <stop offset=".69" stop-color="#7AB5FE" stop-opacity=".749"/>
            <stop offset=".782" stop-color="#8CBFFE" stop-opacity=".558"/>
            <stop offset=".884" stop-color="#A4CCFE" stop-opacity=".313"/>
            <stop offset=".992" stop-color="#C0DCFF" stop-opacity=".02"/>
            <stop offset=".999" stop-color="#C2DDFF" stop-opacity="0"/>
        </linearGradient>
        <linearGradient id="paint3_linear" x1="221.041" x2="102.295" y1="179.339" y2="140.661" gradientUnits="userSpaceOnUse">
            <stop offset=".501" stop-color="#B4F9FD"/>
            <stop offset=".544" stop-color="#B5F9FD" stop-opacity=".97"/>
            <stop offset=".61" stop-color="#B8F9FD" stop-opacity=".886"/>
            <stop offset=".69" stop-color="#BDFAFD" stop-opacity=".749"/>
            <stop offset=".782" stop-color="#C4FAFD" stop-opacity=".558"/>
            <stop offset=".884" stop-color="#CDFBFE" stop-opacity=".313"/>
            <stop offset=".992" stop-color="#D8FCFE" stop-opacity=".02"/>
            <stop offset=".999" stop-color="#D9FCFE" stop-opacity="0"/>
        </linearGradient>
        <linearGradient id="paint4_linear" x1="248.465" x2="129.718" y1="197.435" y2="158.756" gradientUnits="userSpaceOnUse">
            <stop offset=".501" stop-color="#6EF0F7"/>
            <stop offset=".545" stop-color="#6FF0F7" stop-opacity=".969"/>
            <stop offset=".612" stop-color="#72F1F7" stop-opacity=".883"/>
            <stop offset=".694" stop-color="#76F2F7" stop-opacity=".742"/>
            <stop offset=".787" stop-color="#7CF3F7" stop-opacity=".547"/>
            <stop offset=".89" stop-color="#84F5F7" stop-opacity=".297"/>
            <stop offset=".999" stop-color="#8DF7F7" stop-opacity="0"/>
        </linearGradient>
        <linearGradient id="paint5_linear" x1="246.489" x2="262.833" y1="207.837" y2="243.728" gradientUnits="userSpaceOnUse">
            <stop offset=".501" stop-color="#03D8D8"/>
            <stop offset=".549" stop-color="#07D9D9" stop-opacity=".964"/>
            <stop offset=".623" stop-color="#11DBDC" stop-opacity=".866"/>
            <stop offset=".712" stop-color="#22DFE1" stop-opacity=".706"/>
            <stop offset=".815" stop-color="#3AE4E8" stop-opacity=".483"/>
            <stop offset=".926" stop-color="#59EBF1" stop-opacity=".201"/>
            <stop offset=".999" stop-color="#6EF0F7" stop-opacity="0"/>
        </linearGradient>
        <linearGradient id="paint6_linear" x1="86.799" x2="33.796" y1="191.009" y2="173.745" gradientUnits="userSpaceOnUse">
            <stop offset=".501" stop-color="#62A8FD" stop-opacity=".5"/>
            <stop offset=".571" stop-color="#5CA6FD" stop-opacity=".47"/>
            <stop offset=".678" stop-color="#4CA1FD" stop-opacity=".386"/>
            <stop offset=".809" stop-color="#3198FE" stop-opacity=".249"/>
            <stop offset=".957" stop-color="#0C8CFF" stop-opacity=".061"/>
            <stop offset="1" stop-color="#08F" stop-opacity="0"/>
        </linearGradient>
        <linearGradient id="paint7_linear" x1="56.395" x2="26.727" y1="248.156" y2="238.493" gradientUnits="userSpaceOnUse">
            <stop offset=".501" stop-color="#25E9F4"/>
            <stop offset=".546" stop-color="#24E8F3" stop-opacity=".968"/>
            <stop offset=".613" stop-color="#21E7F1" stop-opacity=".882"/>
            <stop offset=".696" stop-color="#1CE5ED" stop-opacity=".739"/>
            <stop offset=".79" stop-color="#15E1E7" stop-opacity=".542"/>
            <stop offset=".894" stop-color="#0DDDE0" stop-opacity=".288"/>
            <stop offset="1" stop-color="#03D8D8" stop-opacity="0"/>
        </linearGradient>
    </defs>
</svg>
